<svg width="24" height="25" viewBox="0 0 24 25" fill="none" xmlns="http://www.w3.org/2000/svg">
<path d="M10.0698 2.37545C11.2403 1.60165 12.7597 1.60165 13.9302 2.37545L17.5954 4.79855L21.0326 7.53562C22.1302 8.40968 22.5997 9.85477 22.2255 11.2071L21.0536 15.4417L19.5126 19.5564C19.0205 20.8704 17.7913 21.7635 16.3895 21.8255L12 22.0195L7.6105 21.8255C6.20874 21.7635 4.97948 20.8704 4.48738 19.5564L2.94641 15.4417L1.77452 11.2071C1.40028 9.85476 1.86982 8.40968 2.96744 7.53562L6.40457 4.79855L10.0698 2.37545Z" fill="#46FF9B" stroke="#46FF9B"/>
<path d="M13.9385 17.1155H12.84L11.9741 14.7893H7.50276L6.63691 17.1155H5.53845L8.96307 8.06934H10.5138L13.9385 17.1155ZM9.60922 9.1678L7.86461 13.8201H11.6123L9.86768 9.1678H9.60922Z" fill="#053969"/>
<path d="M16.0112 17.1155H14.9773V8.06934H16.0112V17.1155Z" fill="#053969"/>
</svg>
