<svg width="1278" height="445" viewBox="0 0 1278 445" fill="none" xmlns="http://www.w3.org/2000/svg">
<path d="M16.379 56.0772C15.2947 55.8667 14.245 56.575 14.0345 57.6593C13.824 58.7437 14.5323 59.7934 15.6166 60.0039L16.379 56.0772ZM1275.91 98.54L1273.91 98.6081L1275.91 98.54ZM2.49731 268.5L0.497314 268.5L2.49731 268.5ZM936.498 318.5L916.791 306.459L916.216 329.546L936.498 318.5ZM21.3789 61.0974C22.465 61.2988 23.5087 60.5817 23.7101 59.4956C23.9115 58.4096 23.1943 57.3659 22.1083 57.1645L21.3789 61.0974ZM33.6979 59.2155C32.6088 59.0317 31.5769 59.7658 31.3931 60.8549C31.2094 61.9441 31.9434 62.976 33.0326 63.1597L33.6979 59.2155ZM44.8544 65.0587C45.9463 65.2255 46.9667 64.4756 47.1335 63.3837C47.3003 62.2918 46.5503 61.2714 45.4584 61.1046L44.8544 65.0587ZM57.3849 62.8353C56.2906 62.6847 55.2815 63.4497 55.1309 64.5439C54.9802 65.6382 55.7452 66.6473 56.8395 66.798L57.3849 62.8353ZM68.532 68.3254C69.6282 68.4611 70.6268 67.6824 70.7625 66.5862C70.8982 65.49 70.1195 64.4914 69.0233 64.3557L68.532 68.3254ZM80.7775 65.7323C79.6797 65.6109 78.6912 66.4025 78.5698 67.5003C78.4484 68.5982 79.24 69.5866 80.3379 69.7081L80.7775 65.7323ZM92.2815 70.9531C93.3808 71.0608 94.3594 70.257 94.4671 69.1577C94.5748 68.0584 93.771 67.0799 92.6717 66.9722L92.2815 70.9531ZM104.601 68.0697C103.5 67.975 102.531 68.7903 102.437 69.8908C102.342 70.9913 103.157 71.9602 104.258 72.055L104.601 68.0697ZM116.025 73.0026C117.126 73.0853 118.086 72.2594 118.169 71.1579C118.252 70.0564 117.426 69.0965 116.324 69.0138L116.025 73.0026ZM128.166 69.8394C127.064 69.7683 126.113 70.6043 126.041 71.7065C125.97 72.8088 126.806 73.76 127.909 73.8311L128.166 69.8394ZM139.905 74.5432C141.008 74.6031 141.951 73.7576 142.011 72.6547C142.071 71.5517 141.225 70.609 140.122 70.5491L139.905 74.5432ZM152.039 71.1391C150.935 71.0897 150.001 71.9442 149.951 73.0477C149.902 74.1511 150.756 75.0857 151.86 75.1351L152.039 71.1391ZM163.679 75.6106C164.783 75.6501 165.71 74.7873 165.749 73.6834C165.789 72.5795 164.926 71.6527 163.822 71.6132L163.679 75.6106ZM175.702 71.9865C174.598 71.9565 173.678 72.8273 173.648 73.9315C173.619 75.0356 174.489 75.955 175.593 75.985L175.702 71.9865ZM187.599 76.2608C188.704 76.2817 189.616 75.4033 189.637 74.2989C189.658 73.1946 188.779 72.2824 187.675 72.2616L187.599 76.2608ZM199.597 72.4394C198.492 72.4272 197.587 73.3127 197.575 74.4172C197.563 75.5217 198.448 76.427 199.553 76.4392L199.597 72.4394ZM211.392 76.5255C212.497 76.5295 213.396 75.6374 213.4 74.5328C213.404 73.4282 212.511 72.5296 211.407 72.5256L211.392 76.5255ZM223.295 72.526C222.191 72.5299 221.298 73.4284 221.302 74.533C221.306 75.6375 222.205 76.5298 223.309 76.526L223.295 72.526ZM235.3 76.4429C236.404 76.4315 237.29 75.5268 237.279 74.4223C237.267 73.3178 236.363 72.4317 235.258 72.4431L235.3 76.4429ZM247.197 72.2807C246.093 72.2993 245.213 73.2097 245.231 74.3141C245.25 75.4185 246.16 76.2987 247.265 76.2801L247.197 72.2807ZM259.107 76.0442C260.212 76.0188 261.086 75.1031 261.061 73.9988C261.035 72.8945 260.12 72.0199 259.015 72.0453L259.107 76.0442ZM270.896 71.7369C269.792 71.7688 268.922 72.6897 268.954 73.7938C268.986 74.898 269.907 75.7672 271.011 75.7353L270.896 71.7369ZM282.973 75.3556C284.077 75.3174 284.941 74.3916 284.903 73.2877C284.865 72.1838 283.939 71.3198 282.835 71.358L282.973 75.3556ZM294.795 70.912C293.691 70.9561 292.832 71.8866 292.876 72.9903C292.92 74.094 293.851 74.9529 294.955 74.9088L294.795 70.912ZM306.792 74.4048C307.895 74.3551 308.749 73.4202 308.7 72.3167C308.65 71.2133 307.715 70.3591 306.612 70.4089L306.792 74.4048ZM318.477 69.8442C317.374 69.8994 316.524 70.8384 316.579 71.9416C316.634 73.0448 317.574 73.8944 318.677 73.8392L318.477 69.8442ZM330.606 73.2138C331.709 73.1534 332.554 72.2103 332.494 71.1074C332.434 70.0045 331.491 69.1594 330.388 69.2198L330.606 73.2138ZM342.341 68.5378C341.239 68.6032 340.398 69.5501 340.463 70.6527C340.528 71.7554 341.475 72.5962 342.578 72.5308L342.341 68.5378ZM354.428 71.8026C355.53 71.7325 356.367 70.782 356.297 69.6797C356.227 68.5774 355.276 67.7405 354.174 67.8106L354.428 71.8026ZM366.024 67.0327C364.922 67.1073 364.089 68.0612 364.163 69.1632C364.238 70.2652 365.192 71.0982 366.294 71.0236L366.024 67.0327ZM378.193 70.1947C379.294 70.1158 380.124 69.1587 380.045 68.0569C379.966 66.9552 379.009 66.126 377.907 66.2049L378.193 70.1947ZM389.821 65.3292C388.719 65.4122 387.894 66.3724 387.977 67.4738C388.06 68.5753 389.02 69.4009 390.121 69.3179L389.821 65.3292ZM402.005 68.4009C403.106 68.3139 403.928 67.3508 403.841 66.2497C403.754 65.1485 402.791 64.3263 401.69 64.4133L402.005 68.4009ZM413.529 63.4585C412.428 63.5491 411.609 64.515 411.699 65.6159C411.79 66.7167 412.756 67.5357 413.857 67.445L413.529 63.4585ZM425.73 66.4481C426.831 66.3539 427.647 65.3854 427.552 64.2849C427.458 63.1843 426.49 62.3685 425.389 62.4627L425.73 66.4481ZM437.269 61.4276C436.169 61.5252 435.356 62.4962 435.454 63.5964C435.551 64.6967 436.522 65.5095 437.623 65.412L437.269 61.4276ZM449.516 64.34C450.616 64.2392 451.426 63.2659 451.326 62.1659C451.225 61.0659 450.252 60.2559 449.152 60.3567L449.516 64.34ZM460.986 59.2563C459.887 59.36 459.079 60.3356 459.183 61.4353C459.287 62.535 460.262 63.3423 461.362 63.2386L460.986 59.2563ZM473.218 62.1042C474.318 61.9976 475.123 61.0199 475.016 59.9205C474.909 58.8211 473.932 58.0162 472.832 58.1229L473.218 62.1042ZM484.687 56.9583C483.588 57.0677 482.786 58.0473 482.895 59.1465C483.004 60.2456 483.984 61.048 485.083 60.9387L484.687 56.9583ZM496.954 59.744C498.053 59.6321 498.853 58.6506 498.741 57.5517C498.629 56.4528 497.648 55.6527 496.549 55.7645L496.954 59.744ZM508.394 54.5454C507.296 54.6597 506.498 55.6429 506.612 56.7416C506.726 57.8402 507.709 58.6382 508.808 58.524L508.394 54.5454ZM520.658 57.2792C521.756 57.1626 522.552 56.1778 522.436 55.0793C522.319 53.9809 521.334 53.185 520.236 53.3015L520.658 57.2792ZM532.076 52.034C530.978 52.1526 530.184 53.139 530.302 54.2372C530.421 55.3354 531.407 56.1295 532.505 56.0109L532.076 52.034ZM544.349 54.7209C545.447 54.6004 546.239 53.6126 546.119 52.5146C545.998 51.4166 545.01 50.6243 543.912 50.7448L544.349 54.7209ZM555.753 49.4348C554.655 49.5572 553.864 50.5463 553.986 51.644C554.109 52.7418 555.098 53.5325 556.196 53.4102L555.753 49.4348ZM568.05 52.0796C569.147 51.9556 569.936 50.9653 569.812 49.8677C569.688 48.7701 568.698 47.9809 567.6 48.1049L568.05 52.0796ZM579.437 46.7589C578.339 46.8845 577.552 47.8759 577.677 48.9733C577.803 50.0707 578.794 50.8586 579.892 50.733L579.437 46.7589ZM591.719 49.3722C592.816 49.2453 593.603 48.2529 593.476 47.1557C593.349 46.0584 592.357 45.2718 591.259 45.3987L591.719 49.3722ZM603.065 44.0262C601.968 44.1543 601.182 45.1476 601.311 46.2447C601.439 47.3418 602.432 48.1273 603.529 47.9992L603.065 44.0262ZM615.397 46.6065C616.494 46.4773 617.279 45.4832 617.15 44.3862C617.02 43.2892 616.026 42.5047 614.929 42.634L615.397 46.6065ZM626.773 41.2329C625.676 41.3632 624.893 42.3579 625.023 43.4548C625.153 44.5516 626.148 45.3353 627.245 45.205L626.773 41.2329ZM639.067 43.7968C640.164 43.6658 640.947 42.6705 640.816 41.5737C640.685 40.4769 639.69 39.694 638.593 39.8251L639.067 43.7968ZM650.385 38.4124C649.288 38.5441 648.506 39.5399 648.638 40.6366C648.77 41.7333 649.765 42.5156 650.862 42.3839L650.385 38.4124ZM662.707 40.9583C663.804 40.8261 664.585 39.8299 664.453 38.7332C664.321 37.6366 663.325 36.8548 662.228 36.9871L662.707 40.9583ZM674.091 35.5543C672.995 35.6869 672.213 36.6834 672.346 37.78C672.479 38.8766 673.475 39.658 674.572 39.5254L674.091 35.5543ZM686.4 38.0935C687.496 37.9607 688.277 36.964 688.145 35.8675C688.012 34.7709 687.015 33.9897 685.919 34.1225L686.4 38.0935ZM697.707 32.6937C696.611 32.8267 695.829 33.8234 695.962 34.9199C696.095 36.0164 697.092 36.7976 698.188 36.6647L697.707 32.6937ZM709.989 35.2344C711.085 35.1015 711.866 34.1049 711.734 33.0084C711.601 31.9118 710.604 31.1306 709.508 31.2634L709.989 35.2344ZM721.4 29.8236C720.304 29.9563 719.522 30.9527 719.655 32.0493C719.787 33.1459 720.784 33.9273 721.88 33.7947L721.4 29.8236ZM733.723 32.3643C734.82 32.2321 735.602 31.2359 735.469 30.1393C735.337 29.0427 734.341 28.2609 733.244 28.3931L733.723 32.3643ZM745.038 26.9739C743.941 27.1056 743.159 28.1014 743.29 29.1981C743.422 30.2948 744.418 31.0771 745.514 30.9454L745.038 26.9739ZM757.257 29.5392C758.354 29.4082 759.137 28.4129 759.006 27.3162C758.875 26.2194 757.88 25.4364 756.783 25.5674L757.257 29.5392ZM768.714 24.1477C767.617 24.2777 766.833 25.2724 766.963 26.3693C767.093 27.4661 768.088 28.2499 769.185 28.1199L768.714 24.1477ZM781.05 26.7191C782.147 26.5901 782.931 25.5963 782.802 24.4993C782.674 23.4023 781.68 22.6175 780.583 22.7464L781.05 26.7191ZM792.386 21.3658C791.289 21.4935 790.503 22.4864 790.631 23.5836C790.758 24.6807 791.751 25.4667 792.848 25.339L792.386 21.3658ZM804.578 23.9819C805.676 23.8556 806.463 22.8638 806.337 21.7664C806.21 20.6691 805.218 19.8818 804.121 20.008L804.578 23.9819ZM816.052 18.645C814.955 18.7695 814.166 19.7602 814.291 20.8577C814.415 21.9552 815.406 22.744 816.503 22.6195L816.052 18.645ZM828.393 21.2811C829.491 21.1585 830.281 20.1692 830.159 19.0715C830.036 17.9737 829.047 17.1832 827.949 17.3058L828.393 21.2811ZM839.764 15.9978C838.666 16.1183 837.874 17.106 837.994 18.204C838.115 19.302 839.102 20.0944 840.2 19.974L839.764 15.9978ZM851.922 18.7006C853.02 18.5825 853.815 17.5965 853.697 16.4982C853.578 15.4 852.592 14.6054 851.494 14.7235L851.922 18.7006ZM863.439 13.4534C862.341 13.5688 861.544 14.5529 861.659 15.6515C861.775 16.75 862.759 17.5469 863.858 17.4315L863.439 13.4534ZM875.769 16.1955C876.868 16.083 877.668 15.101 877.555 14.0022C877.443 12.9034 876.461 12.1038 875.362 12.2163L875.769 16.1955ZM887.184 11.023C886.084 11.1323 885.282 12.1119 885.391 13.2111C885.501 14.3102 886.48 15.1126 887.579 15.0033L887.184 11.023ZM899.284 13.8576C900.383 13.7517 901.189 12.7746 901.083 11.6751C900.977 10.5756 900 9.77014 898.9 9.876L899.284 13.8576ZM910.901 8.74164C909.802 8.84361 908.993 9.81787 909.095 10.9177C909.197 12.0176 910.171 12.8265 911.271 12.7246L910.901 8.74164ZM923.193 11.642C924.293 11.5442 925.106 10.5731 925.008 9.47286C924.91 8.37262 923.939 7.55994 922.839 7.65769L923.193 11.642ZM934.651 6.63259C933.551 6.72577 932.734 7.69355 932.827 8.79418C932.92 9.89482 933.888 10.7115 934.989 10.6183L934.651 6.63259ZM946.704 9.65261C947.805 9.56437 948.626 8.60027 948.537 7.49923C948.449 6.39819 947.485 5.57715 946.384 5.6654L946.704 9.65261ZM958.46 4.72772C957.358 4.81042 956.532 5.77038 956.615 6.87184C956.698 7.97331 957.658 8.79919 958.759 8.71649L958.46 4.72772ZM970.663 7.85468C971.765 7.77796 972.596 6.82249 972.52 5.72059C972.443 4.61869 971.487 3.78762 970.386 3.86434L970.663 7.85468ZM982.157 3.07869C981.055 3.14898 980.218 4.09959 980.288 5.20192C980.359 6.30425 981.309 7.14087 982.411 7.07058L982.157 3.07869ZM994.292 6.35075C995.394 6.28755 996.237 5.34235 996.174 4.23959C996.111 3.13683 995.165 2.2941 994.063 2.35731L994.292 6.35075ZM1006.11 1.70895C1005.01 1.76431 1004.16 2.70349 1004.22 3.80667C1004.27 4.90985 1005.21 5.75928 1006.31 5.70392L1006.11 1.70895ZM1018.15 5.15488C1019.25 5.10797 1020.11 4.17533 1020.06 3.07175C1020.01 1.96818 1019.08 1.11158 1017.98 1.15848L1018.15 5.15488ZM1029.68 0.708836C1028.58 0.746611 1027.71 1.67214 1027.75 2.77606C1027.79 3.87999 1028.71 4.74427 1029.82 4.7065L1029.68 0.708836ZM1041.96 4.3476C1043.06 4.32025 1043.93 3.40293 1043.91 2.2987C1043.88 1.19447 1042.96 0.321478 1041.86 0.348822L1041.96 4.3476ZM1053.8 0.113002C1052.7 0.12907 1051.82 1.03743 1051.83 2.14188C1051.85 3.24634 1052.76 4.12865 1053.86 4.11258L1053.8 0.113002ZM1065.53 4.00615C1066.64 4.00227 1067.53 3.1037 1067.52 1.99914C1067.52 0.894574 1066.62 0.00229462 1065.52 0.00617521L1065.53 4.00615ZM1077.64 0.0388989C1076.54 0.0288115 1075.63 0.916027 1075.62 2.02055C1075.61 3.12507 1076.5 4.02864 1077.61 4.03873L1077.64 0.0388989ZM1089.55 4.22939C1090.65 4.25485 1091.57 3.3803 1091.59 2.27602C1091.62 1.17175 1090.74 0.255916 1089.64 0.230456L1089.55 4.22939ZM1101.34 0.587355C1100.24 0.545172 1099.31 1.40575 1099.27 2.50952C1099.22 3.61328 1100.08 4.54225 1101.19 4.58444L1101.34 0.587355ZM1113.25 5.14949C1114.35 5.2111 1115.29 4.367 1115.35 3.26415C1115.42 2.1613 1114.57 1.21732 1113.47 1.15571L1113.25 5.14949ZM1125.43 1.93933C1124.33 1.8561 1123.37 2.68151 1123.29 3.78294C1123.2 4.88437 1124.03 5.84473 1125.13 5.92796L1125.43 1.93933ZM1136.64 6.91985C1137.74 7.02681 1138.71 6.2223 1138.82 5.12292C1138.93 4.02354 1138.12 3.04561 1137.02 2.93865L1136.64 6.91985ZM1149.25 4.28541C1148.16 4.14987 1147.16 4.92865 1147.02 6.02487C1146.89 7.12109 1147.66 8.11964 1148.76 8.25518L1149.25 4.28541ZM1160.41 9.86251C1161.5 10.0297 1162.52 9.28019 1162.69 8.18835C1162.85 7.09651 1162.1 6.07584 1161.01 5.90862L1160.41 9.86251ZM1172.8 7.91382C1171.72 7.70978 1170.67 8.42438 1170.47 9.50994C1170.26 10.5955 1170.98 11.6409 1172.06 11.845L1172.8 7.91382ZM1183.76 14.2797C1184.83 14.5271 1185.91 13.855 1186.15 12.7785C1186.4 11.702 1185.73 10.6287 1184.65 10.3813L1183.76 14.2797ZM1196.05 13.2701C1194.98 12.9734 1193.88 13.5954 1193.58 14.6593C1193.29 15.7233 1193.91 16.8264 1194.97 17.1231L1196.05 13.2701ZM1206.49 20.6826C1207.53 21.04 1208.67 20.4825 1209.03 19.4373C1209.38 18.3922 1208.83 17.2552 1207.78 16.8978L1206.49 20.6826ZM1218.77 21.0543C1217.75 20.6283 1216.58 21.1092 1216.15 22.1283C1215.73 23.1475 1216.21 24.3189 1217.23 24.7449L1218.77 21.0543ZM1228.1 29.8229C1229.08 30.3337 1230.29 29.9537 1230.8 28.9743C1231.31 27.9949 1230.93 26.7869 1229.95 26.2762L1228.1 29.8229ZM1240.24 32.29C1239.32 31.6843 1238.08 31.9421 1237.47 32.8658C1236.87 33.7895 1237.12 35.0293 1238.05 35.635L1240.24 32.29ZM1247.48 42.6637C1248.32 43.3787 1249.58 43.2758 1250.3 42.4338C1251.01 41.5919 1250.91 40.3298 1250.07 39.6148L1247.48 42.6637ZM1258.73 48.0819C1258 47.254 1256.74 47.1756 1255.91 47.9068C1255.08 48.6381 1255 49.902 1255.73 50.7298L1258.73 48.0819ZM1262.67 59.97C1263.26 60.9042 1264.5 61.1837 1265.43 60.5943C1266.37 60.0048 1266.65 58.7697 1266.06 57.8356L1262.67 59.97ZM1271.67 68.6075C1271.24 67.5891 1270.07 67.1101 1269.05 67.5376C1268.03 67.9652 1267.55 69.1374 1267.98 70.1559L1271.67 68.6075ZM1271.59 81.1706C1271.85 82.2438 1272.93 82.9022 1274.01 82.6411C1275.08 82.38 1275.74 81.2983 1275.48 80.225L1271.59 81.1706ZM1277.49 92.1531C1277.38 91.0539 1276.4 90.2512 1275.3 90.3603C1274.2 90.4693 1273.4 91.4487 1273.51 92.5479L1277.49 92.1531ZM1273.99 104.844C1273.98 105.948 1274.86 106.852 1275.97 106.862C1277.07 106.872 1277.98 105.985 1277.99 104.881L1273.99 104.844ZM1277.32 117.2C1277.43 116.101 1276.63 115.12 1275.53 115.008C1274.43 114.897 1273.45 115.697 1273.34 116.796L1277.32 117.2ZM1271.64 128.071C1271.42 129.153 1272.12 130.209 1273.2 130.428C1274.28 130.648 1275.34 129.948 1275.56 128.865L1271.64 128.071ZM1272.43 140.826C1272.77 139.775 1272.19 138.647 1271.14 138.307C1270.09 137.967 1268.96 138.543 1268.62 139.594L1272.43 140.826ZM1264.39 150.481C1263.92 151.484 1264.36 152.672 1265.37 153.133C1266.37 153.594 1267.56 153.154 1268.02 152.15L1264.39 150.481ZM1262.33 162.822C1262.91 161.88 1262.61 160.648 1261.67 160.072C1260.73 159.495 1259.49 159.791 1258.92 160.733L1262.33 162.822ZM1252.21 170.357C1251.53 171.225 1251.68 172.482 1252.55 173.165C1253.42 173.848 1254.68 173.697 1255.36 172.829L1252.21 170.357ZM1247.28 182.004C1248.06 181.216 1248.04 179.95 1247.25 179.176C1246.47 178.402 1245.2 178.414 1244.43 179.203L1247.28 182.004ZM1235.9 187.064C1235.06 187.774 1234.95 189.035 1235.66 189.882C1236.36 190.729 1237.63 190.84 1238.47 190.131L1235.9 187.064ZM1228.67 197.607C1229.58 196.976 1229.8 195.73 1229.17 194.823C1228.54 193.917 1227.29 193.693 1226.39 194.324L1228.67 197.607ZM1216.58 200.603C1215.63 201.163 1215.31 202.389 1215.87 203.341C1216.43 204.293 1217.66 204.61 1218.61 204.049L1216.58 200.603ZM1208.02 209.814C1209 209.317 1209.4 208.115 1208.91 207.128C1208.41 206.141 1207.21 205.744 1206.22 206.24L1208.02 209.814ZM1195.15 211.389C1194.14 211.826 1193.67 213.003 1194.1 214.017C1194.54 215.032 1195.72 215.5 1196.73 215.064L1195.15 211.389ZM1185.88 219.416C1186.92 219.03 1187.44 217.877 1187.05 216.843C1186.67 215.808 1185.52 215.283 1184.48 215.67L1185.88 219.416ZM1173.23 219.589C1172.18 219.93 1171.6 221.058 1171.94 222.109C1172.28 223.16 1173.41 223.735 1174.46 223.394L1173.23 219.589ZM1162.58 226.983C1163.65 226.684 1164.27 225.58 1163.97 224.517C1163.67 223.453 1162.57 222.834 1161.5 223.133L1162.58 226.983ZM1150.34 226.07C1149.27 226.334 1148.61 227.417 1148.88 228.49C1149.14 229.562 1150.22 230.218 1151.3 229.954L1150.34 226.07ZM1139.58 232.645C1140.66 232.414 1141.35 231.351 1141.12 230.271C1140.89 229.191 1139.83 228.503 1138.75 228.734L1139.58 232.645ZM1126.73 231.134C1125.65 231.335 1124.93 232.379 1125.13 233.465C1125.33 234.551 1126.38 235.268 1127.46 235.066L1126.73 231.134ZM1115.82 237.084C1116.91 236.908 1117.65 235.881 1117.48 234.79C1117.3 233.7 1116.28 232.959 1115.19 233.135L1115.82 237.084ZM1103.52 234.887C1102.43 235.04 1101.66 236.051 1101.82 237.145C1101.97 238.239 1102.98 239.002 1104.07 238.849L1103.52 234.887ZM1092.01 240.408C1093.11 240.277 1093.89 239.282 1093.76 238.185C1093.63 237.089 1092.64 236.306 1091.54 236.437L1092.01 240.408ZM1079.45 237.768C1078.35 237.879 1077.55 238.86 1077.66 239.959C1077.77 241.058 1078.75 241.859 1079.85 241.748L1079.45 237.768ZM1068.18 242.834C1069.28 242.74 1070.09 241.772 1070 240.672C1069.9 239.571 1068.94 238.755 1067.84 238.849L1068.18 242.834ZM1055.98 239.77C1054.87 239.847 1054.04 240.804 1054.12 241.905C1054.2 243.007 1055.15 243.838 1056.26 243.76L1055.98 239.77ZM1044.1 244.53C1045.21 244.468 1046.05 243.523 1045.99 242.42C1045.92 241.317 1044.98 240.474 1043.88 240.536L1044.1 244.53ZM1031.81 241.141C1030.71 241.19 1029.86 242.124 1029.9 243.227C1029.95 244.331 1030.89 245.186 1031.99 245.137L1031.81 241.141ZM1020.22 245.587C1021.33 245.551 1022.19 244.626 1022.16 243.522C1022.12 242.418 1021.2 241.553 1020.09 241.589L1020.22 245.587ZM1008.19 241.913C1007.08 241.937 1006.21 242.852 1006.23 243.956C1006.25 245.06 1007.17 245.936 1008.27 245.912L1008.19 241.913ZM996.147 246.117C997.251 246.103 998.136 245.197 998.123 244.093C998.11 242.988 997.203 242.104 996.099 242.117L996.147 246.117ZM983.954 242.205C982.849 242.208 981.956 243.106 981.959 244.21C981.962 245.315 982.86 246.208 983.965 246.205L983.954 242.205ZM972.186 246.186C973.291 246.193 974.191 245.302 974.197 244.198C974.204 243.093 973.314 242.193 972.209 242.187L972.186 246.186ZM960.321 242.071C959.216 242.056 958.309 242.939 958.294 244.044C958.279 245.148 959.162 246.056 960.266 246.071L960.321 242.071ZM948.211 245.861C949.315 245.884 950.229 245.008 950.252 243.904C950.276 242.799 949.399 241.885 948.295 241.862L948.211 245.861ZM936.137 241.562C935.033 241.531 934.113 242.401 934.082 243.505C934.05 244.609 934.92 245.53 936.025 245.561L936.137 241.562ZM924.141 245.188C925.245 245.226 926.171 244.362 926.209 243.258C926.248 242.154 925.384 241.228 924.28 241.19L924.141 245.188ZM912.433 240.745C911.329 240.7 910.398 241.558 910.353 242.662C910.308 243.766 911.167 244.697 912.27 244.741L912.433 240.745ZM900.295 244.221C901.398 244.272 902.334 243.419 902.385 242.315C902.436 241.212 901.583 240.276 900.48 240.225L900.295 244.221ZM888.427 239.635C887.323 239.578 886.383 240.426 886.326 241.529C886.269 242.632 887.117 243.572 888.22 243.629L888.427 239.635ZM876.128 242.974C877.23 243.036 878.175 242.193 878.238 241.09C878.3 239.987 877.457 239.043 876.354 238.98L876.128 242.974ZM864.546 238.283C863.443 238.215 862.494 239.054 862.427 240.157C862.359 241.259 863.198 242.208 864.301 242.275L864.546 238.283ZM852.394 241.518C853.497 241.591 854.449 240.756 854.521 239.654C854.594 238.552 853.759 237.6 852.657 237.527L852.394 241.518ZM840.692 236.715C839.59 236.638 838.634 237.469 838.557 238.571C838.48 239.673 839.311 240.629 840.413 240.706L840.692 236.715ZM828.362 239.84C829.463 239.921 830.422 239.094 830.503 237.992C830.585 236.891 829.757 235.932 828.656 235.851L828.362 239.84ZM816.684 234.945C815.583 234.86 814.621 235.684 814.536 236.785C814.451 237.886 815.274 238.848 816.375 238.933L816.684 234.945ZM804.516 237.995C805.617 238.084 806.582 237.263 806.671 236.162C806.76 235.061 805.939 234.097 804.838 234.008L804.516 237.995ZM792.937 233.027C791.836 232.934 790.869 233.752 790.777 234.852C790.684 235.953 791.502 236.92 792.602 237.013L792.937 233.027ZM780.638 235.99C781.738 236.086 782.708 235.271 782.803 234.171C782.899 233.07 782.085 232.101 780.984 232.005L780.638 235.99ZM768.984 230.945C767.884 230.846 766.912 231.658 766.813 232.758C766.715 233.858 767.526 234.83 768.627 234.929L768.984 230.945ZM756.684 233.841C757.784 233.943 758.758 233.133 758.859 232.033C758.961 230.934 758.151 229.96 757.052 229.858L756.684 233.841ZM745.183 228.748C744.083 228.644 743.107 229.451 743.003 230.55C742.899 231.65 743.706 232.626 744.806 232.73L745.183 228.748ZM732.894 231.589C733.994 231.695 734.972 230.89 735.078 229.791C735.185 228.692 734.38 227.714 733.28 227.607L732.894 231.589ZM721.347 226.438C720.248 226.33 719.269 227.132 719.16 228.232C719.051 229.331 719.854 230.31 720.953 230.419L721.347 226.438ZM708.987 229.223C710.086 229.334 711.066 228.533 711.177 227.434C711.288 226.335 710.487 225.354 709.388 225.243L708.987 229.223ZM697.467 224.031C696.368 223.918 695.386 224.718 695.273 225.816C695.16 226.915 695.96 227.897 697.058 228.01L697.467 224.031ZM685.164 226.781C686.263 226.895 687.246 226.097 687.36 224.999C687.475 223.9 686.677 222.917 685.578 222.802L685.164 226.781ZM673.675 221.555C672.577 221.439 671.592 222.235 671.476 223.334C671.36 224.432 672.157 225.417 673.256 225.533L673.675 221.555ZM661.337 224.268C662.435 224.385 663.42 223.59 663.538 222.491C663.655 221.393 662.859 220.408 661.761 220.29L661.337 224.268ZM649.84 219.011C648.742 218.893 647.755 219.687 647.637 220.785C647.519 221.884 648.313 222.87 649.411 222.988L649.84 219.011ZM637.489 221.697C638.587 221.816 639.574 221.023 639.694 219.925C639.813 218.827 639.02 217.84 637.922 217.72L637.489 221.697ZM626.01 216.42C624.912 216.3 623.925 217.092 623.804 218.19C623.684 219.288 624.477 220.276 625.575 220.396L626.01 216.42ZM613.665 219.087C614.762 219.208 615.751 218.416 615.872 217.319C615.993 216.221 615.201 215.233 614.103 215.112L613.665 219.087ZM602.203 213.797C601.105 213.676 600.116 214.467 599.995 215.565C599.873 216.663 600.665 217.651 601.763 217.773L602.203 213.797ZM589.873 216.454C590.971 216.576 591.959 215.785 592.081 214.687C592.203 213.59 591.412 212.601 590.314 212.479L589.873 216.454ZM578.4 211.154C577.302 211.032 576.313 211.823 576.191 212.921C576.069 214.019 576.86 215.008 577.957 215.13L578.4 211.154ZM566.017 213.801C567.114 213.923 568.103 213.132 568.226 212.035C568.348 210.937 567.557 209.948 566.459 209.826L566.017 213.801ZM554.541 208.5C553.443 208.378 552.454 209.168 552.332 210.266C552.21 211.364 553.001 212.353 554.099 212.475L554.541 208.5ZM542.209 211.154C543.307 211.276 544.295 210.485 544.417 209.387C544.539 208.289 543.748 207.3 542.65 207.179L542.209 211.154ZM530.789 205.865C529.691 205.743 528.703 206.535 528.581 207.633C528.46 208.731 529.252 209.719 530.349 209.841L530.789 205.865ZM518.436 208.527C519.534 208.647 520.522 207.855 520.642 206.757C520.763 205.659 519.971 204.671 518.873 204.551L518.436 208.527ZM506.898 203.238C505.8 203.118 504.813 203.91 504.693 205.008C504.573 206.107 505.365 207.094 506.463 207.214L506.898 203.238ZM494.535 205.916C495.633 206.035 496.62 205.241 496.739 204.143C496.858 203.045 496.064 202.058 494.966 201.939L494.535 205.916ZM483.081 200.657C481.983 200.539 480.997 201.334 480.879 202.432C480.761 203.53 481.556 204.516 482.655 204.634L483.081 200.657ZM470.826 203.372C471.924 203.488 472.909 202.692 473.026 201.594C473.142 200.495 472.346 199.511 471.248 199.394L470.826 203.372ZM459.306 198.135C458.207 198.02 457.224 198.818 457.109 199.916C456.994 201.015 457.791 201.999 458.89 202.114L459.306 198.135ZM446.886 200.867C447.985 200.98 448.967 200.181 449.08 199.082C449.194 197.984 448.395 197.001 447.296 196.888L446.886 200.867ZM435.352 195.668C434.253 195.556 433.272 196.357 433.161 197.456C433.05 198.555 433.85 199.536 434.949 199.647L435.352 195.668ZM423.084 198.458C424.183 198.567 425.163 197.764 425.272 196.665C425.381 195.566 424.578 194.586 423.479 194.477L423.084 198.458ZM411.681 193.319C410.581 193.213 409.604 194.018 409.497 195.117C409.39 196.216 410.195 197.194 411.295 197.301L411.681 193.319ZM399.279 196.15C400.379 196.254 401.354 195.446 401.458 194.347C401.562 193.247 400.755 192.271 399.655 192.167L399.279 196.15ZM387.62 191.046C386.52 190.945 385.546 191.755 385.445 192.855C385.345 193.955 386.154 194.928 387.254 195.029L387.62 191.046ZM375.325 193.952C376.425 194.049 377.396 193.237 377.494 192.136C377.592 191.036 376.779 190.065 375.679 189.967L375.325 193.952ZM363.836 188.934C362.736 188.84 361.767 189.656 361.673 190.757C361.579 191.857 362.395 192.826 363.495 192.92L363.836 188.934ZM351.708 191.931C352.809 192.022 353.774 191.203 353.865 190.102C353.955 189.001 353.136 188.035 352.035 187.945L351.708 191.931ZM339.88 186.971C338.779 186.885 337.816 187.708 337.73 188.809C337.644 189.91 338.467 190.873 339.568 190.959L339.88 186.971ZM327.554 190.045C328.655 190.126 329.614 189.299 329.696 188.198C329.777 187.096 328.95 186.137 327.849 186.056L327.554 190.045ZM315.946 185.203C314.844 185.127 313.889 185.958 313.813 187.06C313.736 188.162 314.568 189.117 315.67 189.194L315.946 185.203ZM303.921 188.408C305.023 188.479 305.974 187.643 306.045 186.54C306.116 185.438 305.28 184.487 304.178 184.416L303.921 188.408ZM292.1 183.671C290.998 183.606 290.051 184.447 289.986 185.55C289.921 186.653 290.762 187.599 291.865 187.664L292.1 183.671ZM279.758 186.987C280.861 187.045 281.803 186.198 281.861 185.095C281.919 183.992 281.072 183.051 279.969 182.993L279.758 186.987ZM268.007 182.398C266.904 182.347 265.968 183.2 265.917 184.304C265.866 185.407 266.719 186.343 267.822 186.394L268.007 182.398ZM256.063 185.889C257.167 185.933 258.097 185.073 258.14 183.969C258.184 182.866 257.324 181.936 256.221 181.892L256.063 185.889ZM244.222 181.465C243.118 181.43 242.195 182.297 242.16 183.401C242.125 184.505 242.992 185.428 244.096 185.463L244.222 181.465ZM231.917 185.13C233.021 185.155 233.937 184.28 233.962 183.176C233.988 182.072 233.113 181.156 232.009 181.131L231.917 185.13ZM220.019 180.911C218.915 180.896 218.007 181.779 217.992 182.883C217.977 183.988 218.86 184.895 219.965 184.91L220.019 180.911ZM208.246 184.809C209.351 184.813 210.25 183.921 210.253 182.816C210.257 181.712 209.365 180.813 208.26 180.809L208.246 184.809ZM196.186 180.836C195.081 180.845 194.193 181.748 194.202 182.852C194.211 183.957 195.114 184.845 196.218 184.836L196.186 180.836ZM184.045 185.012C185.149 184.989 186.026 184.075 186.002 182.97C185.979 181.866 185.065 180.99 183.961 181.013L184.045 185.012ZM172.037 181.347C170.933 181.386 170.07 182.313 170.109 183.417C170.148 184.521 171.074 185.384 172.178 185.345L172.037 181.347ZM160.627 185.84C161.731 185.784 162.579 184.845 162.523 183.741C162.467 182.638 161.528 181.789 160.424 181.846L160.627 185.84ZM148.021 182.59C146.919 182.667 146.088 183.622 146.165 184.724C146.242 185.826 147.197 186.657 148.299 186.58L148.021 182.59ZM136.329 187.536C137.43 187.436 138.241 186.464 138.141 185.364C138.041 184.264 137.069 183.453 135.969 183.552L136.329 187.536ZM124.335 184.738C123.237 184.863 122.449 185.854 122.574 186.952C122.699 188.049 123.69 188.837 124.787 188.713L124.335 184.738ZM112.747 190.25C113.841 190.094 114.601 189.082 114.445 187.988C114.29 186.895 113.277 186.134 112.183 186.29L112.747 190.25ZM100.153 188.197C99.0649 188.389 98.338 189.426 98.5292 190.513C98.7205 191.601 99.7574 192.328 100.845 192.137L100.153 188.197ZM89.5423 194.334C90.6223 194.102 91.3104 193.039 91.0791 191.959C90.8478 190.879 89.7847 190.191 88.7046 190.422L89.5423 194.334ZM76.6456 193.294C75.5777 193.576 74.9405 194.671 75.2225 195.739C75.5045 196.807 76.5989 197.444 77.6668 197.162L76.6456 193.294ZM66.2957 200.497C67.3461 200.155 67.9208 199.027 67.5793 197.976C67.2377 196.926 66.1093 196.351 65.0589 196.693L66.2957 200.497ZM53.8915 200.734C52.8668 201.147 52.3704 202.312 52.7829 203.337C53.1953 204.361 54.3603 204.858 55.385 204.445L53.8915 200.734ZM44.3896 209.432C45.373 208.929 45.7627 207.724 45.2598 206.741C44.757 205.757 43.5521 205.368 42.5686 205.87L44.3896 209.432ZM32.3623 211.777C31.4389 212.383 31.1817 213.623 31.7878 214.547C32.3939 215.47 33.6338 215.727 34.5572 215.121L32.3623 211.777ZM25.0319 222.373C25.8576 221.64 25.9321 220.375 25.1985 219.55C24.4648 218.724 23.2006 218.649 22.3749 219.383L25.0319 222.373ZM14.0553 228.12C13.367 228.983 13.5095 230.242 14.3734 230.93C15.2373 231.618 16.4956 231.476 17.1839 230.612L14.0553 228.12ZM10.8886 240.355C11.3905 239.371 10.9997 238.166 10.0158 237.664C9.03184 237.163 7.8273 237.553 7.32538 238.537L10.8886 240.355ZM2.9089 249.924C2.6146 250.988 3.23909 252.09 4.30373 252.384C5.36837 252.678 6.47001 252.054 6.76431 250.989L2.9089 249.924ZM4.75292 262.372C4.84667 261.271 4.03046 260.303 2.92988 260.209C1.82929 260.115 0.8611 260.931 0.767356 262.032L4.75292 262.372ZM0.555472 274.813C0.576011 275.917 1.48794 276.796 2.59232 276.775C3.69669 276.755 4.57532 275.843 4.55478 274.738L0.555472 274.813ZM5.01125 286.799C4.94743 285.697 4.00176 284.854 2.89903 284.918C1.79631 284.982 0.954111 285.928 1.01793 287.03L5.01125 286.799ZM1.9363 298.713C2.04643 299.812 3.02667 300.614 4.12574 300.503C5.2248 300.393 6.0265 299.413 5.91637 298.314L1.9363 298.713ZM7.41452 310.321C7.25013 309.229 6.2314 308.477 5.13913 308.641C4.04687 308.806 3.29468 309.824 3.45907 310.917L7.41452 310.321ZM5.56537 322.755C5.78896 323.836 6.84711 324.532 7.92881 324.308C9.01051 324.085 9.70615 323.027 9.48256 321.945L5.56537 322.755ZM12.2014 333.367C11.9124 332.301 10.8139 331.671 9.7478 331.96C8.68171 332.249 8.05173 333.347 8.34072 334.414L12.2014 333.367ZM11.935 346.084C12.2972 347.128 13.4367 347.68 14.4802 347.318C15.5237 346.955 16.076 345.816 15.7138 344.772L11.935 346.084ZM19.9299 355.608C19.4903 354.595 18.3125 354.13 17.2991 354.569C16.2858 355.009 15.8207 356.187 16.2603 357.2L19.9299 355.608ZM21.6061 368.236C22.1299 369.208 23.3429 369.572 24.3153 369.048C25.2878 368.524 25.6515 367.311 25.1277 366.339L21.6061 368.236ZM31.0994 376.339C30.4908 375.417 29.2501 375.163 28.3284 375.772C27.4066 376.381 27.1527 377.621 27.7613 378.543L31.0994 376.339ZM34.9715 388.408C35.6656 389.267 36.9248 389.401 37.7841 388.707C38.6434 388.013 38.7773 386.754 38.0833 385.895L34.9715 388.408ZM45.8671 394.629C45.093 393.841 43.8267 393.83 43.0388 394.604C42.2509 395.378 42.2397 396.645 43.0138 397.432L45.8671 394.629ZM51.9523 405.684C52.7993 406.393 54.0606 406.281 54.7697 405.434C55.4787 404.587 55.3669 403.326 54.5199 402.616L51.9523 405.684ZM63.8644 409.718C62.955 409.091 61.7096 409.32 61.0827 410.23C60.4558 411.139 60.6849 412.385 61.5943 413.011L63.8644 409.718ZM71.8944 419.453C72.8555 419.997 74.076 419.66 74.6203 418.698C75.1647 417.737 74.8269 416.517 73.8658 415.973L71.8944 419.453ZM84.3224 421.342C83.3206 420.877 82.1313 421.312 81.6662 422.314C81.201 423.316 81.636 424.505 82.6379 424.97L84.3224 421.342ZM93.8429 429.672C94.8762 430.063 96.0303 429.541 96.4207 428.508C96.8111 427.475 96.29 426.321 95.2567 425.93L93.8429 429.672ZM106.399 429.723C105.343 429.401 104.225 429.996 103.902 431.052C103.58 432.109 104.175 433.227 105.231 433.549L106.399 429.723ZM116.936 436.744C118.009 437.004 119.091 436.345 119.351 435.271C119.611 434.198 118.952 433.117 117.878 432.856L116.936 436.744ZM129.428 435.339C128.342 435.134 127.296 435.848 127.091 436.933C126.886 438.019 127.6 439.065 128.685 439.27L129.428 435.339ZM140.597 441.235C141.691 441.39 142.703 440.63 142.859 439.536C143.014 438.443 142.254 437.43 141.16 437.275L140.597 441.235ZM152.98 438.708C151.881 438.597 150.9 439.397 150.788 440.496C150.677 441.595 151.478 442.576 152.577 442.687L152.98 438.708ZM164.513 443.679C165.615 443.751 166.567 442.916 166.64 441.814C166.712 440.712 165.877 439.759 164.775 439.687L164.513 443.679ZM176.811 440.279C175.707 440.242 174.782 441.107 174.745 442.211C174.709 443.315 175.574 444.24 176.678 444.276L176.811 440.279ZM188.538 444.504C189.642 444.51 190.543 443.62 190.549 442.515C190.555 441.411 189.665 440.51 188.56 440.504L188.538 444.504ZM200.599 440.415C199.494 440.437 198.617 441.35 198.639 442.454C198.661 443.558 199.574 444.436 200.679 444.414L200.599 440.415ZM212.611 444.039C213.714 443.992 214.571 443.059 214.524 441.956C214.477 440.852 213.544 439.995 212.441 440.042L212.611 444.039ZM224.331 439.414C223.229 439.483 222.391 440.433 222.46 441.535C222.53 442.638 223.48 443.475 224.582 443.406L224.331 439.414ZM236.705 442.529C237.806 442.439 238.626 441.474 238.536 440.373C238.446 439.272 237.481 438.452 236.38 438.542L236.705 442.529ZM248.112 437.487C247.013 437.595 246.209 438.573 246.317 439.673C246.425 440.772 247.403 441.576 248.502 441.468L248.112 437.487ZM260.489 440.201C261.587 440.076 262.376 439.086 262.251 437.988C262.127 436.891 261.137 436.102 260.039 436.226L260.489 440.201ZM271.937 434.795C270.842 434.934 270.066 435.935 270.206 437.031C270.345 438.127 271.346 438.902 272.442 438.763L271.937 434.795ZM284.237 437.189C285.331 437.037 286.095 436.026 285.942 434.932C285.789 433.838 284.779 433.075 283.685 433.228L284.237 437.189ZM295.59 431.497C294.498 431.662 293.746 432.681 293.911 433.773C294.076 434.865 295.095 435.617 296.187 435.452L295.59 431.497ZM308.024 433.601C309.114 433.425 309.855 432.398 309.679 431.308C309.503 430.218 308.476 429.476 307.386 429.652L308.024 433.601ZM319.113 427.702C318.024 427.889 317.292 428.922 317.478 430.011C317.664 431.1 318.698 431.831 319.787 431.645L319.113 427.702ZM331.675 429.56C332.762 429.365 333.485 428.325 333.29 427.238C333.094 426.151 332.055 425.428 330.968 425.623L331.675 429.56ZM342.706 423.467C341.621 423.67 340.906 424.715 341.109 425.801C341.313 426.887 342.358 427.602 343.444 427.398L342.706 423.467ZM355.161 425.158C356.246 424.946 356.953 423.896 356.742 422.812C356.531 421.728 355.481 421.02 354.397 421.231L355.161 425.158ZM366.192 418.895C365.109 419.113 364.408 420.168 364.626 421.25C364.844 422.333 365.898 423.034 366.981 422.816L366.192 418.895ZM378.718 420.419C379.799 420.195 380.494 419.136 380.27 418.054C380.046 416.973 378.988 416.278 377.906 416.502L378.718 420.419ZM389.558 414.056C388.478 414.286 387.788 415.348 388.017 416.428C388.247 417.509 389.309 418.198 390.389 417.969L389.558 414.056ZM402.143 415.442C403.223 415.208 403.908 414.143 403.673 413.063C403.439 411.984 402.373 411.299 401.294 411.534L402.143 415.442ZM413.004 408.964C411.925 409.203 411.245 410.271 411.484 411.349C411.723 412.427 412.791 413.108 413.869 412.869L413.004 408.964ZM425.502 410.269C426.58 410.026 427.256 408.956 427.014 407.878C426.771 406.801 425.7 406.124 424.623 406.367L425.502 410.269ZM436.309 403.714C435.232 403.96 434.559 405.033 434.805 406.109C435.051 407.186 436.124 407.86 437.201 407.613L436.309 403.714ZM448.924 404.916C450 404.667 450.67 403.592 450.421 402.516C450.172 401.44 449.098 400.77 448.022 401.019L448.924 404.916ZM459.619 398.319C458.543 398.571 457.875 399.647 458.127 400.722C458.379 401.798 459.455 402.466 460.53 402.214L459.619 398.319ZM472.187 399.475C473.262 399.221 473.928 398.144 473.674 397.069C473.42 395.994 472.343 395.328 471.268 395.582L472.187 399.475ZM482.965 392.811C481.89 393.067 481.226 394.145 481.482 395.22C481.737 396.294 482.815 396.958 483.89 396.703L482.965 392.811ZM495.5 393.936C496.574 393.68 497.237 392.601 496.981 391.526C496.724 390.452 495.645 389.789 494.571 390.046L495.5 393.936ZM506.199 387.263C505.125 387.52 504.463 388.6 504.72 389.674C504.978 390.748 506.057 391.41 507.131 391.152L506.199 387.263ZM518.796 388.352C519.87 388.094 520.531 387.015 520.273 385.941C520.015 384.866 518.935 384.205 517.861 384.463L518.796 388.352ZM529.5 381.665C528.426 381.924 527.765 383.004 528.023 384.078C528.281 385.151 529.361 385.813 530.435 385.555L529.5 381.665ZM542.059 382.761C543.133 382.503 543.795 381.423 543.537 380.349C543.279 379.275 542.199 378.613 541.125 378.871L542.059 382.761ZM552.771 376.076C551.697 376.334 551.035 377.413 551.293 378.487C551.55 379.562 552.63 380.224 553.704 379.966L552.771 376.076ZM565.356 377.178C566.431 376.922 567.094 375.843 566.837 374.768C566.58 373.694 565.502 373.031 564.427 373.288L565.356 377.178ZM576.066 370.515C574.992 370.77 574.327 371.849 574.583 372.923C574.838 373.998 575.916 374.662 576.991 374.407L576.066 370.515ZM588.635 371.65C589.71 371.396 590.375 370.319 590.122 369.244C589.868 368.169 588.791 367.503 587.716 367.757L588.635 371.65ZM599.372 365.017C598.296 365.269 597.629 366.345 597.88 367.421C598.132 368.496 599.208 369.164 600.283 368.912L599.372 365.017ZM611.946 366.196C613.022 365.947 613.692 364.872 613.443 363.796C613.193 362.72 612.119 362.05 611.043 362.299L611.946 366.196ZM622.714 359.61C621.637 359.856 620.964 360.929 621.211 362.006C621.458 363.082 622.53 363.755 623.607 363.509L622.714 359.61ZM635.262 360.856C636.339 360.612 637.015 359.541 636.772 358.464C636.528 357.386 635.457 356.711 634.38 356.954L635.262 360.856ZM646.071 354.33C644.993 354.57 644.314 355.639 644.554 356.717C644.794 357.795 645.863 358.474 646.941 358.234L646.071 354.33ZM658.638 355.65C659.717 355.414 660.4 354.348 660.164 353.269C659.928 352.19 658.861 351.507 657.782 351.743L658.638 355.65ZM669.476 349.206C668.396 349.438 667.709 350.501 667.941 351.581C668.173 352.661 669.237 353.348 670.317 353.116L669.476 349.206ZM681.994 350.633C683.075 350.405 683.767 349.345 683.54 348.264C683.312 347.183 682.252 346.491 681.171 346.718L681.994 350.633ZM692.939 344.271C691.857 344.493 691.16 345.551 691.382 346.633C691.604 347.715 692.662 348.412 693.744 348.189L692.939 344.271ZM705.462 345.812C706.545 345.596 707.247 344.542 707.031 343.459C706.814 342.376 705.76 341.673 704.677 341.89L705.462 345.812ZM716.382 339.581C715.298 339.792 714.59 340.841 714.8 341.926C715.011 343.01 716.061 343.718 717.145 343.507L716.382 339.581ZM728.94 341.251C730.025 341.047 730.74 340.001 730.536 338.915C730.331 337.83 729.286 337.115 728.2 337.32L728.94 341.251ZM739.997 335.139C738.91 335.336 738.189 336.377 738.387 337.464C738.584 338.551 739.625 339.272 740.711 339.075L739.997 335.139ZM752.434 336.989C753.522 336.799 754.251 335.764 754.061 334.675C753.871 333.587 752.835 332.859 751.747 333.049L752.434 336.989ZM763.586 331.03C762.496 331.212 761.76 332.242 761.942 333.332C762.123 334.421 763.154 335.157 764.243 334.976L763.586 331.03ZM776.077 333.053C777.168 332.88 777.913 331.856 777.74 330.765C777.567 329.674 776.543 328.929 775.452 329.102L776.077 333.053ZM787.256 327.285C786.163 327.448 785.41 328.466 785.574 329.559C785.737 330.651 786.755 331.404 787.847 331.241L787.256 327.285ZM799.667 329.529C800.761 329.376 801.524 328.365 801.37 327.271C801.217 326.177 800.206 325.414 799.112 325.568L799.667 329.529ZM811.053 323.955C809.958 324.097 809.185 325.101 809.327 326.196C809.47 327.291 810.473 328.064 811.568 327.922L811.053 323.955ZM823.388 326.449C824.484 326.318 825.268 325.323 825.137 324.226C825.006 323.13 824.011 322.346 822.914 322.477L823.388 326.449ZM834.794 321.129C833.695 321.247 832.901 322.234 833.019 323.332C833.137 324.43 834.124 325.224 835.222 325.106L834.794 321.129ZM847.185 323.892C848.285 323.787 849.091 322.811 848.987 321.711C848.882 320.612 847.906 319.805 846.806 319.91L847.185 323.892ZM858.719 318.853C857.618 318.943 856.799 319.909 856.889 321.01C856.98 322.111 857.945 322.93 859.046 322.84L858.719 318.853ZM870.904 321.949C872.006 321.874 872.838 320.92 872.763 319.818C872.688 318.716 871.734 317.883 870.632 317.958L870.904 321.949ZM882.701 317.229C881.598 317.287 880.751 318.228 880.81 319.331C880.868 320.434 881.809 321.281 882.912 321.223L882.701 317.229ZM894.794 320.691C895.898 320.651 896.76 319.723 896.72 318.62C896.68 317.516 895.752 316.654 894.648 316.694L894.794 320.691ZM906.608 316.359C905.503 316.38 904.625 317.293 904.647 318.397C904.668 319.502 905.58 320.38 906.685 320.359L906.608 316.359ZM918.703 320.24C919.807 320.239 920.702 319.343 920.702 318.239C920.702 317.134 919.806 316.239 918.701 316.24L918.703 320.24ZM930.645 316.354C929.541 316.332 928.628 317.21 928.606 318.314C928.584 319.418 929.462 320.331 930.566 320.353L930.645 316.354ZM15.6166 60.0039C17.5301 60.3754 19.4509 60.7399 21.3789 61.0974L22.1083 57.1645C20.1912 56.809 18.2814 56.4466 16.379 56.0772L15.6166 60.0039ZM33.0326 63.1597C36.9455 63.8198 40.8863 64.4525 44.8544 65.0587L45.4584 61.1046C41.5103 60.5015 37.5899 59.8719 33.6979 59.2155L33.0326 63.1597ZM56.8395 66.798C60.7127 67.3311 64.6105 67.84 68.532 68.3254L69.0233 64.3557C65.1194 63.8725 61.2397 63.3659 57.3849 62.8353L56.8395 66.798ZM80.3379 69.7081C84.2963 70.1458 88.2778 70.5607 92.2815 70.9531L92.6717 66.9722C88.6841 66.5813 84.7192 66.1682 80.7775 65.7323L80.3379 69.7081ZM104.258 72.055C108.16 72.391 112.083 72.7068 116.025 73.0026L116.324 69.0138C112.397 68.719 108.488 68.4045 104.601 68.0697L104.258 72.055ZM127.909 73.8311C131.889 74.0877 135.888 74.3249 139.905 74.5432L140.122 70.5491C136.118 70.3315 132.133 70.0951 128.166 69.8394L127.909 73.8311ZM151.86 75.1351C155.783 75.3108 159.723 75.4691 163.679 75.6106L163.822 71.6132C159.878 71.4721 155.95 71.3142 152.039 71.1391L151.86 75.1351ZM175.593 75.985C179.58 76.0932 183.583 76.185 187.599 76.2608L187.675 72.2616C183.669 72.186 179.678 72.0944 175.702 71.9865L175.593 75.985ZM199.553 76.4392C203.486 76.4825 207.433 76.5112 211.392 76.5255L211.407 72.5256C207.457 72.5113 203.52 72.4827 199.597 72.4394L199.553 76.4392ZM223.309 76.526C227.294 76.5121 231.291 76.4842 235.3 76.4429L235.258 72.4431C231.258 72.4843 227.271 72.5121 223.295 72.526L223.309 76.526ZM247.265 76.2801C251.202 76.2139 255.149 76.1351 259.107 76.0442L259.015 72.0453C255.066 72.136 251.126 72.2146 247.197 72.2807L247.265 76.2801ZM271.011 75.7353C274.989 75.6204 278.977 75.4937 282.973 75.3556L282.835 71.358C278.846 71.4958 274.866 71.6223 270.896 71.7369L271.011 75.7353ZM294.955 74.9088C298.892 74.7513 302.838 74.5832 306.792 74.4048L306.612 70.4089C302.664 70.587 298.725 70.7548 294.795 70.912L294.955 74.9088ZM318.677 73.8392C322.646 73.6405 326.623 73.432 330.606 73.2138L330.388 69.2198C326.41 69.4376 322.44 69.6459 318.477 69.8442L318.677 73.8392ZM342.578 72.5308C346.522 72.297 350.472 72.0541 354.428 71.8026L354.174 67.8106C350.224 68.0618 346.279 68.3043 342.341 68.5378L342.578 72.5308ZM366.294 71.0236C370.255 70.7555 374.221 70.4791 378.193 70.1947L377.907 66.2049C373.941 66.4889 369.979 66.765 366.024 67.0327L366.294 71.0236ZM390.121 69.3179C394.078 69.0197 398.039 68.7139 402.005 68.4009L401.69 64.4133C397.729 64.7259 393.773 65.0313 389.821 65.3292L390.121 69.3179ZM413.857 67.445C417.811 67.1195 421.769 66.787 425.73 66.4481L425.389 62.4627C421.432 62.8012 417.479 63.1333 413.529 63.4585L413.857 67.445ZM437.623 65.412C441.585 65.0607 445.549 64.7033 449.516 64.34L449.152 60.3567C445.188 60.7196 441.227 61.0767 437.269 61.4276L437.623 65.412ZM461.362 63.2386C465.312 62.8658 469.265 62.4876 473.218 62.1042L472.832 58.1229C468.882 58.506 464.933 58.8839 460.986 59.2563L461.362 63.2386ZM485.083 60.9387C489.039 60.5452 492.996 60.1469 496.954 59.744L496.549 55.7645C492.594 56.1671 488.64 56.5652 484.687 56.9583L485.083 60.9387ZM508.808 58.524C512.758 58.1131 516.708 57.6981 520.658 57.2792L520.236 53.3015C516.289 53.7201 512.341 54.1349 508.394 54.5454L508.808 58.524ZM532.505 56.0109C536.454 55.5844 540.402 55.1543 544.349 54.7209L543.912 50.7448C539.968 51.178 536.022 51.6078 532.076 52.034L532.505 56.0109ZM556.196 53.4102C560.149 52.9695 564.1 52.5259 568.05 52.0796L567.6 48.1049C563.653 48.551 559.703 48.9944 555.753 49.4348L556.196 53.4102ZM579.892 50.733C583.837 50.2817 587.779 49.828 591.719 49.3722L591.259 45.3987C587.321 45.8543 583.38 46.3078 579.437 46.7589L579.892 50.733ZM603.529 47.9992C607.489 47.5366 611.445 47.0723 615.397 46.6065L614.929 42.634C610.978 43.0996 607.023 43.5638 603.065 44.0262L603.529 47.9992ZM627.245 45.205C631.19 44.7366 635.131 44.2671 639.067 43.7968L638.593 39.8251C634.657 40.2953 630.717 40.7647 626.773 41.2329L627.245 45.205ZM650.862 42.3839C654.816 41.909 658.764 41.4337 662.707 40.9583L662.228 36.9871C658.286 37.4625 654.338 37.9377 650.385 38.4124L650.862 42.3839ZM674.572 39.5254C678.52 39.0478 682.463 38.5704 686.4 38.0935L685.919 34.1225C681.982 34.5994 678.04 35.0768 674.091 35.5543L674.572 39.5254ZM698.188 36.6647C702.129 36.187 706.063 35.7101 709.989 35.2344L709.508 31.2634C705.581 31.7392 701.648 32.216 697.707 32.6937L698.188 36.6647ZM721.88 33.7947C725.836 33.3162 729.784 32.8393 733.723 32.3643L733.244 28.3931C729.305 28.8682 725.356 29.3451 721.4 29.8236L721.88 33.7947ZM745.514 30.9454C749.438 30.4743 753.353 30.0054 757.257 29.5392L756.783 25.5674C752.877 26.0338 748.962 26.5027 745.038 26.9739L745.514 30.9454ZM769.185 28.1199C773.151 27.6498 777.106 27.1827 781.05 26.7191L780.583 22.7464C776.637 23.2102 772.681 23.6774 768.714 24.1477L769.185 28.1199ZM792.848 25.339C796.77 24.8827 800.68 24.4302 804.578 23.9819L804.121 20.008C800.221 20.4566 796.309 20.9093 792.386 21.3658L792.848 25.339ZM816.503 22.6195C820.48 22.1684 824.443 21.7222 828.393 21.2811L827.949 17.3058C823.997 17.7471 820.031 18.1937 816.052 18.645L816.503 22.6195ZM840.2 19.974C844.122 19.5438 848.029 19.1192 851.922 18.7006L851.494 14.7235C847.599 15.1424 843.688 15.5673 839.764 15.9978L840.2 19.974ZM863.858 17.4315C867.845 17.0125 871.816 16.6004 875.769 16.1955L875.362 12.2163C871.405 12.6215 867.43 13.034 863.439 13.4534L863.858 17.4315ZM887.579 15.0033C891.499 14.6135 895.4 14.2315 899.284 13.8576L898.9 9.876C895.013 10.2503 891.107 10.6328 887.184 11.023L887.579 15.0033ZM911.271 12.7246C915.265 12.3542 919.239 11.9932 923.193 11.642L922.839 7.65769C918.88 8.00936 914.901 8.37084 910.901 8.74164L911.271 12.7246ZM934.989 10.6183C938.916 10.2859 942.821 9.96379 946.704 9.65261L946.384 5.6654C942.495 5.97707 938.584 6.29963 934.651 6.63259L934.989 10.6183ZM958.759 8.71649C962.753 8.41665 966.721 8.12919 970.663 7.85468L970.386 3.86434C966.436 4.13937 962.46 4.42735 958.46 4.72772L958.759 8.71649ZM982.411 7.07058C986.4 6.81622 990.36 6.57608 994.292 6.35075L994.063 2.35731C990.122 2.58314 986.154 2.8238 982.157 3.07869L982.411 7.07058ZM1006.31 5.70392C1010.29 5.50439 1014.24 5.32116 1018.15 5.15488L1017.98 1.15848C1014.05 1.32521 1010.1 1.50892 1006.11 1.70895L1006.31 5.70392ZM1029.82 4.7065C1033.9 4.56674 1037.95 4.44684 1041.96 4.3476L1041.86 0.348822C1037.84 0.448394 1033.78 0.568666 1029.68 0.708836L1029.82 4.7065ZM1053.86 4.11258C1057.79 4.05541 1061.68 4.01967 1065.53 4.00615L1065.52 0.00617521C1061.65 0.0197504 1057.75 0.0556266 1053.8 0.113002L1053.86 4.11258ZM1077.61 4.03873C1081.63 4.07553 1085.61 4.13876 1089.55 4.22939L1089.64 0.230456C1085.69 0.139378 1081.69 0.0758556 1077.64 0.0388989L1077.61 4.03873ZM1101.19 4.58444C1105.27 4.74027 1109.29 4.92824 1113.25 5.14949L1113.47 1.15571C1109.48 0.933099 1105.44 0.744047 1101.34 0.587355L1101.19 4.58444ZM1125.13 5.92796C1129.03 6.22265 1132.87 6.55288 1136.64 6.91985L1137.02 2.93865C1133.22 2.56876 1129.36 2.23609 1125.43 1.93933L1125.13 5.92796ZM1148.76 8.25518C1152.72 8.74513 1156.61 9.28039 1160.41 9.86251L1161.01 5.90862C1157.17 5.32035 1153.25 4.77984 1149.25 4.28541L1148.76 8.25518ZM1172.06 11.845C1176.07 12.597 1179.96 13.4079 1183.76 14.2797L1184.65 10.3813C1180.8 9.49687 1176.85 8.67515 1172.8 7.91382L1172.06 11.845ZM1194.97 17.1231C1198.95 18.2313 1202.79 19.417 1206.49 20.6826L1207.78 16.8978C1204 15.6057 1200.09 14.3975 1196.05 13.2701L1194.97 17.1231ZM1217.23 24.7449C1221.03 26.3348 1224.66 28.0264 1228.1 29.8229L1229.95 26.2762C1226.4 24.4235 1222.67 22.6845 1218.77 21.0543L1217.23 24.7449ZM1238.05 35.635C1241.42 37.8464 1244.57 40.1878 1247.48 42.6637L1250.07 39.6148C1247.02 37.0251 1243.74 34.5857 1240.24 32.29L1238.05 35.635ZM1255.73 50.7298C1258.31 53.6497 1260.63 56.7277 1262.67 59.97L1266.06 57.8356C1263.89 54.4064 1261.45 51.1573 1258.73 48.0819L1255.73 50.7298ZM1267.98 70.1559C1269.45 73.6554 1270.65 77.3245 1271.59 81.1706L1275.48 80.225C1274.49 76.1781 1273.22 72.3072 1271.67 68.6075L1267.98 70.1559ZM1273.51 92.5479C1273.7 94.5261 1273.84 96.5459 1273.91 98.6081L1277.91 98.4718C1277.83 96.3257 1277.69 94.2197 1277.49 92.1531L1273.51 92.5479ZM1273.91 98.6081C1273.98 100.716 1274.01 102.794 1273.99 104.844L1277.99 104.881C1278.01 102.772 1277.98 100.636 1277.91 98.4718L1273.91 98.6081ZM1273.34 116.796C1272.94 120.666 1272.38 124.423 1271.64 128.071L1275.56 128.865C1276.32 125.085 1276.91 121.197 1277.32 117.2L1273.34 116.796ZM1268.62 139.594C1267.41 143.349 1265.99 146.976 1264.39 150.481L1268.02 152.15C1269.7 148.502 1271.17 144.728 1272.43 140.826L1268.62 139.594ZM1258.92 160.733C1256.88 164.061 1254.64 167.268 1252.21 170.357L1255.36 172.829C1257.88 169.62 1260.21 166.286 1262.33 162.822L1258.92 160.733ZM1244.43 179.203C1241.75 181.926 1238.91 184.545 1235.9 187.064L1238.47 190.131C1241.58 187.532 1244.51 184.824 1247.28 182.004L1244.43 179.203ZM1226.39 194.324C1223.26 196.502 1219.99 198.594 1216.58 200.603L1218.61 204.049C1222.1 201.992 1225.46 199.846 1228.67 197.607L1226.39 194.324ZM1206.22 206.24C1202.65 208.033 1198.96 209.748 1195.15 211.389L1196.73 215.064C1200.61 213.393 1204.38 211.644 1208.02 209.814L1206.22 206.24ZM1184.48 215.67C1180.83 217.036 1177.07 218.342 1173.23 219.589L1174.46 223.394C1178.36 222.129 1182.17 220.804 1185.88 219.416L1184.48 215.67ZM1161.5 223.133C1157.86 224.158 1154.13 225.136 1150.34 226.07L1151.3 229.954C1155.13 229.011 1158.89 228.021 1162.58 226.983L1161.5 223.133ZM1138.75 228.734C1134.81 229.578 1130.81 230.377 1126.73 231.134L1127.46 235.066C1131.57 234.304 1135.61 233.497 1139.58 232.645L1138.75 228.734ZM1115.19 233.135C1111.35 233.754 1107.46 234.337 1103.52 234.887L1104.07 238.849C1108.04 238.295 1111.96 237.707 1115.82 237.084L1115.19 233.135ZM1091.54 236.437C1087.56 236.912 1083.53 237.355 1079.45 237.768L1079.85 241.748C1083.95 241.333 1088.01 240.887 1092.01 240.408L1091.54 236.437ZM1067.84 238.849C1063.92 239.182 1059.97 239.489 1055.98 239.77L1056.26 243.76C1060.27 243.478 1064.24 243.169 1068.18 242.834L1067.84 238.849ZM1043.88 240.536C1039.89 240.762 1035.87 240.963 1031.81 241.141L1031.99 245.137C1036.06 244.959 1040.1 244.756 1044.1 244.53L1043.88 240.536ZM1020.09 241.589C1016.16 241.717 1012.19 241.825 1008.19 241.913L1008.27 245.912C1012.29 245.824 1016.27 245.715 1020.22 245.587L1020.09 241.589ZM996.099 242.117C992.079 242.165 988.03 242.194 983.954 242.205L983.965 246.205C988.053 246.194 992.114 246.165 996.147 246.117L996.099 242.117ZM972.209 242.187C968.27 242.164 964.307 242.125 960.321 242.071L960.266 246.071C964.262 246.125 968.236 246.164 972.186 246.186L972.209 242.187ZM948.295 241.862C944.264 241.777 940.211 241.677 936.137 241.562L936.025 245.561C940.108 245.675 944.17 245.776 948.211 245.861L948.295 241.862ZM924.28 241.19C920.349 241.054 916.399 240.906 912.433 240.745L912.27 244.741C916.245 244.903 920.202 245.052 924.141 245.188L924.28 241.19ZM900.48 240.225C896.479 240.04 892.461 239.843 888.427 239.635L888.22 243.629C892.261 243.838 896.286 244.035 900.295 244.221L900.48 240.225ZM876.354 238.98C872.432 238.758 868.495 238.525 864.546 238.283L864.301 242.275C868.256 242.518 872.199 242.751 876.128 242.974L876.354 238.98ZM852.657 237.527C848.681 237.266 844.692 236.995 840.692 236.715L840.413 240.706C844.419 240.986 848.413 241.257 852.394 241.518L852.657 237.527ZM828.656 235.851C824.676 235.557 820.685 235.255 816.684 234.945L816.375 238.933C820.381 239.243 824.377 239.546 828.362 239.84L828.656 235.851ZM804.838 234.008C800.88 233.688 796.913 233.361 792.937 233.027L792.602 237.013C796.582 237.347 800.554 237.675 804.516 237.995L804.838 234.008ZM780.984 232.005C776.992 231.658 772.992 231.304 768.984 230.945L768.627 234.929C772.638 235.289 776.642 235.643 780.638 235.99L780.984 232.005ZM757.052 229.858C753.102 229.493 749.145 229.123 745.183 228.748L744.806 232.73C748.771 233.106 752.731 233.476 756.684 233.841L757.052 229.858ZM733.28 227.607C729.308 227.222 725.33 226.832 721.347 226.438L720.953 230.419C724.938 230.813 728.919 231.203 732.894 231.589L733.28 227.607ZM709.388 225.243C705.418 224.843 701.444 224.439 697.467 224.031L697.058 228.01C701.038 228.418 705.014 228.823 708.987 229.223L709.388 225.243ZM685.578 222.802C681.613 222.389 677.645 221.973 673.675 221.555L673.256 225.533C677.227 225.952 681.197 226.368 685.164 226.781L685.578 222.802ZM661.761 220.29C657.788 219.866 653.814 219.44 649.84 219.011L649.411 222.988C653.387 223.417 657.362 223.844 661.337 224.268L661.761 220.29ZM637.922 217.72C633.951 217.289 629.98 216.855 626.01 216.42L625.575 220.396C629.546 220.831 633.517 221.265 637.489 221.697L637.922 217.72ZM614.103 215.112C610.135 214.674 606.168 214.236 602.203 213.797L601.763 217.773C605.728 218.212 609.696 218.65 613.665 219.087L614.103 215.112ZM590.314 212.479C586.34 212.038 582.368 211.596 578.4 211.154L577.957 215.13C581.926 215.571 585.898 216.013 589.873 216.454L590.314 212.479ZM566.459 209.826C562.482 209.383 558.51 208.941 554.541 208.5L554.099 212.475C558.067 212.916 562.04 213.358 566.017 213.801L566.459 209.826ZM542.65 207.179C538.691 206.739 534.737 206.301 530.789 205.865L530.349 209.841C534.297 210.277 538.25 210.715 542.209 211.154L542.65 207.179ZM518.873 204.551C514.875 204.111 510.883 203.673 506.898 203.238L506.463 207.214C510.447 207.649 514.438 208.087 518.436 208.527L518.873 204.551ZM494.966 201.939C490.996 201.509 487.035 201.081 483.081 200.657L482.655 204.634C486.606 205.058 490.567 205.486 494.535 205.916L494.966 201.939ZM471.248 199.394C467.257 198.971 463.277 198.551 459.306 198.135L458.89 202.114C462.858 202.529 466.837 202.949 470.826 203.372L471.248 199.394ZM447.296 196.888C443.303 196.476 439.322 196.069 435.352 195.668L434.949 199.647C438.917 200.049 442.896 200.456 446.886 200.867L447.296 196.888ZM423.479 194.477C419.534 194.086 415.601 193.7 411.681 193.319L411.295 197.301C415.211 197.681 419.141 198.067 423.084 198.458L423.479 194.477ZM399.655 192.167C395.628 191.787 391.616 191.413 387.62 191.046L387.254 195.029C391.247 195.396 395.255 195.769 399.279 196.15L399.655 192.167ZM375.679 189.967C371.714 189.615 367.767 189.271 363.836 188.934L363.495 192.92C367.421 193.256 371.365 193.6 375.325 193.952L375.679 189.967ZM352.035 187.945C347.963 187.611 343.911 187.286 339.88 186.971L339.568 190.959C343.594 191.273 347.641 191.598 351.708 191.931L352.035 187.945ZM327.849 186.056C323.859 185.761 319.892 185.477 315.946 185.203L315.67 189.194C319.609 189.467 323.57 189.751 327.554 190.045L327.849 186.056ZM304.178 184.416C300.127 184.155 296.1 183.907 292.1 183.671L291.865 187.664C295.858 187.899 299.877 188.147 303.921 188.408L304.178 184.416ZM279.969 182.993C275.954 182.78 271.966 182.582 268.007 182.398L267.822 186.394C271.772 186.577 275.751 186.775 279.758 186.987L279.969 182.993ZM256.221 181.892C252.188 181.733 248.189 181.591 244.222 181.465L244.096 185.463C248.051 185.588 252.041 185.731 256.063 185.889L256.221 181.892ZM232.009 181.131C227.975 181.038 223.978 180.964 220.019 180.911L219.965 184.91C223.91 184.964 227.895 185.037 231.917 185.13L232.009 181.131ZM208.26 180.809C204.191 180.795 200.166 180.804 196.186 180.836L196.218 184.836C200.182 184.804 204.192 184.795 208.246 184.809L208.26 180.809ZM183.961 181.013C179.935 181.098 175.96 181.209 172.037 181.347L172.178 185.345C176.081 185.207 180.038 185.097 184.045 185.012L183.961 181.013ZM160.424 181.846C156.225 182.059 152.089 182.307 148.021 182.59L148.299 186.58C152.341 186.299 156.451 186.053 160.627 185.84L160.424 181.846ZM135.969 183.552C132.02 183.91 128.141 184.305 124.335 184.738L124.787 188.713C128.562 188.283 132.41 187.891 136.329 187.536L135.969 183.552ZM112.183 186.29C108.078 186.874 104.067 187.509 100.153 188.197L100.845 192.137C104.714 191.457 108.682 190.829 112.747 190.25L112.183 186.29ZM88.7046 190.422C84.5591 191.31 80.5378 192.267 76.6456 193.294L77.6668 197.162C81.4939 196.151 85.4537 195.209 89.5423 194.334L88.7046 190.422ZM65.0589 196.693C61.1824 197.953 57.4578 199.299 53.8915 200.734L55.385 204.445C58.8603 203.046 62.4988 201.731 66.2957 200.497L65.0589 196.693ZM42.5686 205.87C38.9561 207.717 35.5508 209.684 32.3623 211.777L34.5572 215.121C37.615 213.114 40.8944 211.219 44.3896 209.432L42.5686 205.87ZM22.3749 219.383C19.2969 222.118 16.5183 225.028 14.0553 228.12L17.1839 230.612C19.495 227.711 22.1135 224.966 25.0319 222.373L22.3749 219.383ZM7.32538 238.537C5.48935 242.137 4.01278 245.93 2.9089 249.924L6.76431 250.989C7.79693 247.254 9.17599 243.712 10.8886 240.355L7.32538 238.537ZM0.767356 262.032C0.587644 264.142 0.4973 266.298 0.497314 268.5L4.49731 268.5C4.4973 266.407 4.58315 264.365 4.75292 262.372L0.767356 262.032ZM0.497314 268.5C0.497328 270.627 0.516761 272.731 0.555472 274.813L4.55478 274.738C4.51654 272.682 4.49733 270.603 4.49731 268.5L0.497314 268.5ZM1.01793 287.03C1.24844 291.013 1.55494 294.907 1.9363 298.713L5.91637 298.314C5.54079 294.566 5.23863 290.728 5.01125 286.799L1.01793 287.03ZM3.45907 310.917C4.06911 314.97 4.77173 318.915 5.56537 322.755L9.48256 321.945C8.70414 318.179 8.01415 314.305 7.41452 310.321L3.45907 310.917ZM8.34072 334.414C9.42951 338.43 10.6283 342.319 11.935 346.084L15.7138 344.772C14.4385 341.098 13.2668 337.297 12.2014 333.367L8.34072 334.414ZM16.2603 357.2C17.9182 361.022 19.7011 364.699 21.6061 368.236L25.1277 366.339C23.2776 362.904 21.5439 359.329 19.9299 355.608L16.2603 357.2ZM27.7613 378.543C30.0333 381.984 32.4379 385.271 34.9715 388.408L38.0833 385.895C35.6307 382.858 33.3015 379.675 31.0994 376.339L27.7613 378.543ZM43.0138 397.432C45.8649 400.334 48.8458 403.083 51.9523 405.684L54.5199 402.616C51.5116 400.098 48.6261 397.437 45.8671 394.629L43.0138 397.432ZM61.5943 413.011C64.9111 415.298 68.3458 417.443 71.8944 419.453L73.8658 415.973C70.4163 414.019 67.0814 411.935 63.8644 409.718L61.5943 413.011ZM82.6379 424.97C86.2722 426.657 90.0085 428.223 93.8429 429.672L95.2567 425.93C91.51 424.515 87.8643 422.987 84.3224 421.342L82.6379 424.97ZM105.231 433.549C109.049 434.714 112.951 435.778 116.936 436.744L117.878 432.856C113.966 431.908 110.138 430.864 106.399 429.723L105.231 433.549ZM128.685 439.27C132.586 440.007 136.557 440.661 140.597 441.235L141.16 437.275C137.178 436.709 133.266 436.064 129.428 435.339L128.685 439.27ZM152.577 442.687C156.498 443.085 160.477 443.414 164.513 443.679L164.775 439.687C160.784 439.426 156.852 439.1 152.98 438.708L152.577 442.687ZM176.678 444.276C180.583 444.407 184.537 444.482 188.538 444.504L188.56 440.504C184.595 440.482 180.678 440.408 176.811 440.279L176.678 444.276ZM200.679 444.414C204.615 444.335 208.592 444.209 212.611 444.039L212.441 440.042C208.451 440.212 204.504 440.336 200.599 440.415L200.679 444.414ZM224.582 443.406C228.586 443.154 232.628 442.861 236.705 442.529L236.38 438.542C232.326 438.872 228.31 439.164 224.331 439.414L224.582 443.406ZM248.502 441.468C252.467 441.08 256.463 440.656 260.489 440.201L260.039 436.226C256.032 436.68 252.056 437.101 248.112 437.487L248.502 441.468ZM272.442 438.763C276.347 438.267 280.279 437.742 284.237 437.189L283.685 433.228C279.742 433.778 275.826 434.301 271.937 434.795L272.442 438.763ZM296.187 435.452C300.11 434.859 304.055 434.242 308.024 433.601L307.386 429.652C303.43 430.291 299.498 430.906 295.59 431.497L296.187 435.452ZM319.787 431.645C323.729 430.971 327.692 430.276 331.675 429.56L330.968 425.623C326.995 426.337 323.043 427.03 319.113 427.702L319.787 431.645ZM343.444 427.398C347.332 426.669 351.238 425.921 355.161 425.158L354.397 421.231C350.482 421.994 346.585 422.739 342.706 423.467L343.444 427.398ZM366.981 422.816C370.878 422.032 374.79 421.232 378.718 420.419L377.906 416.502C373.986 417.314 370.081 418.112 366.192 418.895L366.981 422.816ZM390.389 417.969C394.294 417.139 398.212 416.297 402.143 415.442L401.294 411.534C397.369 412.387 393.456 413.228 389.558 414.056L390.389 417.969ZM413.869 412.869C417.735 412.012 421.613 411.145 425.502 410.269L424.623 406.367C420.738 407.242 416.865 408.108 413.004 408.964L413.869 412.869ZM437.201 407.613C441.098 406.722 445.006 405.823 448.924 404.916L448.022 401.019C444.108 401.925 440.203 402.824 436.309 403.714L437.201 407.613ZM460.53 402.214C464.407 401.307 468.293 400.394 472.187 399.475L471.268 395.582C467.377 396.5 463.494 397.413 459.619 398.319L460.53 402.214ZM483.89 396.703C487.753 395.785 491.623 394.862 495.5 393.936L494.571 390.046C490.695 390.972 486.827 391.894 482.965 392.811L483.89 396.703ZM507.131 391.152C511.014 390.221 514.903 389.288 518.796 388.352L517.861 384.463C513.969 385.398 510.081 386.332 506.199 387.263L507.131 391.152ZM530.435 385.555C534.306 384.624 538.181 383.692 542.059 382.761L541.125 378.871C537.246 379.803 533.371 380.735 529.5 381.665L530.435 385.555ZM553.704 379.966C557.585 379.036 561.47 378.106 565.356 377.178L564.427 373.288C560.539 374.216 556.654 375.146 552.771 376.076L553.704 379.966ZM576.991 374.407C580.871 373.485 584.752 372.566 588.635 371.65L587.716 367.757C583.832 368.673 579.948 369.593 576.066 370.515L576.991 374.407ZM600.283 368.912C604.171 368.002 608.058 367.097 611.946 366.196L611.043 362.299C607.152 363.201 603.262 364.107 599.372 365.017L600.283 368.912ZM623.607 363.509C627.493 362.618 631.379 361.734 635.262 360.856L634.38 356.954C630.492 357.833 626.604 358.719 622.714 359.61L623.607 363.509ZM646.941 358.234C650.843 357.365 654.742 356.504 658.638 355.65L657.782 351.743C653.881 352.597 649.977 353.46 646.071 354.33L646.941 358.234ZM670.317 353.116C674.213 352.279 678.106 351.451 681.994 350.633L681.171 346.718C677.276 347.538 673.378 348.367 669.476 349.206L670.317 353.116ZM693.744 348.189C697.655 347.386 701.561 346.593 705.462 345.812L704.677 341.89C700.77 342.672 696.856 343.466 692.939 344.271L693.744 348.189ZM717.145 343.507C721.084 342.742 725.016 341.989 728.94 341.251L728.2 337.32C724.268 338.06 720.328 338.814 716.382 339.581L717.145 343.507ZM740.711 339.075C744.627 338.364 748.535 337.669 752.434 336.989L751.747 333.049C747.839 333.73 743.922 334.427 739.997 335.139L740.711 339.075ZM764.243 334.976C768.198 334.317 772.143 333.676 776.077 333.053L775.452 329.102C771.507 329.727 767.551 330.37 763.586 331.03L764.243 334.976ZM787.847 331.241C791.799 330.65 795.74 330.079 799.667 329.529L799.112 325.568C795.172 326.119 791.22 326.692 787.256 327.285L787.847 331.241ZM811.568 327.922C815.522 327.408 819.462 326.917 823.388 326.449L822.914 322.477C818.974 322.947 815.02 323.44 811.053 323.955L811.568 327.922ZM835.222 325.106C839.226 324.675 843.214 324.27 847.185 323.892L846.806 319.91C842.818 320.29 838.814 320.696 834.794 321.129L835.222 325.106ZM859.046 322.84C863.017 322.514 866.97 322.216 870.904 321.949L870.632 317.958C866.68 318.227 862.708 318.526 858.719 318.853L859.046 322.84ZM882.912 321.223C886.894 321.013 890.855 320.835 894.794 320.691L894.648 316.694C890.687 316.839 886.704 317.017 882.701 317.229L882.912 321.223ZM906.685 320.359C910.716 320.281 914.722 320.241 918.703 320.24L918.701 316.24C914.695 316.241 910.663 316.281 906.608 316.359L906.685 320.359Z" fill="#DEEBF7"/>
</svg>
