<svg width="207" height="40" viewBox="0 0 207 40" fill="none" xmlns="http://www.w3.org/2000/svg">
<mask id="mask0_1100_4180" style="mask-type:luminance" maskUnits="userSpaceOnUse" x="0" y="0" width="207" height="40">
<path d="M0 40H206.183V0H0V40Z" fill="white"/>
</mask>
<g mask="url(#mask0_1100_4180)">
<path fill-rule="evenodd" clip-rule="evenodd" d="M26.1156 26.0278L29.253 22.8844C29.2828 22.9863 29.3123 23.0869 29.3413 23.1859C29.3795 23.3148 29.4165 23.4406 29.4516 23.5631C29.6032 24.0879 29.7293 24.5735 29.7933 25.0445C29.9047 25.8604 29.8295 26.6075 29.3357 27.3549L28.3921 28.3001C27.2148 29.4792 25.4981 29.9398 23.8894 29.5086L22.9653 29.2612L25.9572 26.2693L25.896 26.208C25.9739 26.1559 26.0475 26.0958 26.1156 26.0278ZM23.7359 26.1377L16.9589 24.3218C16.4612 24.1881 16.0719 23.7993 15.9389 23.3008L13.8585 15.5091C13.726 15.0122 13.868 14.4824 14.2312 14.1184L19.9289 8.41065C20.2932 8.04592 20.8244 7.9031 21.3225 8.03643L29.0855 10.1165C29.5836 10.2498 29.972 10.6392 30.1051 11.1376L32.1857 18.9291C32.3185 19.4262 32.1764 19.9559 31.8133 20.3198L30.5737 21.5617L30.616 21.5514C30.7039 21.9229 30.8121 22.2894 30.9278 22.6819C30.9679 22.8185 31.009 22.958 31.0507 23.102C31.2059 23.6414 31.3605 24.2233 31.4421 24.8201C31.4594 24.947 31.4735 25.0747 31.4832 25.2032L34.0896 22.5925C35.2635 21.4165 35.7222 19.7047 35.2937 18.0993L33.2129 10.3078C32.7832 8.69826 31.5268 7.4405 29.9181 7.00929L22.1551 4.92943C20.5459 4.49862 18.8295 4.95927 17.6523 6.13835L11.9546 11.8457C10.781 13.0217 10.3223 14.7337 10.7507 16.3386L12.8314 24.1307C13.2612 25.7402 14.5176 26.9974 16.1264 27.4286L21.1095 28.7637L23.7359 26.1377Z" fill="white"/>
<path fill-rule="evenodd" clip-rule="evenodd" d="M16.5825 14.1257L23.2804 15.9204C23.7785 16.0542 24.1675 16.4429 24.3004 16.9414L26.3808 24.7331C26.5134 25.23 26.3717 25.7598 26.0082 26.1238L20.3105 31.8316C19.9463 32.1963 19.4149 32.3391 18.9168 32.2058L11.1542 30.1258C10.6561 29.9924 10.2674 29.6031 10.1342 29.1046L8.05361 21.3131C7.92085 20.8162 8.0631 20.2864 8.42628 19.9224L9.66388 18.6825C9.57725 18.3236 9.47261 17.9679 9.36117 17.5885C9.32067 17.4521 9.27958 17.3121 9.23791 17.1681C9.08268 16.629 8.92803 16.047 8.84644 15.4507C8.82609 15.2999 8.8102 15.148 8.79993 14.9949L6.14972 17.6497C4.97588 18.8257 4.51715 20.5375 4.94603 22.143L7.02647 29.9345C7.45612 31.544 8.71272 32.8018 10.3218 33.2326L18.0843 35.3128C19.6934 35.7436 21.4103 35.283 22.587 34.1041L28.2847 28.3965C29.4584 27.2205 29.9173 25.5085 29.4886 23.9036L27.408 16.1115C26.9783 14.502 25.7221 13.2449 24.113 12.8137L19.2089 11.4997L16.5825 14.1257ZM17.3535 11.0024L16.3502 10.7336C14.7414 10.3024 13.0246 10.7631 11.8474 11.9421L11.1302 12.6609L11.135 12.6648C10.4782 13.4966 10.3713 14.3189 10.4953 15.2259C10.5594 15.6966 10.6854 16.1823 10.8368 16.7071C10.872 16.8296 10.909 16.9559 10.9472 17.0844C10.9707 17.1641 10.9945 17.2445 11.0178 17.3259L14.1238 14.2144C14.1684 14.1699 14.2153 14.1288 14.2645 14.091L17.3535 11.0024Z" fill="white"/>
<path fill-rule="evenodd" clip-rule="evenodd" d="M68.3613 15.1275C70.2011 15.1275 71.6583 15.6647 72.7327 16.7396C73.8073 17.7958 74.3447 19.3894 74.3447 21.5208V29.8809H70.9296V21.958C70.9296 20.683 70.6474 19.7266 70.0829 19.089C69.5181 18.4333 68.7076 18.1056 67.6509 18.1056C66.5036 18.1056 65.5838 18.4882 64.8915 19.2529C64.1995 19.9998 63.8534 21.0745 63.8534 22.477V29.8809H60.4382V21.958C60.4382 20.683 60.156 19.7266 59.5913 19.089C59.0268 18.4333 58.2161 18.1056 57.1595 18.1056C55.9942 18.1056 55.0653 18.4791 54.3729 19.2258C53.699 19.9725 53.362 21.0564 53.362 22.477V29.8809H49.9469V15.2915H53.1985V17.1492C53.7444 16.4936 54.4277 15.9928 55.2473 15.6467C56.0671 15.3006 56.9777 15.1275 57.9793 15.1275C59.0721 15.1275 60.0377 15.3372 60.8754 15.7558C61.7315 16.1564 62.4053 16.7578 62.8974 17.5593C63.4981 16.794 64.2722 16.2022 65.2195 15.7832C66.1665 15.3463 67.214 15.1275 68.3613 15.1275ZM78.7089 15.2915H82.124V29.8809H78.7089V15.2915ZM80.4302 12.8872C79.8108 12.8872 79.2914 12.6959 78.8728 12.3136C78.4536 11.9126 78.2443 11.4209 78.2443 10.8382C78.2443 10.2552 78.4536 9.77245 78.8728 9.39008C79.2914 8.9895 79.8108 8.78931 80.4302 8.78931C81.0492 8.78931 81.5684 8.9804 81.9872 9.36296C82.4062 9.72711 82.6155 10.1916 82.6155 10.7562C82.6155 11.3572 82.4062 11.8672 81.9872 12.2864C81.5866 12.687 81.0676 12.8872 80.4302 12.8872ZM101.087 15.2915V27.6679C101.087 32.8044 98.4636 35.3726 93.2181 35.3726C91.8157 35.3726 90.4859 35.1904 89.2289 34.8261C87.9723 34.4799 86.9343 33.9701 86.1145 33.2958L87.6444 30.7276C88.2818 31.2561 89.0833 31.6751 90.0489 31.9846C91.0322 32.3127 92.025 32.4763 93.0268 32.4763C94.6295 32.4763 95.8045 32.1123 96.5512 31.3838C97.2979 30.6551 97.6712 29.5441 97.6712 28.0503V27.2853C97.0886 27.9229 96.3781 28.4055 95.5401 28.7334C94.7024 29.0611 93.7826 29.2251 92.7808 29.2251C91.3965 29.2251 90.1399 28.9338 89.0105 28.3511C87.8994 27.7499 87.0159 26.9121 86.3606 25.8373C85.723 24.7629 85.4041 23.5336 85.4041 22.1489C85.4041 20.765 85.723 19.5444 86.3606 18.4882C87.0159 17.4134 87.8994 16.5847 89.0105 16.002C90.1399 15.4192 91.3965 15.1275 92.7808 15.1275C93.8374 15.1275 94.7935 15.3006 95.6495 15.6467C96.5239 15.9928 97.2526 16.5211 97.8353 17.2312V15.2915H101.087ZM93.3 26.3293C94.5933 26.3293 95.6495 25.9468 96.4692 25.182C97.307 24.3985 97.726 23.3877 97.726 22.1489C97.726 20.9287 97.307 19.9359 96.4692 19.171C95.6495 18.4062 94.5933 18.0237 93.3 18.0237C91.9884 18.0237 90.914 18.4062 90.0762 19.171C89.2564 19.9359 88.8465 20.9287 88.8465 22.1489C88.8465 23.3877 89.2564 24.3985 90.0762 25.182C90.914 25.9468 91.9884 26.3293 93.3 26.3293ZM108.828 17.4225C109.811 15.8927 111.541 15.1275 114.018 15.1275V18.3789C113.727 18.3241 113.463 18.2969 113.226 18.2969C111.896 18.2969 110.859 18.6884 110.112 19.4715C109.365 20.2367 108.992 21.3477 108.992 22.8049V29.8809H105.576V15.2915H108.828V17.4225ZM131.044 15.2915V29.8809H127.792V27.9958C127.228 28.6877 126.527 29.2071 125.689 29.5532C124.869 29.8993 123.959 30.0724 122.957 30.0724C121.536 30.0724 120.261 29.7625 119.132 29.1431C118.021 28.5241 117.147 27.6497 116.509 26.5204C115.89 25.3913 115.58 24.0799 115.58 22.5861C115.58 21.0927 115.89 19.7903 116.509 18.6793C117.147 17.5502 118.021 16.6758 119.132 16.0564C120.261 15.4374 121.536 15.1275 122.957 15.1275C123.904 15.1275 124.769 15.2915 125.553 15.6194C126.353 15.9471 127.045 16.43 127.628 17.0676V15.2915H131.044ZM123.339 27.1489C124.596 27.1489 125.635 26.7299 126.453 25.8921C127.274 25.0541 127.683 23.9522 127.683 22.5861C127.683 21.22 127.274 20.1181 126.453 19.2803C125.635 18.4425 124.596 18.0237 123.339 18.0237C122.082 18.0237 121.044 18.4425 120.224 19.2803C119.423 20.1181 119.022 21.22 119.022 22.5861C119.022 23.9522 119.423 25.0541 120.224 25.8921C121.044 26.7299 122.082 27.1489 123.339 27.1489ZM143.79 15.1275C145.63 15.1275 147.105 15.6647 148.217 16.7396C149.328 17.814 149.882 19.408 149.882 21.5208V29.8809H146.468V21.958C146.468 20.683 146.167 19.7266 145.566 19.089C144.965 18.4333 144.109 18.1056 142.999 18.1056C141.742 18.1056 140.749 18.4882 140.02 19.2529C139.292 19.9998 138.927 21.0836 138.927 22.5041V29.8809H135.512V15.2915H138.763V17.1768C139.328 16.5027 140.038 15.9928 140.895 15.6467C141.751 15.3006 142.715 15.1275 143.79 15.1275ZM154.215 15.2915H157.631V29.8809H154.215V15.2915ZM155.937 12.8872C155.317 12.8872 154.798 12.6959 154.379 12.3136C153.96 11.9126 153.751 11.4209 153.751 10.8382C153.751 10.2552 153.96 9.77245 154.379 9.39008C154.798 8.9895 155.317 8.78931 155.937 8.78931C156.555 8.78931 157.075 8.9804 157.493 9.36296C157.913 9.72711 158.122 10.1916 158.122 10.7562C158.122 11.3572 157.913 11.8672 157.493 12.2864C157.092 12.687 156.574 12.8872 155.937 12.8872ZM176.238 15.2915V29.8809H172.986V28.0229C172.44 28.6788 171.757 29.1888 170.938 29.5532C170.118 29.8993 169.234 30.0724 168.287 30.0724C166.338 30.0724 164.799 29.535 163.67 28.4604C162.559 27.3673 162.003 25.7557 162.003 23.6247V15.2915H165.418V23.1597C165.418 24.4716 165.71 25.4547 166.292 26.1105C166.894 26.7479 167.741 27.0669 168.834 27.0669C170.054 27.0669 171.02 26.6935 171.73 25.9468C172.458 25.182 172.823 24.089 172.823 22.6681V15.2915H176.238ZM199.123 15.1275C200.963 15.1275 202.421 15.6647 203.495 16.7396C204.569 17.7958 205.106 19.3894 205.106 21.5208V29.8809H201.692V21.958C201.692 20.683 201.41 19.7266 200.845 19.089C200.28 18.4333 199.469 18.1056 198.413 18.1056C197.266 18.1056 196.345 18.4882 195.653 19.2529C194.962 19.9998 194.616 21.0745 194.616 22.477V29.8809H191.2V21.958C191.2 20.683 190.918 19.7266 190.353 19.089C189.788 18.4333 188.978 18.1056 187.921 18.1056C186.756 18.1056 185.827 18.4791 185.135 19.2258C184.461 19.9725 184.124 21.0564 184.124 22.477V29.8809H180.71V15.2915H183.96V17.1492C184.507 16.4936 185.19 15.9928 186.01 15.6467C186.829 15.3006 187.74 15.1275 188.742 15.1275C189.834 15.1275 190.799 15.3372 191.637 15.7558C192.494 16.1564 193.168 16.7578 193.659 17.5593C194.261 16.794 195.035 16.2022 195.981 15.7832C196.928 15.3463 197.976 15.1275 199.123 15.1275Z" fill="white"/>
</g>
</svg>
