<svg width="158" height="32" viewBox="0 0 158 32" fill="none" xmlns="http://www.w3.org/2000/svg">
<mask id="mask0_3_32707" style="mask-type:luminance" maskUnits="userSpaceOnUse" x="0" y="0" width="158" height="32">
<path d="M0 31.3262H158V0.673828H0V31.3262Z" fill="white"/>
</mask>
<g mask="url(#mask0_3_32707)">
<path fill-rule="evenodd" clip-rule="evenodd" d="M20.0123 20.6191L22.4165 18.2102C22.4394 18.2884 22.4619 18.3654 22.4842 18.4413C22.5135 18.5401 22.5418 18.6365 22.5687 18.7303C22.6849 19.1325 22.7815 19.5047 22.8305 19.8655C22.9159 20.4908 22.8583 21.0633 22.4799 21.6361L21.7568 22.3604C20.8546 23.2639 19.5391 23.6169 18.3063 23.2865L17.5982 23.0968L19.8909 20.8041L19.844 20.7572C19.9037 20.7173 19.9601 20.6712 20.0123 20.6191ZM18.1887 20.7033L12.9954 19.3117C12.6141 19.2093 12.3157 18.9114 12.2138 18.5294L10.6196 12.5585C10.518 12.1777 10.6268 11.7717 10.9052 11.4928L15.2714 7.11888C15.5506 6.83938 15.9576 6.72994 16.3393 6.83211L22.2882 8.42608C22.6699 8.52825 22.9675 8.82661 23.0695 9.20858L24.6639 15.1793C24.7656 15.5602 24.6568 15.9661 24.3785 16.245L23.4286 17.1967L23.461 17.1888C23.5284 17.4735 23.6113 17.7543 23.6999 18.0551C23.7307 18.1598 23.7622 18.2667 23.7941 18.377C23.913 18.7903 24.0315 19.2363 24.0941 19.6936C24.1073 19.7908 24.1181 19.8887 24.1256 19.9872L26.1229 17.9866C27.0224 17.0854 27.3739 15.7736 27.0456 14.5434L25.451 8.57266C25.1218 7.33928 24.159 6.37544 22.9262 6.04501L16.9773 4.45119C15.7442 4.12105 14.4289 4.47406 13.5268 5.37759L9.1606 9.75123C8.26122 10.6524 7.9097 11.9643 8.23805 13.1941L9.83247 19.1653C10.1619 20.3987 11.1247 21.3621 12.3574 21.6925L16.1761 22.7156L18.1887 20.7033Z" fill="#043B6D"/>
<path fill-rule="evenodd" clip-rule="evenodd" d="M12.7071 11.4985L17.8398 12.8738C18.2215 12.9763 18.5195 13.2742 18.6214 13.6562L20.2157 19.6271C20.3173 20.0078 20.2087 20.4139 19.9301 20.6928L15.5639 25.0667C15.2848 25.3462 14.8776 25.4557 14.496 25.3535L8.54737 23.7595C8.1657 23.6573 7.86778 23.359 7.76575 22.977L6.17134 17.0063C6.06962 16.6255 6.17862 16.2195 6.45693 15.9406L7.40532 14.9904C7.33893 14.7154 7.25874 14.4429 7.17335 14.1521C7.14231 14.0475 7.11082 13.9403 7.07889 13.83C6.95993 13.4168 6.84143 12.9708 6.7789 12.5139C6.76331 12.3983 6.75113 12.2819 6.74326 12.1646L4.71238 14.199C3.81285 15.1002 3.46132 16.412 3.78998 17.6422L5.38424 23.6129C5.71349 24.8463 6.67643 25.8102 7.90951 26.1403L13.858 27.7344C15.091 28.0645 16.4067 27.7115 17.3084 26.8081L21.6746 22.4344C22.574 21.5332 22.9257 20.2213 22.5972 18.9914L21.0028 13.0203C20.6735 11.7869 19.7109 10.8235 18.4778 10.4931L14.7198 9.48618L12.7071 11.4985ZM13.2979 9.1051L12.5291 8.89911C11.2963 8.56868 9.98064 8.92169 9.07859 9.82523L8.52895 10.3761L8.53266 10.379C8.02936 11.0164 7.94738 11.6466 8.04243 12.3416C8.09159 12.7023 8.18812 13.0745 8.3041 13.4767C8.33113 13.5705 8.3595 13.6673 8.38876 13.7658C8.40673 13.8268 8.42499 13.8885 8.44282 13.9508L10.823 11.5665C10.8572 11.5324 10.8931 11.5009 10.9308 11.4719L13.2979 9.1051Z" fill="#043B6D"/>
<path fill-rule="evenodd" clip-rule="evenodd" d="M52.3858 12.2662C53.7956 12.2662 54.9123 12.6779 55.7356 13.5015C56.5591 14.3109 56.9709 15.5321 56.9709 17.1654V23.5719H54.3539V17.5005C54.3539 16.5234 54.1377 15.7905 53.705 15.3019C53.2723 14.7995 52.6512 14.5484 51.8414 14.5484C50.9622 14.5484 50.2574 14.8415 49.7269 15.4276C49.1966 15.9999 48.9313 16.8234 48.9313 17.8982V23.5719H46.3143V17.5005C46.3143 16.5234 46.098 15.7905 45.6653 15.3019C45.2327 14.7995 44.6114 14.5484 43.8018 14.5484C42.9088 14.5484 42.197 14.8346 41.6663 15.4068C41.15 15.979 40.8917 16.8096 40.8917 17.8982V23.5719H38.2747V12.3919H40.7664V13.8155C41.1847 13.3131 41.7084 12.9293 42.3364 12.6641C42.9646 12.3988 43.6625 12.2662 44.43 12.2662C45.2674 12.2662 46.0073 12.4269 46.6493 12.7477C47.3053 13.0547 47.8217 13.5155 48.1987 14.1297C48.6591 13.5433 49.2522 13.0897 49.9782 12.7686C50.7039 12.4339 51.5066 12.2662 52.3858 12.2662ZM60.3152 12.3919H62.9323V23.5719H60.3152V12.3919ZM61.6343 10.5494C61.1597 10.5494 60.7617 10.4029 60.4409 10.1099C60.1197 9.80258 59.9593 9.42581 59.9593 8.97924C59.9593 8.53252 60.1197 8.16257 60.4409 7.86956C60.7617 7.56259 61.1597 7.40918 61.6343 7.40918C62.1087 7.40918 62.5065 7.55562 62.8274 7.84878C63.1485 8.12783 63.3089 8.4838 63.3089 8.91642C63.3089 9.37695 63.1485 9.76783 62.8274 10.0891C62.5205 10.396 62.1228 10.5494 61.6343 10.5494ZM77.4636 12.3919V21.876C77.4636 25.8122 75.4535 27.7802 71.4338 27.7802C70.3592 27.7802 69.3401 27.6406 68.3768 27.3614C67.4139 27.0962 66.6185 26.7054 65.9903 26.1888L67.1626 24.2207C67.6511 24.6257 68.2653 24.9468 69.0052 25.184C69.7587 25.4354 70.5195 25.5607 71.2872 25.5607C72.5154 25.5607 73.4158 25.2818 73.988 24.7236C74.5602 24.1652 74.8462 23.3138 74.8462 22.169V21.5829C74.3998 22.0715 73.8554 22.4413 73.2132 22.6925C72.5712 22.9437 71.8664 23.0693 71.0987 23.0693C70.0379 23.0693 69.075 22.8461 68.2095 22.3995C67.3581 21.9389 66.681 21.2969 66.1789 20.4732C65.6903 19.6499 65.4458 18.7079 65.4458 17.6468C65.4458 16.5862 65.6903 15.6509 66.1789 14.8415C66.681 14.0179 67.3581 13.3829 68.2095 12.9363C69.075 12.4897 70.0379 12.2662 71.0987 12.2662C71.9084 12.2662 72.641 12.3988 73.297 12.6641C73.9671 12.9293 74.5255 13.3342 74.972 13.8783V12.3919H77.4636ZM71.4966 20.8503C72.4876 20.8503 73.297 20.5571 73.9252 19.9711C74.5672 19.3707 74.8883 18.596 74.8883 17.6468C74.8883 16.7117 74.5672 15.9509 73.9252 15.3647C73.297 14.7787 72.4876 14.4856 71.4966 14.4856C70.4915 14.4856 69.6681 14.7787 69.0261 15.3647C68.3979 15.9509 68.0838 16.7117 68.0838 17.6468C68.0838 18.596 68.3979 19.3707 69.0261 19.9711C69.6681 20.5571 70.4915 20.8503 71.4966 20.8503ZM83.3955 14.0249C84.1488 12.8525 85.4751 12.2662 87.3731 12.2662V14.7578C87.1502 14.7158 86.9478 14.695 86.7661 14.695C85.7471 14.695 84.9519 14.9949 84.3796 15.5951C83.8071 16.1814 83.5213 17.0328 83.5213 18.1495V23.5719H80.904V12.3919H83.3955V14.0249ZM100.42 12.3919V23.5719H97.9285V22.1273C97.4956 22.6575 96.9584 23.0555 96.3163 23.3207C95.6879 23.586 94.9908 23.7186 94.2231 23.7186C93.1343 23.7186 92.1572 23.4811 91.2916 23.0065C90.4403 22.5321 89.7707 21.8621 89.2819 20.9967C88.8076 20.1315 88.5701 19.1265 88.5701 17.9818C88.5701 16.8374 88.8076 15.8394 89.2819 14.988C89.7707 14.1227 90.4403 13.4527 91.2916 12.978C92.1572 12.5037 93.1343 12.2662 94.2231 12.2662C94.9486 12.2662 95.6114 12.3919 96.212 12.6431C96.8256 12.8943 97.356 13.2644 97.8028 13.753V12.3919H100.42ZM94.5157 21.4783C95.4788 21.4783 96.275 21.1572 96.9024 20.5152C97.5309 19.8731 97.8447 19.0286 97.8447 17.9818C97.8447 16.9349 97.5309 16.0905 96.9024 15.4485C96.275 14.8065 95.4788 14.4856 94.5157 14.4856C93.5525 14.4856 92.7572 14.8065 92.1289 15.4485C91.5152 16.0905 91.2079 16.9349 91.2079 17.9818C91.2079 19.0286 91.5152 19.8731 92.1289 20.5152C92.7572 21.1572 93.5525 21.4783 94.5157 21.4783ZM110.188 12.2662C111.598 12.2662 112.728 12.6779 113.58 13.5015C114.431 14.3249 114.856 15.5464 114.856 17.1654V23.5719H112.24V17.5005C112.24 16.5234 112.009 15.7905 111.549 15.3019C111.088 14.7995 110.432 14.5484 109.581 14.5484C108.618 14.5484 107.857 14.8415 107.298 15.4276C106.741 15.9999 106.461 16.8304 106.461 17.919V23.5719H103.844V12.3919H106.335V13.8366C106.768 13.32 107.312 12.9293 107.969 12.6641C108.625 12.3988 109.364 12.2662 110.188 12.2662ZM118.176 12.3919H120.794V23.5719H118.176V12.3919ZM119.496 10.5494C119.021 10.5494 118.623 10.4029 118.302 10.1099C117.981 9.80258 117.821 9.42581 117.821 8.97924C117.821 8.53252 117.981 8.16257 118.302 7.86956C118.623 7.56259 119.021 7.40918 119.496 7.40918C119.97 7.40918 120.368 7.55562 120.689 7.84878C121.01 8.12783 121.171 8.4838 121.171 8.91642C121.171 9.37695 121.01 9.76783 120.689 10.0891C120.381 10.396 119.984 10.5494 119.496 10.5494ZM135.053 12.3919V23.5719H132.561V22.1481C132.142 22.6507 131.619 23.0415 130.991 23.3207C130.363 23.586 129.686 23.7186 128.96 23.7186C127.466 23.7186 126.287 23.3068 125.422 22.4833C124.57 21.6457 124.144 20.4107 124.144 18.7777V12.3919H126.762V18.4214C126.762 19.4267 126.985 20.18 127.431 20.6826C127.893 21.1711 128.542 21.4155 129.379 21.4155C130.314 21.4155 131.054 21.1293 131.598 20.5571C132.156 19.9711 132.436 19.1335 132.436 18.0446V12.3919H135.053ZM152.59 12.2662C154 12.2662 155.117 12.6779 155.94 13.5015C156.763 14.3109 157.175 15.5321 157.175 17.1654V23.5719H154.558V17.5005C154.558 16.5234 154.342 15.7905 153.909 15.3019C153.476 14.7995 152.855 14.5484 152.046 14.5484C151.166 14.5484 150.461 14.8415 149.931 15.4276C149.401 15.9999 149.136 16.8234 149.136 17.8982V23.5719H146.518V17.5005C146.518 16.5234 146.302 15.7905 145.869 15.3019C145.437 14.7995 144.816 14.5484 144.006 14.5484C143.113 14.5484 142.401 14.8346 141.871 15.4068C141.354 15.979 141.096 16.8096 141.096 17.8982V23.5719H138.479V12.3919H140.97V13.8155C141.389 13.3131 141.913 12.9293 142.541 12.6641C143.168 12.3988 143.867 12.2662 144.634 12.2662C145.472 12.2662 146.211 12.4269 146.853 12.7477C147.51 13.0547 148.026 13.5155 148.403 14.1297C148.864 13.5433 149.457 13.0897 150.182 12.7686C150.908 12.4339 151.711 12.2662 152.59 12.2662Z" fill="#043B6D"/>
</g>
</svg>
