<svg width="375" height="820" viewBox="0 0 375 820" fill="none" xmlns="http://www.w3.org/2000/svg">
<g opacity="0.3">
<path d="M352.22 158.643C351.031 196.523 351.389 234.443 353.307 272.302C320.79 271.266 288.541 270.949 256.342 271.789C255.655 233.438 255.881 195.672 255.87 157.484C287.187 157.484 318.504 157.474 352.22 158.643Z" fill="white"/>
<path d="M353.307 272.805C353.297 272.805 353.297 272.805 353.286 272.805C318.001 271.677 286.295 271.513 256.342 272.292C256.209 272.302 256.075 272.241 255.983 272.149C255.891 272.056 255.829 271.933 255.829 271.79C255.286 241.283 255.316 210.582 255.347 180.895C255.358 173.102 255.368 165.298 255.358 157.485C255.358 157.351 255.409 157.228 255.501 157.126C255.593 157.033 255.727 156.982 255.86 156.982C286.654 156.972 318.493 156.972 352.23 158.141C352.507 158.151 352.722 158.387 352.712 158.664C351.533 196.369 351.892 234.597 353.799 272.282C353.809 272.425 353.758 272.559 353.656 272.661C353.574 272.743 353.44 272.805 353.307 272.805ZM294.303 270.805C312.823 270.805 332.183 271.133 352.774 271.779C350.907 234.413 350.538 196.523 351.707 159.125C318.35 157.987 286.849 157.987 256.373 157.987C256.373 165.637 256.362 173.276 256.362 180.895C256.332 210.417 256.301 240.945 256.834 271.267C268.986 270.959 281.445 270.805 294.303 270.805Z" fill="#1C1C1C"/>
<path d="M342.95 164.478C341.001 197.64 342.078 230.259 344.242 263.411C317.837 262.97 291.534 262.529 265.314 263.514C265.027 230.085 264.278 197.312 263.704 164.375C291.145 164.652 317.621 164.724 342.95 164.478Z" fill="white"/>
<path d="M265.314 264.016C265.181 264.016 265.058 263.965 264.965 263.873C264.863 263.781 264.812 263.647 264.812 263.514C264.596 238.862 264.135 214.18 263.673 190.308C263.509 181.664 263.345 173.03 263.191 164.385C263.191 164.252 263.243 164.119 263.335 164.026C263.427 163.934 263.571 163.883 263.694 163.883C293.39 164.17 319.313 164.201 342.929 163.985C343.073 163.985 343.206 164.037 343.298 164.139C343.391 164.242 343.442 164.375 343.432 164.519C341.74 193.292 342.14 223.789 344.724 263.391C344.734 263.534 344.683 263.668 344.59 263.77C344.498 263.873 344.354 263.924 344.221 263.924L343.842 263.914C318.062 263.483 291.411 263.042 265.314 264.027C265.324 264.016 265.324 264.016 265.314 264.016ZM264.207 164.888C264.36 173.358 264.514 181.828 264.678 190.288C265.129 213.996 265.591 238.504 265.806 262.991C291.698 262.037 318.134 262.468 343.708 262.899C341.165 223.768 340.765 193.518 342.416 164.98C319.067 165.206 293.472 165.175 264.207 164.888Z" fill="#1C1C1C"/>
<path d="M328.676 155.965C325.456 155.812 315.796 155.709 312.525 155.648C311.028 154.253 312.689 147.301 310.064 144.716C308.208 142.891 305.368 142.83 304.517 142.85C302.702 142.891 300.405 143.035 298.856 144.511C296.077 147.147 296.775 155.073 296.19 155.627C292.714 155.668 282.511 155.74 279.024 155.832C279.024 166.292 283.28 168.066 293.483 168.383C309.357 168.876 319.139 168.814 323.18 167.153C328.266 165.051 329.568 160.898 328.676 155.965ZM300.435 155.576C300.435 153.361 299.871 148.377 304.629 148.377C307.952 148.377 307.224 155.053 307.531 155.576C305.173 155.566 302.814 155.566 300.435 155.576Z" fill="#5EACF3"/>
<path d="M307.377 169.144C303.388 169.144 298.753 169.041 293.452 168.877C283.115 168.559 278.501 166.601 278.501 155.824C278.501 155.547 278.716 155.331 278.993 155.321C281.341 155.26 286.715 155.208 291.032 155.177C292.96 155.157 294.672 155.147 295.831 155.126C295.903 154.747 295.954 153.967 295.995 153.27C296.179 150.409 296.456 146.082 298.497 144.144C300.291 142.442 303.029 142.38 304.496 142.349C305.634 142.329 308.474 142.472 310.402 144.359C312.043 145.969 312.145 148.922 312.248 151.527C312.299 153.014 312.361 154.552 312.75 155.147C313.643 155.167 314.914 155.177 316.38 155.198C320.585 155.26 326.348 155.342 328.696 155.454C328.932 155.465 329.127 155.639 329.168 155.865C330.203 161.638 328.255 165.586 323.353 167.595C320.605 168.734 315.283 169.144 307.377 169.144ZM279.516 156.316C279.639 165.75 283.351 167.565 293.483 167.872C309.151 168.354 318.995 168.313 322.974 166.673C327.26 164.909 329.034 161.474 328.245 156.449C325.702 156.346 320.339 156.264 316.37 156.213C314.781 156.193 313.407 156.172 312.515 156.152C312.392 156.152 312.269 156.1 312.186 156.018C311.387 155.27 311.325 153.639 311.253 151.568C311.161 149.148 311.069 146.41 309.715 145.077C308.064 143.457 305.542 143.323 304.537 143.354C302.691 143.395 300.609 143.549 299.204 144.872C297.441 146.543 297.174 150.789 297.01 153.332C296.897 155.116 296.846 155.69 296.528 155.988C296.436 156.07 296.313 156.121 296.19 156.121C295.041 156.131 293.175 156.152 291.052 156.172C287.012 156.213 282.049 156.264 279.516 156.316ZM307.531 156.08C305.203 156.059 302.824 156.059 300.445 156.08C300.312 156.08 300.189 156.029 300.086 155.936C299.994 155.844 299.943 155.711 299.943 155.577C299.943 155.383 299.943 155.167 299.933 154.942C299.902 153.219 299.851 150.625 301.358 149.086C302.137 148.287 303.245 147.887 304.639 147.887C307.695 147.887 307.859 152.296 307.941 154.419C307.951 154.808 307.972 155.249 308.003 155.372C308.074 155.516 308.064 155.69 307.982 155.834C307.88 155.988 307.716 156.08 307.531 156.08ZM303.798 155.065C304.855 155.065 305.911 155.065 306.957 155.075C306.946 154.911 306.936 154.706 306.926 154.449C306.823 151.558 306.465 148.881 304.629 148.881C303.501 148.881 302.66 149.179 302.065 149.784C300.855 151.024 300.896 153.362 300.927 154.921C300.927 154.972 300.927 155.024 300.927 155.075C301.891 155.065 302.845 155.065 303.798 155.065Z" fill="#1C1C1C"/>
<path d="M279.292 192.514C279.281 192.514 279.281 192.514 279.292 192.514C279.097 192.514 278.922 192.401 278.84 192.237C277.856 190.258 276.656 188.371 275.272 186.628C275.097 186.413 275.139 186.095 275.354 185.921C275.569 185.746 275.887 185.787 276.061 186.003C277.292 187.541 278.389 189.202 279.312 190.935L283.506 183.254C283.639 183.008 283.947 182.926 284.193 183.06C284.439 183.193 284.521 183.501 284.398 183.747L279.743 192.258C279.64 192.422 279.466 192.514 279.292 192.514Z" fill="#1C1C1C"/>
<path d="M279.292 214.89C279.281 214.89 279.281 214.89 279.292 214.89C279.097 214.89 278.922 214.777 278.84 214.613C277.856 212.634 276.656 210.747 275.272 209.004C275.097 208.788 275.139 208.471 275.354 208.296C275.569 208.122 275.887 208.163 276.061 208.378C277.292 209.916 278.389 211.578 279.312 213.311L283.506 205.63C283.639 205.384 283.947 205.292 284.193 205.435C284.439 205.569 284.521 205.876 284.398 206.122L279.743 214.633C279.64 214.787 279.466 214.89 279.292 214.89Z" fill="#1C1C1C"/>
<path d="M277.588 237.252C277.578 237.252 277.578 237.252 277.588 237.252C277.394 237.252 277.219 237.14 277.137 236.975C276.153 234.996 274.953 233.11 273.569 231.366C273.394 231.151 273.435 230.833 273.651 230.659C273.866 230.484 274.184 230.526 274.358 230.741C275.589 232.279 276.686 233.94 277.609 235.673L281.803 227.993C281.936 227.747 282.244 227.665 282.49 227.798C282.736 227.931 282.818 228.239 282.695 228.485L278.04 236.996C277.937 237.15 277.773 237.252 277.588 237.252Z" fill="#1C1C1C"/>
<path d="M299.719 192.881C297.483 192.881 295.237 192.871 293.012 192.85C292.735 192.85 292.51 192.625 292.51 192.348C292.51 192.071 292.735 191.846 293.012 191.846C306.415 191.958 319.991 191.723 333.373 191.138C333.65 191.118 333.886 191.343 333.896 191.62C333.907 191.897 333.691 192.133 333.414 192.143C322.258 192.635 310.947 192.881 299.719 192.881Z" fill="#1C1C1C"/>
<path d="M299.719 214.818C297.483 214.818 295.237 214.808 293.012 214.787C292.735 214.787 292.51 214.561 292.51 214.285C292.51 214.008 292.735 213.782 293.012 213.782C306.404 213.905 319.991 213.659 333.373 213.075C333.65 213.064 333.886 213.28 333.896 213.557C333.907 213.833 333.691 214.069 333.414 214.08C322.258 214.572 310.947 214.818 299.719 214.818Z" fill="#1C1C1C"/>
<path d="M300.334 236.759C298.088 236.759 295.853 236.749 293.607 236.728C293.33 236.728 293.104 236.503 293.104 236.226C293.104 235.949 293.33 235.724 293.607 235.724C306.999 235.847 320.586 235.6 333.968 235.016C334.245 235.006 334.481 235.221 334.491 235.498C334.501 235.775 334.286 236.011 334.009 236.021C322.863 236.513 311.552 236.759 300.334 236.759Z" fill="#1C1C1C"/>
<g opacity="0.1294">
<path d="M330.542 160.971C330.511 160.418 330.049 159.946 329.516 159.802C328.368 159.515 327.691 160.459 327.599 161.474C327.578 161.73 327.229 162.694 327.27 162.632C327.219 162.766 327.147 162.95 326.881 163.443C326.799 163.668 326.265 164.488 326.112 164.735C325.968 164.909 325.753 165.104 325.65 165.196C325.096 165.596 324.532 165.986 323.917 166.293C323.066 166.591 322.153 166.703 321.282 166.98C320.523 167.226 319.785 167.524 318.995 167.678C317.877 167.719 316.77 167.913 315.662 168.026C313.827 168.231 311.868 168.201 311.489 168.19C308.505 168.18 305.531 168.529 302.547 168.529C299.44 168.375 296.343 168.18 293.236 168.006C289.975 167.76 288.868 167.678 286.356 166.714C286.581 166.806 286.756 166.898 286.407 166.734C286.386 166.724 286.356 166.714 286.335 166.703C285.515 166.355 284.756 165.781 283.884 165.616C282.121 165.299 281.228 167.821 282.808 168.683C285.381 170.036 287.925 171.584 290.868 172.025C293.523 172.456 296.231 172.477 298.917 172.559C301.081 172.692 303.244 172.764 305.408 172.641C308.146 172.579 310.187 172.456 311.786 172.2C312.443 172.159 316.319 171.677 316.698 171.574C318.349 171.328 318.4 171.42 320.626 170.928C322.236 170.374 323.876 169.913 325.466 169.318C326.183 168.99 326.778 168.457 327.414 167.985C327.301 168.067 327.188 168.16 327.076 168.242C328.347 167.196 328.111 167.349 328.901 166.211C329.608 164.806 329.844 164.283 330.367 162.222C330.429 161.802 330.624 161.381 330.542 160.971Z" fill="#1C1C1C"/>
</g>
<g opacity="0.1294">
<path d="M286.366 166.713C286.355 166.713 286.345 166.703 286.335 166.703C286.335 166.703 286.335 166.703 286.345 166.703C286.355 166.703 286.366 166.703 286.366 166.713Z" fill="#1C1C1C"/>
</g>
<g opacity="0.1294">
<path d="M346.281 243.004C346.025 239.59 346.107 236.165 345.81 232.75C345.471 227.766 344.938 222.793 344.723 217.799C344.784 215.072 344.189 212.375 344.21 209.647C344.077 205.473 344.394 201.3 344.518 197.137C344.6 191.415 344.425 185.693 344.958 179.981C344.999 176.761 345.02 173.552 345.461 170.352C345.533 169.265 345.492 168.168 345.574 167.071C345.584 166.968 345.584 166.856 345.594 166.753C345.615 166.63 345.625 166.425 345.584 166.261C345.553 165.635 345.02 165.092 344.425 164.938C341.38 164.415 342.313 169.204 341.892 171.347C341.39 174.495 341.595 177.674 341.4 180.832C340.877 186.729 341.41 192.645 341.287 198.552C341.257 202.653 341.093 206.755 341.103 210.857C341.134 212.887 341.523 214.897 341.544 216.938C341.616 221.019 341.944 225.09 342.056 229.171C342.385 234.575 342.549 239.99 342.559 245.404C342.867 250.377 343.092 255.361 342.959 260.344C342.867 261.749 342.949 261.185 342.579 262.621C341.78 262.539 338.888 262.293 337.093 262.447C332.469 262.447 327.844 262.344 323.219 262.406C319.794 262.457 316.369 262.764 312.944 262.795C307.756 262.816 302.567 262.846 297.378 262.754C295.235 262.693 293.092 262.405 290.939 262.611C285.863 262.877 280.777 262.641 275.701 262.498C273.26 262.19 270.83 262.395 268.389 262.457C267.62 262.416 268.215 262.488 266.718 262.241C266.215 262.108 265.672 262.18 265.231 262.436C263.785 263.216 264.072 265.533 265.692 265.912C268.943 266.671 272.307 266.22 275.598 266.61C279.925 266.774 284.263 266.856 288.59 266.835C291.503 266.702 294.405 266.641 297.317 266.753C306.597 266.917 315.877 266.825 325.137 266.271C330.356 265.964 335.586 266.312 340.805 266.025C341.995 265.943 343.195 266.21 344.384 266.025C345.102 265.851 345.584 265.236 345.697 264.559C345.851 264.374 345.974 264.159 346.045 263.892C346.794 261.513 346.763 258.991 346.886 256.52C347.05 251.997 346.599 247.506 346.281 243.004Z" fill="#1C1C1C"/>
</g>
<path d="M289.566 228.95C288.479 228.181 287.392 227.412 286.305 226.632C280.952 222.818 275.61 219.003 270.247 215.209C268.473 213.948 266.689 212.697 264.904 211.446C267.868 203.704 278.748 200.094 287.556 206.319C294.006 210.872 297.175 222.674 289.566 228.95Z" fill="white"/>
<path d="M289.567 229.452C289.464 229.452 289.361 229.421 289.279 229.36L287.844 228.344C287.239 227.914 286.624 227.483 286.019 227.042L281.445 223.781C277.62 221.054 273.795 218.326 269.96 215.619C268.494 214.573 267.017 213.537 265.541 212.501L264.618 211.855C264.433 211.722 264.351 211.476 264.433 211.261C265.869 207.497 269.109 204.606 273.303 203.324C278.143 201.847 283.445 202.791 287.844 205.898C291.699 208.615 294.304 213.64 294.499 218.695C294.663 222.971 293.022 226.745 289.895 229.329C289.792 229.411 289.679 229.452 289.567 229.452ZM265.51 211.261L266.105 211.681C267.581 212.717 269.058 213.752 270.535 214.798C274.37 217.516 278.194 220.243 282.019 222.961L286.593 226.222C287.198 226.652 287.813 227.083 288.418 227.514L289.536 228.303C292.233 225.935 293.627 222.551 293.484 218.726C293.309 214.05 290.807 209.22 287.249 206.718C283.096 203.785 278.112 202.903 273.58 204.277C269.827 205.436 266.904 207.969 265.51 211.261Z" fill="#1C1C1C"/>
<path d="M220.933 228.946C222.02 228.177 223.107 227.408 224.194 226.629C229.547 222.814 234.889 218.999 240.252 215.205C242.026 213.944 243.81 212.693 245.595 211.442C242.631 203.7 231.751 200.09 222.943 206.315C216.503 210.868 213.335 222.67 220.933 228.946Z" fill="white"/>
<path d="M220.933 229.449C220.82 229.449 220.708 229.408 220.615 229.337C217.488 226.753 215.847 222.979 216.011 218.703C216.196 213.648 218.811 208.633 222.666 205.905C227.076 202.798 232.377 201.855 237.207 203.332C241.401 204.613 244.641 207.505 246.077 211.269C246.159 211.484 246.087 211.73 245.892 211.863L244.969 212.509C243.493 213.545 242.016 214.581 240.55 215.627C236.715 218.344 232.89 221.061 229.065 223.789L224.492 227.05C223.887 227.481 223.271 227.911 222.666 228.352L221.231 229.367C221.138 229.419 221.036 229.449 220.933 229.449ZM232.613 203.65C229.373 203.65 226.112 204.695 223.241 206.726C219.693 209.238 217.19 214.058 217.006 218.734C216.862 222.548 218.267 225.932 220.954 228.311L222.072 227.522C222.677 227.091 223.292 226.66 223.897 226.23L228.47 222.969C232.295 220.241 236.12 217.513 239.955 214.806C241.432 213.76 242.908 212.725 244.385 211.689L244.98 211.269C243.585 207.967 240.663 205.444 236.899 204.296C235.515 203.865 234.059 203.65 232.613 203.65Z" fill="#1C1C1C"/>
<path d="M233.956 273.223C232.654 277.335 231.69 281.559 231.075 285.825C230.911 286.994 231.106 288.625 232.275 288.717C233.054 288.789 233.649 288.05 234.079 287.394C236.346 283.928 238.479 280.38 240.499 276.771C240.622 276.555 240.745 276.309 240.673 276.073C240.611 275.838 240.376 275.694 240.17 275.571C238.499 274.586 236.828 273.612 233.956 273.223Z" fill="white"/>
<path d="M232.377 289.231C232.326 289.231 232.285 289.231 232.234 289.221C231.772 289.18 231.383 288.964 231.085 288.595C230.357 287.682 230.511 286.185 230.573 285.744C231.188 281.458 232.172 277.192 233.474 273.06C233.546 272.824 233.782 272.68 234.018 272.711C236.992 273.111 238.735 274.137 240.427 275.121C240.642 275.244 241.032 275.48 241.155 275.921C241.278 276.372 241.052 276.782 240.929 276.997C238.92 280.607 236.756 284.186 234.49 287.652C234.223 288.103 233.485 289.231 232.377 289.231ZM234.305 273.778C233.085 277.726 232.162 281.797 231.567 285.888C231.444 286.749 231.567 287.58 231.875 287.97C231.998 288.123 232.131 288.195 232.316 288.216C232.849 288.246 233.331 287.611 233.659 287.119C235.905 283.673 238.058 280.115 240.058 276.526C240.171 276.321 240.191 276.239 240.191 276.208C240.181 276.167 240.089 276.105 239.924 276.003C238.335 275.07 236.828 274.188 234.305 273.778Z" fill="#1C1C1C"/>
<path d="M274.471 273.227C275.774 277.339 276.737 281.563 277.353 285.829C277.517 286.998 277.322 288.629 276.153 288.721C275.374 288.793 274.779 288.054 274.348 287.398C272.082 283.932 269.949 280.384 267.929 276.775C267.806 276.559 267.683 276.313 267.755 276.077C267.816 275.841 268.042 275.698 268.257 275.575C269.918 274.59 271.59 273.616 274.471 273.227Z" fill="white"/>
<path d="M276.05 289.232C274.943 289.232 274.204 288.104 273.927 287.674C271.672 284.208 269.498 280.629 267.488 277.02C267.365 276.804 267.139 276.394 267.262 275.943C267.385 275.502 267.785 275.266 267.99 275.143C269.682 274.159 271.425 273.133 274.399 272.733C274.645 272.692 274.871 272.846 274.943 273.082C276.245 277.214 277.219 281.48 277.845 285.766C277.906 286.207 278.06 287.705 277.332 288.617C277.045 288.986 276.645 289.202 276.183 289.243C276.142 289.222 276.091 289.232 276.05 289.232ZM274.112 273.779C271.59 274.189 270.082 275.071 268.493 276.004C268.329 276.097 268.236 276.168 268.226 276.209C268.226 276.24 268.236 276.312 268.359 276.527C270.359 280.116 272.512 283.675 274.758 287.12C275.076 287.612 275.568 288.258 276.101 288.217C276.286 288.197 276.43 288.125 276.542 287.971C276.85 287.581 276.973 286.751 276.85 285.89C276.265 281.808 275.343 277.737 274.112 273.779Z" fill="#1C1C1C"/>
<path d="M254.833 281.687C273.437 281.687 288.518 266.845 288.518 248.535C288.518 230.226 273.437 215.383 254.833 215.383C236.229 215.383 221.147 230.226 221.147 248.535C221.147 266.845 236.229 281.687 254.833 281.687Z" fill="white"/>
<path d="M254.833 282.188C235.986 282.188 220.646 267.094 220.646 248.534C220.646 229.984 235.986 214.879 254.833 214.879C273.681 214.879 289.021 229.973 289.021 248.534C289.021 267.094 273.681 282.188 254.833 282.188ZM254.833 215.894C236.54 215.894 221.65 230.537 221.65 248.544C221.65 266.54 236.54 281.194 254.833 281.194C273.127 281.194 288.016 266.55 288.016 248.544C288.016 230.537 273.127 215.894 254.833 215.894Z" fill="#1C1C1C"/>
<path d="M254.834 277.248C270.946 277.248 284.007 264.394 284.007 248.536C284.007 232.679 270.946 219.824 254.834 219.824C238.722 219.824 225.66 232.679 225.66 248.536C225.66 264.394 238.722 277.248 254.834 277.248Z" fill="white"/>
<path d="M254.834 277.75C238.468 277.75 225.147 264.644 225.147 248.535C225.147 232.425 238.458 219.32 254.834 219.32C271.2 219.32 284.51 232.425 284.51 248.535C284.52 264.644 271.2 277.75 254.834 277.75ZM254.834 220.325C239.022 220.325 226.163 232.979 226.163 248.535C226.163 264.091 239.022 276.745 254.834 276.745C270.646 276.745 283.505 264.091 283.505 248.535C283.505 232.989 270.646 220.325 254.834 220.325Z" fill="#1C1C1C"/>
<path d="M254.464 254.945L267.497 243.06L272.081 235.359L264.011 239.902L251.798 252.392L254.464 254.945Z" fill="#5EACF3"/>
<path d="M254.464 255.446C254.341 255.446 254.218 255.395 254.116 255.303L251.45 252.75C251.357 252.657 251.296 252.524 251.296 252.391C251.296 252.257 251.347 252.124 251.439 252.032L263.652 239.542C263.683 239.511 263.724 239.48 263.765 239.46L271.835 234.928C272.03 234.815 272.287 234.856 272.44 235.01C272.604 235.174 272.625 235.42 272.512 235.615L267.928 243.316C267.908 243.357 267.867 243.398 267.836 243.428L254.803 255.313C254.711 255.405 254.588 255.446 254.464 255.446ZM252.516 252.38L254.475 254.257L267.108 242.741L270.687 236.732L264.329 240.311L252.516 252.38Z" fill="#1C1C1C"/>
<g opacity="0.1294">
<path d="M256.219 247.918C256.209 248.318 256.475 248.697 256.845 248.831C256.855 248.851 256.875 248.872 256.886 248.892C257.244 249.426 257.142 249.784 257.573 250.646C258.137 251.497 259.521 250.841 259.254 249.866C259.008 249.015 258.772 248.092 258.147 247.426C257.491 246.749 256.301 246.841 256.219 247.918Z" fill="#1C1C1C"/>
</g>
<path d="M254.659 252.062C254.526 252.062 254.393 252.01 254.29 251.908L236.304 232.937C236.109 232.732 236.119 232.414 236.325 232.23C236.53 232.035 236.847 232.045 237.032 232.25L255.028 251.231C255.223 251.436 255.213 251.754 255.008 251.939C254.916 252.021 254.782 252.062 254.659 252.062Z" fill="#1C1C1C"/>
<path d="M254.27 248.043C252.834 248.176 251.552 249.294 251.214 250.689C250.773 252.565 252.209 254.657 254.116 254.913C256.023 255.17 257.961 253.509 258.013 251.591C258.064 249.663 256.187 247.869 254.27 248.043Z" fill="white"/>
<path d="M254.516 255.446C254.362 255.446 254.208 255.436 254.054 255.416C253.008 255.272 252.024 254.647 251.378 253.703C250.722 252.75 250.486 251.611 250.732 250.576C251.111 248.966 252.588 247.694 254.229 247.54C255.264 247.448 256.351 247.848 257.192 248.638C258.064 249.448 258.546 250.524 258.515 251.601C258.495 252.657 257.972 253.693 257.1 254.452C256.341 255.098 255.429 255.446 254.516 255.446ZM254.321 248.545C253.091 248.658 251.993 249.612 251.716 250.812C251.532 251.57 251.716 252.411 252.209 253.129C252.701 253.847 253.429 254.319 254.188 254.421C254.957 254.524 255.777 254.257 256.444 253.693C257.1 253.129 257.49 252.36 257.51 251.591C257.531 250.812 257.151 249.991 256.505 249.386C255.869 248.771 255.07 248.474 254.321 248.545Z" fill="#1C1C1C"/>
<g opacity="0.1294">
<path d="M255.295 282.055H255.285C255.326 282.055 255.337 282.065 255.295 282.055Z" fill="#1C1C1C"/>
</g>
<g opacity="0.1294">
<path d="M238.447 277.729C239.206 278.109 239.985 278.457 240.765 278.785C242.354 279.442 243.985 279.975 245.636 280.426C245.902 280.498 246.015 280.713 246.005 280.928C246.548 281.051 247.102 281.144 247.656 281.216C249.768 281.615 251.911 281.79 254.054 281.728C254.167 281.841 254.321 281.923 254.516 281.954C254.608 281.974 255.141 282.036 255.275 282.056C255.254 282.056 255.234 282.046 255.203 282.046C255.51 282.087 255.818 282.097 256.126 282.128C256.741 282.169 257.367 282.169 257.982 282.108C259.089 282.046 260.812 281.656 262.524 281.216C264.883 280.703 267.108 279.759 269.364 278.888C270.461 278.447 273.989 276.96 275.753 275.36C277.516 273.873 279.034 272.161 280.388 270.315C280.562 270.407 280.757 270.438 280.951 270.387C281.515 270.12 281.29 270.12 281.731 269.597C282.203 268.921 282.613 268.223 283.023 267.506C283.546 266.634 284.1 265.773 284.469 264.819C284.582 264.593 284.674 264.337 284.623 264.091C285.002 263.476 285.361 262.85 285.658 262.194C287.555 258.451 288.683 252.657 288.488 247.561C288.365 245.397 287.996 243.244 287.596 241.111C286.858 237.922 286.315 237.153 285.228 234.405C285.074 234.148 284.848 234.025 284.612 233.994C284.079 232.723 283.372 230.959 282.582 229.452C281.967 228.16 281.116 226.98 280.1 225.975C279.793 225.719 279.547 225.36 279.188 225.186C278.86 225.022 278.449 225.186 278.265 225.494C277.896 226.129 278.614 226.591 278.993 227.001C279.485 227.534 279.413 227.483 279.67 227.811C280.316 228.642 280.757 229.595 281.239 230.518C281.803 231.574 282.356 232.641 282.838 233.738C283.136 234.497 283.689 235.656 284.284 236.876C284.971 238.957 285.31 240.598 285.792 243.08C286.766 248.391 286.55 253.806 284.366 259.497C284.366 259.497 284.366 259.497 284.366 259.507C283.146 261.978 280.941 265.393 279.116 267.475C277.506 269.382 275.496 270.9 273.661 272.592C271.723 274.263 270.4 275.371 267.99 276.601C266.606 277.257 264.688 277.975 262.76 278.59C259.325 279.36 255.675 279.8 252.229 279.841C250.67 279.698 249.378 279.431 247.522 279.134C244.692 278.642 241.831 278.098 239.155 277.022C238.673 276.827 238.263 277.216 238.242 277.637C238.304 277.647 238.375 277.688 238.447 277.729Z" fill="#1C1C1C"/>
</g>
<path d="M255.234 226.885C254.957 226.885 254.731 226.66 254.731 226.383V222.292C254.731 222.015 254.957 221.789 255.234 221.789C255.511 221.789 255.736 222.015 255.736 222.292V226.383C255.736 226.66 255.511 226.885 255.234 226.885Z" fill="#1C1C1C"/>
<path d="M255.234 274.342C254.957 274.342 254.731 274.117 254.731 273.84V269.749C254.731 269.472 254.957 269.246 255.234 269.246C255.511 269.246 255.736 269.472 255.736 269.749V273.84C255.736 274.127 255.511 274.342 255.234 274.342Z" fill="#1C1C1C"/>
<path d="M281.004 248.575H276.913C276.636 248.575 276.41 248.35 276.41 248.073C276.41 247.796 276.636 247.57 276.913 247.57H281.004C281.281 247.57 281.507 247.796 281.507 248.073C281.507 248.35 281.291 248.575 281.004 248.575Z" fill="#1C1C1C"/>
<path d="M233.546 248.575H229.455C229.178 248.575 228.952 248.35 228.952 248.073C228.952 247.796 229.178 247.57 229.455 247.57H233.546C233.823 247.57 234.049 247.796 234.049 248.073C234.049 248.35 233.823 248.575 233.546 248.575Z" fill="#1C1C1C"/>
<path d="M252.435 203.034C251.225 203.126 249.974 203.352 249 204.07C248.026 204.798 247.431 206.151 247.913 207.259C248.436 208.469 249.923 208.9 251.225 209.023C253.266 209.218 257.06 209.576 259.07 209.177C261.049 208.787 262.3 207.218 261.828 205.29C261.643 204.521 260.987 203.937 260.29 203.578C259.582 203.219 254.394 202.88 252.435 203.034Z" fill="white"/>
<path d="M256.618 209.864C254.659 209.864 252.455 209.649 251.173 209.526C249.245 209.341 247.953 208.624 247.451 207.465C246.835 206.06 247.635 204.46 248.702 203.671C249.83 202.83 251.265 202.625 252.393 202.532C254.239 202.389 259.633 202.686 260.515 203.138C261.479 203.63 262.114 204.358 262.319 205.178C262.566 206.173 262.422 207.126 261.909 207.937C261.335 208.829 260.371 209.454 259.171 209.69C258.474 209.813 257.572 209.864 256.618 209.864ZM252.475 203.537C251.481 203.619 250.219 203.794 249.296 204.481C248.538 205.045 247.984 206.173 248.374 207.065C248.814 208.09 250.199 208.429 251.276 208.531C253.132 208.716 256.987 209.085 258.977 208.695C259.899 208.511 260.638 208.049 261.058 207.393C261.417 206.819 261.52 206.142 261.345 205.424C261.171 204.706 260.463 204.245 260.063 204.04C259.489 203.753 254.485 203.384 252.475 203.537Z" fill="#1C1C1C"/>
<path d="M254.68 215.995C254.393 215.995 254.178 215.77 254.178 215.483L254.25 209.289C254.25 209.012 254.475 208.797 254.752 208.797C254.752 208.797 254.752 208.797 254.762 208.797C255.039 208.797 255.265 209.022 255.254 209.31L255.183 215.503C255.183 215.77 254.957 215.995 254.68 215.995Z" fill="#1C1C1C"/>
<g opacity="0.1294">
<path d="M280.049 262.223C279.895 262.469 277.926 264.397 276.819 265.32C275.855 266.068 274.932 266.724 273.988 267.35C273.824 267.381 273.66 267.432 273.496 267.524C268.697 270.549 265.088 271.657 259.027 272.631C256.146 273.103 252.834 273.492 248.291 272.518C245.112 271.872 243.574 271.113 240.262 269.165C238.857 268.304 235.709 265.894 233.576 263.638C233.033 262.982 232.571 262.356 232.182 261.751C229.946 258.849 228.387 255.363 227.085 251.815C226.665 251.015 226.337 250.174 226.039 249.312C225.844 251.24 225.824 253.168 225.957 255.096C226.562 256.562 227.198 258.029 227.875 259.464C227.926 259.567 227.977 259.669 228.018 259.772C228.111 259.936 228.193 260.11 228.285 260.274C230.182 263.658 232.52 266.745 235.145 269.534C237.483 272.016 240.416 273.585 243.359 275.092C244.097 275.379 244.846 275.635 245.615 275.861C247.317 276.292 249.091 276.476 250.844 276.651C250.855 276.651 250.855 276.651 250.875 276.661C252.782 276.968 254.741 276.968 256.659 276.784C258.166 276.671 259.622 276.292 261.078 275.943C263.939 275.328 266.79 274.569 269.425 273.41C270.092 273 270.738 272.549 271.374 272.077C275.045 269.339 278.09 265.873 280.613 262.018C281.033 261.341 281.433 260.644 281.802 259.936C281.146 260.623 280.726 261.525 280.049 262.223Z" fill="#1C1C1C"/>
</g>
<path d="M222.759 225.379C222.749 225.379 222.749 225.379 222.738 225.379C222.646 225.369 222.585 225.287 222.595 225.195L224.543 207.711C224.553 207.619 224.635 207.557 224.728 207.568C224.82 207.578 224.882 207.66 224.871 207.752L222.923 225.236C222.923 225.308 222.841 225.379 222.759 225.379Z" fill="#1C1C1C"/>
<path d="M219.877 224.774C219.867 224.774 219.857 224.774 219.857 224.774C219.764 224.764 219.703 224.672 219.713 224.579L221.825 210.418C221.836 210.326 221.928 210.264 222.02 210.275C222.113 210.285 222.174 210.377 222.164 210.469L220.051 224.631C220.031 224.713 219.959 224.774 219.877 224.774Z" fill="#1C1C1C"/>
<path d="M218.215 220.376C218.205 220.376 218.205 220.376 218.194 220.376C218.102 220.366 218.041 220.284 218.051 220.191L218.666 215.567C218.676 215.474 218.758 215.413 218.851 215.423C218.943 215.433 219.005 215.515 218.994 215.608L218.379 220.232C218.369 220.314 218.297 220.376 218.215 220.376Z" fill="#1C1C1C"/>
<path d="M225.865 223.511C225.854 223.511 225.855 223.511 225.844 223.511C225.752 223.501 225.68 223.419 225.69 223.326L227.393 205.689C227.403 205.597 227.485 205.535 227.577 205.535C227.67 205.545 227.741 205.627 227.731 205.72L226.029 223.357C226.019 223.449 225.947 223.511 225.865 223.511Z" fill="#1C1C1C"/>
<path d="M228.758 221.359C228.748 221.359 228.748 221.359 228.737 221.359C228.645 221.348 228.584 221.266 228.594 221.174C229.25 215.985 229.804 210.715 230.235 205.505C230.245 205.413 230.327 205.352 230.419 205.352C230.511 205.362 230.583 205.444 230.573 205.536C230.132 210.745 229.578 216.026 228.932 221.215C228.912 221.297 228.84 221.359 228.758 221.359Z" fill="#1C1C1C"/>
<path d="M231.7 219.504C231.69 219.504 231.69 219.504 231.68 219.504C231.588 219.493 231.526 219.411 231.536 219.319C232.152 214.684 232.716 209.977 233.228 205.332C233.238 205.24 233.321 205.178 233.413 205.189C233.505 205.199 233.567 205.281 233.556 205.373C233.044 210.018 232.469 214.725 231.864 219.37C231.854 219.442 231.782 219.504 231.7 219.504Z" fill="#1C1C1C"/>
<path d="M234.92 216.94C234.91 216.94 234.91 216.94 234.9 216.94C234.808 216.93 234.736 216.848 234.746 216.755C235.115 213.105 235.597 209.413 236.182 205.793C236.192 205.701 236.284 205.64 236.377 205.66C236.469 205.67 236.53 205.763 236.52 205.855C235.936 209.475 235.454 213.146 235.084 216.796C235.074 216.878 235.002 216.94 234.92 216.94Z" fill="#1C1C1C"/>
<path d="M237.862 214.887C237.852 214.887 237.852 214.887 237.842 214.887C237.75 214.877 237.688 214.795 237.698 214.703C238.016 212.078 238.416 209.432 238.898 206.838C238.919 206.745 239.001 206.694 239.093 206.704C239.185 206.725 239.247 206.807 239.226 206.899C238.744 209.494 238.344 212.129 238.037 214.744C238.016 214.826 237.944 214.887 237.862 214.887Z" fill="#1C1C1C"/>
<path d="M241.144 212.623C241.133 212.623 241.133 212.623 241.123 212.623C241.031 212.613 240.969 212.531 240.98 212.439C241.133 211.218 241.328 209.988 241.585 208.778C241.605 208.686 241.687 208.624 241.779 208.645C241.872 208.665 241.933 208.747 241.913 208.839C241.667 210.039 241.462 211.259 241.318 212.48C241.298 212.562 241.226 212.623 241.144 212.623Z" fill="#1C1C1C"/>
<path d="M267.868 212.079C267.858 212.079 267.848 212.079 267.837 212.079C267.745 212.059 267.684 211.977 267.704 211.884L268.33 208.172C268.34 208.08 268.432 208.019 268.524 208.039C268.617 208.06 268.678 208.142 268.658 208.234L268.032 211.946C268.022 212.028 267.95 212.079 267.868 212.079Z" fill="#1C1C1C"/>
<path d="M270.596 213.783C270.586 213.783 270.575 213.783 270.575 213.783C270.483 213.773 270.422 213.681 270.432 213.588C270.801 211.055 271.242 208.482 271.734 205.969C271.755 205.877 271.837 205.815 271.929 205.836C272.021 205.856 272.083 205.939 272.062 206.031C271.57 208.543 271.129 211.107 270.76 213.64C270.75 213.732 270.678 213.783 270.596 213.783Z" fill="#1C1C1C"/>
<path d="M273.599 215.76C273.589 215.76 273.589 215.76 273.579 215.76C273.486 215.749 273.415 215.667 273.425 215.575C273.763 212.048 274.245 208.489 274.871 204.993C274.891 204.9 274.973 204.839 275.065 204.859C275.158 204.88 275.219 204.962 275.199 205.054C274.584 208.541 274.102 212.089 273.763 215.606C273.753 215.698 273.681 215.76 273.599 215.76Z" fill="#1C1C1C"/>
<path d="M276.287 217.943C276.276 217.943 276.276 217.943 276.266 217.943C276.174 217.933 276.112 217.851 276.112 217.758C276.574 213.431 277.066 209.042 277.579 204.725C277.589 204.633 277.671 204.561 277.763 204.582C277.856 204.592 277.917 204.674 277.907 204.766C277.394 209.083 276.892 213.462 276.44 217.789C276.44 217.882 276.369 217.943 276.287 217.943Z" fill="#1C1C1C"/>
<path d="M279.087 219.758C279.077 219.758 279.077 219.758 279.067 219.758C278.974 219.748 278.913 219.666 278.923 219.574C279.6 214.703 280.123 209.74 280.502 204.838C280.512 204.746 280.584 204.674 280.687 204.685C280.779 204.695 280.851 204.777 280.841 204.869C280.471 209.781 279.938 214.744 279.261 219.625C279.241 219.697 279.169 219.758 279.087 219.758Z" fill="#1C1C1C"/>
<path d="M281.772 221.584C281.762 221.584 281.762 221.584 281.751 221.584C281.659 221.574 281.598 221.492 281.598 221.4L283.249 206.018C283.259 205.926 283.341 205.854 283.433 205.875C283.525 205.885 283.587 205.967 283.587 206.059L281.936 221.441C281.926 221.523 281.854 221.584 281.772 221.584Z" fill="#1C1C1C"/>
<path d="M284.55 223.226H284.54C284.447 223.216 284.375 223.144 284.386 223.052C284.724 217.904 285.165 212.695 285.719 207.557C285.729 207.465 285.811 207.393 285.903 207.414C285.996 207.424 286.057 207.506 286.057 207.598C285.503 212.725 285.063 217.935 284.724 223.082C284.714 223.164 284.642 223.226 284.55 223.226Z" fill="#1C1C1C"/>
<path d="M287.657 226.129C287.647 226.129 287.647 226.129 287.657 226.129C287.555 226.129 287.483 226.047 287.493 225.955C287.709 220.376 288.006 214.716 288.344 209.137C288.355 209.045 288.426 208.963 288.519 208.984C288.611 208.994 288.683 209.066 288.672 209.158C288.324 214.736 288.037 220.386 287.821 225.965C287.811 226.057 287.739 226.129 287.657 226.129Z" fill="#1C1C1C"/>
<path d="M290.889 225.052C290.797 225.052 290.725 224.98 290.725 224.888C290.684 220.992 290.797 217.044 291.063 213.147C291.074 213.055 291.145 212.983 291.238 212.993C291.33 213.003 291.402 213.075 291.392 213.167C291.125 217.044 291.012 220.992 291.053 224.878C291.063 224.98 290.981 225.052 290.889 225.052Z" fill="#1C1C1C"/>
<g opacity="0.1294">
<path d="M260.125 206.509C260.043 206.561 259.961 206.612 259.869 206.663C259.746 206.704 259.612 206.745 259.479 206.776C258.915 206.909 257.397 207.022 256.075 206.971C254.506 206.961 251.696 206.53 251.101 206.479C250.199 206.386 249.307 206.027 248.415 206.027C247.276 206.13 247.174 207.832 248.271 208.109C251.624 208.755 255.08 209.298 258.505 208.94C259.223 208.847 259.961 208.776 260.658 208.56C261.099 208.437 261.571 208.201 261.684 207.719C261.95 206.837 260.904 206.027 260.125 206.509Z" fill="#1C1C1C"/>
</g>
<g opacity="0.1294">
<path d="M243.933 209.638C241.513 210.889 239.298 212.509 236.96 213.914C234.253 215.431 231.669 217.123 229.229 219.041C226.214 221.194 223.322 223.614 220.051 226.496C219.702 226.804 219.303 227.132 219.323 227.634C219.292 228.557 220.523 229.07 221.159 228.393C221.353 228.219 221.538 228.055 221.733 227.89C221.999 227.973 222.297 227.962 222.563 227.798C224.235 226.557 224.953 225.799 226.316 224.876C228.357 223.45 230.51 222.179 232.551 220.743C234.315 219.441 235.197 218.498 236.54 217.544C236.458 217.605 236.386 217.667 236.304 217.728C238.058 216.416 239.914 215.226 241.667 213.904C242.744 213.134 243.923 212.499 244.969 211.678C245.933 210.899 245.154 209.31 243.933 209.638Z" fill="#1C1C1C"/>
</g>
<g opacity="0.1294">
<path d="M290.436 226.406C290.036 226.201 289.667 225.914 289.298 225.648C289.267 225.627 289.247 225.607 289.226 225.596C289.114 225.504 288.991 225.412 288.878 225.32C284.181 221.546 276.367 216.378 270.656 211.938C269.794 211.394 268.954 210.769 268.031 210.328C267.805 209.897 267.374 209.579 266.728 209.559C264.739 209.61 264.739 212.522 266.728 212.584C266.831 212.584 266.923 212.563 267.015 212.553C267.949 213.137 268.871 213.722 269.764 214.378C272.173 216.224 274.983 218.439 278.121 220.623C280.849 222.592 284.602 225.043 286.386 226.53C287.278 227.237 288.139 228.006 289.093 228.632C289.103 228.642 289.114 228.642 289.114 228.652C289.575 229.052 290.324 229.124 290.795 228.703C291.646 228.119 291.38 226.724 290.436 226.406Z" fill="#1C1C1C"/>
</g>
</g>
<g opacity="0.3">
<path d="M152.22 688.643C151.031 726.523 151.389 764.443 153.307 802.302C120.79 801.266 88.5406 800.949 56.342 801.789C55.6549 763.438 55.8805 725.672 55.8703 687.484C87.187 687.484 118.504 687.474 152.22 688.643Z" fill="white"/>
<path d="M153.307 802.805C153.297 802.805 153.297 802.805 153.286 802.805C118.001 801.677 86.2948 801.513 56.3419 802.292C56.2086 802.302 56.0753 802.241 55.983 802.149C55.8907 802.056 55.8292 801.933 55.8292 801.79C55.2857 771.283 55.3165 740.582 55.3472 710.895C55.3575 703.102 55.3678 695.298 55.3575 687.485C55.3575 687.351 55.4088 687.228 55.5011 687.126C55.5934 687.033 55.7267 686.982 55.86 686.982C86.6537 686.972 118.493 686.972 152.23 688.141C152.507 688.151 152.722 688.387 152.712 688.664C151.533 726.369 151.892 764.597 153.799 802.282C153.809 802.425 153.758 802.559 153.656 802.661C153.574 802.743 153.44 802.805 153.307 802.805ZM94.3035 800.805C112.823 800.805 132.183 801.133 152.774 801.779C150.907 764.413 150.538 726.523 151.707 689.125C118.35 687.987 86.8486 687.987 56.3727 687.987C56.3727 695.637 56.3624 703.276 56.3624 710.895C56.3317 740.417 56.3009 770.945 56.8341 801.267C68.9855 800.959 81.4445 800.805 94.3035 800.805Z" fill="#1C1C1C"/>
<path d="M142.95 694.478C141.001 727.64 142.078 760.259 144.242 793.411C117.837 792.97 91.5344 792.529 65.314 793.514C65.0269 760.085 64.2783 727.312 63.7041 694.375C91.1447 694.652 117.621 694.724 142.95 694.478Z" fill="white"/>
<path d="M65.3141 794.016C65.1807 794.016 65.0577 793.965 64.9654 793.873C64.8629 793.781 64.8116 793.647 64.8116 793.514C64.5963 768.862 64.1348 744.18 63.6734 720.308C63.5093 711.664 63.3452 703.03 63.1914 694.385C63.1914 694.252 63.2427 694.119 63.335 694.026C63.4273 693.934 63.5708 693.883 63.6939 693.883C93.3904 694.17 119.313 694.201 142.929 693.985C143.073 693.985 143.206 694.037 143.298 694.139C143.391 694.242 143.442 694.375 143.432 694.519C141.74 723.292 142.14 753.789 144.724 793.391C144.734 793.534 144.683 793.668 144.59 793.77C144.498 793.873 144.354 793.924 144.221 793.924L143.842 793.914C118.062 793.483 91.4113 793.042 65.3141 794.027C65.3243 794.016 65.3243 794.016 65.3141 794.016ZM64.2066 694.888C64.3604 703.358 64.5142 711.828 64.6783 720.288C65.1295 743.996 65.5909 768.504 65.8063 792.991C91.6985 792.037 118.134 792.468 143.708 792.899C141.165 753.768 140.765 723.518 142.416 694.98C119.067 695.206 93.4725 695.175 64.2066 694.888Z" fill="#1C1C1C"/>
<path d="M128.676 685.965C125.456 685.812 115.796 685.709 112.525 685.648C111.028 684.253 112.689 677.301 110.064 674.716C108.208 672.891 105.368 672.83 104.517 672.85C102.702 672.891 100.405 673.035 98.8563 674.511C96.0774 677.147 96.7747 685.073 96.1902 685.627C92.7139 685.668 82.5109 685.74 79.0244 685.832C79.0244 696.292 83.28 698.066 93.483 698.383C109.357 698.876 119.139 698.814 123.18 697.153C128.266 695.051 129.568 690.898 128.676 685.965ZM100.435 685.576C100.435 683.361 99.8715 678.377 104.629 678.377C107.952 678.377 107.224 685.053 107.531 685.576C105.173 685.566 102.814 685.566 100.435 685.576Z" fill="#5EACF3"/>
<path d="M107.377 699.144C103.388 699.144 98.7533 699.041 93.4518 698.877C83.1154 698.559 78.501 696.601 78.501 685.824C78.501 685.547 78.7163 685.331 78.9932 685.321C81.3414 685.26 86.7147 685.208 91.0318 685.177C92.9596 685.157 94.6721 685.147 95.8308 685.126C95.9026 684.747 95.9539 683.967 95.9949 683.27C96.1794 680.409 96.4563 676.082 98.4969 674.144C100.291 672.442 103.029 672.38 104.496 672.349C105.634 672.329 108.474 672.472 110.402 674.359C112.043 675.969 112.145 678.922 112.248 681.527C112.299 683.014 112.361 684.552 112.75 685.147C113.643 685.167 114.914 685.177 116.38 685.198C120.585 685.26 126.348 685.342 128.696 685.454C128.932 685.465 129.127 685.639 129.168 685.865C130.203 691.638 128.255 695.586 123.353 697.595C120.605 698.734 115.283 699.144 107.377 699.144ZM79.5162 686.316C79.6392 695.75 83.3513 697.565 93.4826 697.872C109.151 698.354 118.995 698.313 122.974 696.673C127.26 694.909 129.034 691.474 128.245 686.449C125.702 686.346 120.339 686.264 116.37 686.213C114.781 686.193 113.407 686.172 112.515 686.152C112.392 686.152 112.269 686.1 112.186 686.018C111.387 685.27 111.325 683.639 111.253 681.568C111.161 679.148 111.069 676.41 109.715 675.077C108.064 673.457 105.542 673.323 104.537 673.354C102.691 673.395 100.609 673.549 99.2045 674.872C97.4407 676.543 97.1741 680.789 97.0101 683.332C96.8973 685.116 96.846 685.69 96.5281 685.988C96.4358 686.07 96.3128 686.121 96.1897 686.121C95.0412 686.131 93.1749 686.152 91.0523 686.172C87.0121 686.213 82.049 686.264 79.5162 686.316ZM107.531 686.08C105.203 686.059 102.824 686.059 100.445 686.08C100.312 686.08 100.189 686.029 100.086 685.936C99.9941 685.844 99.9428 685.711 99.9428 685.577C99.9428 685.383 99.9428 685.167 99.9325 684.942C99.9018 683.219 99.8505 680.625 101.358 679.086C102.137 678.287 103.245 677.887 104.639 677.887C107.695 677.887 107.859 682.296 107.941 684.419C107.951 684.808 107.972 685.249 108.003 685.372C108.074 685.516 108.064 685.69 107.982 685.834C107.88 685.988 107.716 686.08 107.531 686.08ZM103.798 685.065C104.855 685.065 105.911 685.065 106.957 685.075C106.946 684.911 106.936 684.706 106.926 684.449C106.823 681.558 106.465 678.881 104.629 678.881C103.501 678.881 102.66 679.179 102.065 679.784C100.855 681.024 100.896 683.362 100.927 684.921C100.927 684.972 100.927 685.024 100.927 685.075C101.891 685.065 102.845 685.065 103.798 685.065Z" fill="#1C1C1C"/>
<path d="M79.2915 722.514C79.2813 722.514 79.2813 722.514 79.2915 722.514C79.0967 722.514 78.9224 722.401 78.8403 722.237C77.8559 720.258 76.6562 718.371 75.2718 716.628C75.0975 716.413 75.1385 716.095 75.3539 715.921C75.5692 715.746 75.8871 715.787 76.0614 716.003C77.2919 717.541 78.3891 719.202 79.312 720.935L83.506 713.254C83.6394 713.008 83.947 712.926 84.1931 713.06C84.4392 713.193 84.5212 713.501 84.3982 713.747L79.7427 722.258C79.6402 722.422 79.4658 722.514 79.2915 722.514Z" fill="#1C1C1C"/>
<path d="M79.2915 744.89C79.2813 744.89 79.2813 744.89 79.2915 744.89C79.0967 744.89 78.9224 744.777 78.8403 744.613C77.8559 742.634 76.6562 740.747 75.2718 739.004C75.0975 738.788 75.1385 738.471 75.3539 738.296C75.5692 738.122 75.8871 738.163 76.0614 738.378C77.2919 739.916 78.3891 741.578 79.312 743.311L83.506 735.63C83.6394 735.384 83.947 735.292 84.1931 735.435C84.4392 735.569 84.5212 735.876 84.3982 736.122L79.7427 744.633C79.6402 744.787 79.4658 744.89 79.2915 744.89Z" fill="#1C1C1C"/>
<path d="M77.5884 767.252C77.5781 767.252 77.5781 767.252 77.5884 767.252C77.3936 767.252 77.2192 767.14 77.1372 766.975C76.1528 764.996 74.953 763.11 73.5687 761.366C73.3944 761.151 73.4354 760.833 73.6507 760.659C73.8661 760.484 74.1839 760.526 74.3583 760.741C75.5888 762.279 76.686 763.94 77.6089 765.673L81.8029 757.993C81.9362 757.747 82.2439 757.665 82.49 757.798C82.7361 757.931 82.8181 758.239 82.695 758.485L78.0396 766.996C77.937 767.15 77.773 767.252 77.5884 767.252Z" fill="#1C1C1C"/>
<path d="M99.7186 722.881C97.4831 722.881 95.2374 722.871 93.0122 722.85C92.7354 722.85 92.5098 722.625 92.5098 722.348C92.5098 722.071 92.7354 721.846 93.0122 721.846C106.415 721.958 119.991 721.723 133.373 721.138C133.65 721.118 133.886 721.343 133.896 721.62C133.907 721.897 133.691 722.133 133.414 722.143C122.258 722.635 110.947 722.881 99.7186 722.881Z" fill="#1C1C1C"/>
<path d="M99.7186 744.818C97.4831 744.818 95.2374 744.808 93.0122 744.787C92.7354 744.787 92.5098 744.561 92.5098 744.285C92.5098 744.008 92.7354 743.782 93.0122 743.782C106.404 743.905 119.991 743.659 133.373 743.075C133.65 743.064 133.886 743.28 133.896 743.557C133.907 743.833 133.691 744.069 133.414 744.08C122.258 744.572 110.947 744.818 99.7186 744.818Z" fill="#1C1C1C"/>
<path d="M100.334 766.759C98.0881 766.759 95.8527 766.749 93.607 766.728C93.3301 766.728 93.1045 766.503 93.1045 766.226C93.1045 765.949 93.3301 765.724 93.607 765.724C106.999 765.847 120.586 765.6 133.968 765.016C134.245 765.006 134.481 765.221 134.491 765.498C134.501 765.775 134.286 766.011 134.009 766.021C122.863 766.513 111.552 766.759 100.334 766.759Z" fill="#1C1C1C"/>
<g opacity="0.1294">
<path d="M130.542 690.971C130.511 690.418 130.049 689.946 129.516 689.802C128.368 689.515 127.691 690.459 127.599 691.474C127.578 691.73 127.229 692.694 127.27 692.632C127.219 692.766 127.147 692.95 126.881 693.443C126.799 693.668 126.265 694.488 126.112 694.735C125.968 694.909 125.753 695.104 125.65 695.196C125.096 695.596 124.532 695.986 123.917 696.293C123.066 696.591 122.153 696.703 121.282 696.98C120.523 697.226 119.785 697.524 118.995 697.678C117.877 697.719 116.77 697.913 115.662 698.026C113.827 698.231 111.868 698.201 111.489 698.19C108.505 698.18 105.531 698.529 102.547 698.529C99.4401 698.375 96.3433 698.18 93.2363 698.006C89.9754 697.76 88.8679 697.678 86.3556 696.714C86.5812 696.806 86.7555 696.898 86.4069 696.734C86.3864 696.724 86.3556 696.714 86.3351 696.703C85.5147 696.355 84.7559 695.781 83.8843 695.616C82.1206 695.299 81.2284 697.821 82.8076 698.683C85.3814 700.036 87.9245 701.584 90.8675 702.025C93.5234 702.456 96.2305 702.477 98.9172 702.559C101.081 702.692 103.244 702.764 105.408 702.641C108.146 702.579 110.187 702.456 111.786 702.2C112.443 702.159 116.319 701.677 116.698 701.574C118.349 701.328 118.4 701.42 120.626 700.928C122.236 700.374 123.876 699.913 125.466 699.318C126.183 698.99 126.778 698.457 127.414 697.985C127.301 698.067 127.188 698.16 127.076 698.242C128.347 697.196 128.111 697.349 128.901 696.211C129.608 694.806 129.844 694.283 130.367 692.222C130.429 691.802 130.624 691.381 130.542 690.971Z" fill="#1C1C1C"/>
</g>
<g opacity="0.1294">
<path d="M86.3657 696.713C86.3555 696.713 86.3452 696.703 86.335 696.703C86.335 696.703 86.335 696.703 86.3452 696.703C86.3555 696.703 86.3657 696.703 86.3657 696.713Z" fill="#1C1C1C"/>
</g>
<g opacity="0.1294">
<path d="M146.281 773.004C146.025 769.59 146.107 766.165 145.81 762.75C145.471 757.766 144.938 752.793 144.723 747.799C144.784 745.072 144.189 742.375 144.21 739.647C144.077 735.473 144.394 731.3 144.518 727.137C144.6 721.415 144.425 715.693 144.958 709.981C144.999 706.761 145.02 703.552 145.461 700.352C145.533 699.265 145.492 698.168 145.574 697.071C145.584 696.968 145.584 696.856 145.594 696.753C145.615 696.63 145.625 696.425 145.584 696.261C145.553 695.635 145.02 695.092 144.425 694.938C141.38 694.415 142.313 699.204 141.892 701.347C141.39 704.495 141.595 707.674 141.4 710.832C140.877 716.729 141.41 722.645 141.287 728.552C141.257 732.653 141.093 736.755 141.103 740.857C141.134 742.887 141.523 744.897 141.544 746.938C141.616 751.019 141.944 755.09 142.056 759.171C142.385 764.575 142.549 769.99 142.559 775.404C142.867 780.377 143.092 785.361 142.959 790.344C142.867 791.749 142.949 791.185 142.579 792.621C141.78 792.539 138.888 792.293 137.093 792.447C132.469 792.447 127.844 792.344 123.219 792.406C119.794 792.457 116.369 792.764 112.944 792.795C107.756 792.816 102.567 792.846 97.3784 792.754C95.2352 792.693 93.092 792.405 90.9386 792.611C85.8627 792.877 80.7766 792.641 75.7007 792.498C73.2602 792.19 70.8299 792.395 68.3893 792.457C67.6203 792.416 68.215 792.488 66.7179 792.241C66.2154 792.108 65.6719 792.18 65.231 792.436C63.7851 793.216 64.0723 795.533 65.6925 795.912C68.9431 796.671 72.3065 796.22 75.5981 796.61C79.9255 796.774 84.2631 796.856 88.5904 796.835C91.5026 796.702 94.4046 796.641 97.3168 796.753C106.597 796.917 115.877 796.825 125.137 796.271C130.356 795.964 135.586 796.312 140.805 796.025C141.995 795.943 143.195 796.21 144.384 796.025C145.102 795.851 145.584 795.236 145.697 794.559C145.851 794.374 145.974 794.159 146.045 793.892C146.794 791.513 146.763 788.991 146.886 786.52C147.05 781.997 146.599 777.506 146.281 773.004Z" fill="#1C1C1C"/>
</g>
<path d="M89.566 758.95C88.479 758.181 87.3921 757.412 86.3051 756.632C80.9523 752.818 75.6098 749.003 70.2468 745.209C68.4728 743.948 66.6886 742.697 64.9043 741.446C67.8678 733.704 78.7477 730.094 87.5561 736.319C94.0061 740.872 97.1747 752.674 89.566 758.95Z" fill="white"/>
<path d="M89.5665 759.452C89.464 759.452 89.3615 759.421 89.2794 759.36L87.8438 758.344C87.2388 757.914 86.6236 757.483 86.0185 757.042L81.4451 753.781C77.6202 751.054 73.7954 748.326 69.9603 745.619C68.4939 744.573 67.0173 743.537 65.5406 742.501L64.6177 741.855C64.4332 741.722 64.3511 741.476 64.4332 741.261C65.8688 737.497 69.1091 734.606 73.3032 733.324C78.1432 731.847 83.4447 732.791 87.8438 735.898C91.6994 738.615 94.304 743.64 94.4989 748.695C94.6629 752.971 93.0223 756.745 89.8947 759.329C89.7921 759.411 89.6793 759.452 89.5665 759.452ZM65.5099 741.261L66.1046 741.681C67.5813 742.717 69.0579 743.752 70.5345 744.798C74.3696 747.516 78.1945 750.243 82.0194 752.961L86.5928 756.222C87.1978 756.652 87.813 757.083 88.4181 757.514L89.5358 758.303C92.2327 755.935 93.6273 752.551 93.4837 748.726C93.3094 744.05 90.8073 739.22 87.2491 736.718C83.0961 733.785 78.1124 732.903 73.58 734.277C69.8269 735.436 66.9045 737.969 65.5099 741.261Z" fill="#1C1C1C"/>
<path d="M20.933 758.946C22.02 758.177 23.1069 757.408 24.1939 756.629C29.5466 752.814 34.8891 748.999 40.2522 745.205C42.0262 743.944 43.8104 742.693 45.5947 741.442C42.6312 733.7 31.7513 730.09 22.9428 736.315C16.5031 740.868 13.3345 752.67 20.933 758.946Z" fill="white"/>
<path d="M20.9333 759.449C20.8205 759.449 20.7077 759.408 20.6154 759.337C17.4878 756.753 15.8471 752.979 16.0112 748.703C16.1958 743.648 18.8106 738.633 22.6663 735.905C27.0756 732.798 32.3771 731.855 37.2069 733.332C41.4009 734.613 44.6413 737.505 46.0769 741.269C46.159 741.484 46.0872 741.73 45.8923 741.863L44.9695 742.509C43.4928 743.545 42.0162 744.581 40.5498 745.627C36.7147 748.344 32.8899 751.061 29.065 753.789L24.4916 757.05C23.8865 757.481 23.2713 757.911 22.6663 758.352L21.2307 759.367C21.1384 759.419 21.0358 759.449 20.9333 759.449ZM32.613 733.65C29.3726 733.65 26.1117 734.695 23.2405 736.726C19.6925 739.238 17.1905 744.058 17.0059 748.734C16.8623 752.548 18.2672 755.932 20.9538 758.311L22.0715 757.522C22.6765 757.091 23.2918 756.66 23.8968 756.23L28.4702 752.969C32.2951 750.241 36.12 747.513 39.9551 744.806C41.4317 743.76 42.9083 742.725 44.385 741.689L44.9797 741.269C43.5851 737.967 40.6626 735.444 36.8993 734.296C35.515 733.865 34.0588 733.65 32.613 733.65Z" fill="#1C1C1C"/>
<path d="M33.9564 803.223C32.6541 807.335 31.6902 811.559 31.0749 815.825C30.9108 816.994 31.1057 818.625 32.2746 818.717C33.054 818.789 33.6487 818.05 34.0794 817.394C36.3456 813.928 38.4785 810.38 40.4986 806.771C40.6217 806.555 40.7447 806.309 40.673 806.073C40.6114 805.838 40.3756 805.694 40.1705 805.571C38.499 804.586 36.8276 803.612 33.9564 803.223Z" fill="white"/>
<path d="M32.3773 819.231C32.326 819.231 32.285 819.231 32.2337 819.221C31.7723 819.18 31.3826 818.964 31.0852 818.595C30.3572 817.682 30.511 816.185 30.5725 815.744C31.1878 811.458 32.1722 807.192 33.4745 803.06C33.5463 802.824 33.7821 802.68 34.018 802.711C36.9917 803.111 38.735 804.137 40.4269 805.121C40.6423 805.244 41.0319 805.48 41.155 805.921C41.278 806.372 41.0524 806.782 40.9294 806.997C38.9195 810.607 36.7559 814.186 34.4897 817.652C34.2231 818.103 33.4847 819.231 32.3773 819.231ZM34.3051 803.778C33.0848 807.726 32.1619 811.797 31.5672 815.888C31.4441 816.749 31.5672 817.58 31.8748 817.97C31.9979 818.123 32.1312 818.195 32.3158 818.216C32.849 818.246 33.3309 817.611 33.6591 817.119C35.9048 813.673 38.0582 810.115 40.0578 806.526C40.1706 806.321 40.1911 806.239 40.1911 806.208C40.1808 806.167 40.0885 806.105 39.9245 806.003C38.335 805.07 36.8277 804.188 34.3051 803.778Z" fill="#1C1C1C"/>
<path d="M74.4713 803.227C75.7736 807.339 76.7375 811.563 77.3527 815.829C77.5168 816.998 77.322 818.629 76.153 818.721C75.3736 818.793 74.7789 818.054 74.3482 817.398C72.082 813.932 69.9491 810.384 67.929 806.775C67.8059 806.559 67.6829 806.313 67.7547 806.077C67.8162 805.841 68.0418 805.698 68.2571 805.575C69.9183 804.59 71.5898 803.616 74.4713 803.227Z" fill="white"/>
<path d="M76.0501 819.232C74.9427 819.232 74.2044 818.104 73.9275 817.674C71.6715 814.208 69.4976 810.629 67.4878 807.02C67.3647 806.804 67.1391 806.394 67.2622 805.943C67.3852 805.502 67.7851 805.266 67.9902 805.143C69.6822 804.159 71.4254 803.133 74.3992 802.733C74.6453 802.692 74.8709 802.846 74.9427 803.082C76.245 807.214 77.2191 811.48 77.8446 815.766C77.9062 816.207 78.06 817.705 77.3319 818.617C77.0448 818.986 76.6449 819.202 76.1834 819.243C76.1424 819.222 76.0912 819.232 76.0501 819.232ZM74.1121 803.779C71.5895 804.189 70.0821 805.071 68.4927 806.004C68.3286 806.097 68.2363 806.168 68.2261 806.209C68.2261 806.24 68.2363 806.312 68.3594 806.527C70.359 810.116 72.5124 813.675 74.7581 817.12C75.076 817.612 75.5682 818.258 76.1014 818.217C76.286 818.197 76.4295 818.125 76.5423 817.971C76.85 817.581 76.973 816.751 76.85 815.89C76.2655 811.808 75.3426 807.737 74.1121 803.779Z" fill="#1C1C1C"/>
<path d="M54.833 811.687C73.4369 811.687 88.5184 796.845 88.5184 778.535C88.5184 760.226 73.4369 745.383 54.833 745.383C36.229 745.383 21.1475 760.226 21.1475 778.535C21.1475 796.845 36.229 811.687 54.833 811.687Z" fill="white"/>
<path d="M54.8335 812.188C35.986 812.188 20.6455 797.094 20.6455 778.534C20.6455 759.984 35.986 744.879 54.8335 744.879C73.6809 744.879 89.0214 759.973 89.0214 778.534C89.0214 797.094 73.6809 812.188 54.8335 812.188ZM54.8335 745.894C36.5397 745.894 21.6504 760.537 21.6504 778.544C21.6504 796.54 36.5397 811.194 54.8335 811.194C73.1272 811.194 88.0165 796.55 88.0165 778.544C88.0165 760.537 73.1272 745.894 54.8335 745.894Z" fill="#1C1C1C"/>
<path d="M54.8337 807.248C70.9459 807.248 84.0073 794.394 84.0073 778.536C84.0073 762.679 70.9459 749.824 54.8337 749.824C38.7216 749.824 25.6602 762.679 25.6602 778.536C25.6602 794.394 38.7216 807.248 54.8337 807.248Z" fill="white"/>
<path d="M54.8338 807.75C38.4678 807.75 25.1475 794.644 25.1475 778.535C25.1475 762.425 38.4576 749.32 54.8338 749.32C71.1997 749.32 84.5098 762.425 84.5098 778.535C84.5201 794.644 71.1997 807.75 54.8338 807.75ZM54.8338 750.325C39.0216 750.325 26.1626 762.979 26.1626 778.535C26.1626 794.091 39.0216 806.745 54.8338 806.745C70.6459 806.745 83.5049 794.091 83.5049 778.535C83.5049 762.989 70.6459 750.325 54.8338 750.325Z" fill="#1C1C1C"/>
<path d="M54.464 784.945L67.4972 773.06L72.0809 765.359L64.0108 769.902L51.7979 782.392L54.464 784.945Z" fill="#5EACF3"/>
<path d="M54.4645 785.446C54.3414 785.446 54.2184 785.395 54.1158 785.303L51.4497 782.75C51.3574 782.657 51.2959 782.524 51.2959 782.391C51.2959 782.257 51.3472 782.124 51.4395 782.032L63.6524 769.542C63.6831 769.511 63.7241 769.48 63.7652 769.46L71.8353 764.928C72.0302 764.815 72.2865 764.856 72.4403 765.01C72.6044 765.174 72.6249 765.42 72.5121 765.615L67.9284 773.316C67.9079 773.357 67.8669 773.398 67.8361 773.428L54.8029 785.313C54.7106 785.405 54.5875 785.446 54.4645 785.446ZM52.5162 782.38L54.4747 784.257L67.1081 772.741L70.6868 766.732L64.3292 770.311L52.5162 782.38Z" fill="#1C1C1C"/>
<g opacity="0.1294">
<path d="M56.219 777.918C56.2088 778.318 56.4754 778.697 56.8446 778.831C56.8548 778.851 56.8753 778.872 56.8856 778.892C57.2445 779.426 57.1419 779.784 57.5726 780.646C58.1366 781.497 59.5209 780.841 59.2543 779.866C59.0082 779.015 58.7724 778.092 58.1469 777.426C57.4906 776.749 56.3011 776.841 56.219 777.918Z" fill="#1C1C1C"/>
</g>
<path d="M54.6593 782.062C54.526 782.062 54.3926 782.01 54.2901 781.908L36.304 762.937C36.1092 762.732 36.1194 762.414 36.3245 762.23C36.5296 762.035 36.8475 762.045 37.0321 762.25L55.0284 781.231C55.2233 781.436 55.213 781.754 55.0079 781.939C54.9156 782.021 54.7823 782.062 54.6593 782.062Z" fill="#1C1C1C"/>
<path d="M54.2697 778.043C52.8341 778.176 51.5523 779.294 51.2139 780.689C50.773 782.565 52.2086 784.657 54.1159 784.913C56.0232 785.17 57.9613 783.509 58.0126 781.591C58.0638 779.663 56.1873 777.869 54.2697 778.043Z" fill="white"/>
<path d="M54.5159 785.446C54.3621 785.446 54.2082 785.436 54.0544 785.416C53.0085 785.272 52.0241 784.647 51.378 783.703C50.7218 782.75 50.4859 781.611 50.732 780.576C51.1114 778.966 52.5881 777.694 54.2288 777.54C55.2644 777.448 56.3514 777.848 57.1923 778.638C58.0639 779.448 58.5458 780.524 58.5151 781.601C58.4946 782.657 57.9716 783.693 57.1 784.452C56.3411 785.098 55.4285 785.446 54.5159 785.446ZM54.321 778.545C53.0905 778.658 51.9933 779.612 51.7164 780.812C51.5319 781.57 51.7164 782.411 52.2086 783.129C52.7009 783.847 53.4289 784.319 54.1877 784.421C54.9568 784.524 55.7772 784.257 56.4437 783.693C57.1 783.129 57.4896 782.36 57.5101 781.591C57.5306 780.812 57.1512 779.991 56.5052 779.386C55.8694 778.771 55.0696 778.474 54.321 778.545Z" fill="#1C1C1C"/>
<g opacity="0.1294">
<path d="M55.2954 812.055H55.2852C55.3263 812.055 55.3366 812.065 55.2954 812.055Z" fill="#1C1C1C"/>
</g>
<g opacity="0.1294">
<path d="M38.4473 807.729C39.2061 808.109 39.9854 808.457 40.7648 808.785C42.3542 809.442 43.9846 809.975 45.6356 810.426C45.9022 810.498 46.015 810.713 46.0047 810.928C46.5482 811.051 47.1019 811.144 47.6557 811.216C49.7681 811.615 51.9112 811.79 54.0544 811.728C54.1672 811.841 54.321 811.923 54.5158 811.954C54.6081 811.974 55.1413 812.036 55.2746 812.056C55.2541 812.056 55.2336 812.046 55.2029 812.046C55.5105 812.087 55.8181 812.097 56.1258 812.128C56.741 812.169 57.3665 812.169 57.9818 812.108C59.0893 812.046 60.812 811.656 62.5245 811.216C64.883 810.703 67.1081 809.759 69.3641 808.888C70.4613 808.447 73.9888 806.96 75.7525 805.36C77.5163 803.873 79.0339 802.161 80.3875 800.315C80.5618 800.407 80.7567 800.438 80.9515 800.387C81.5155 800.12 81.2899 800.12 81.7308 799.597C82.2025 798.921 82.6127 798.223 83.0229 797.506C83.5458 796.634 84.0996 795.773 84.4687 794.819C84.5815 794.593 84.6738 794.337 84.6226 794.091C85.002 793.476 85.3609 792.85 85.6582 792.194C87.5553 788.451 88.6833 782.657 88.4884 777.561C88.3654 775.397 87.9962 773.244 87.5963 771.111C86.858 767.922 86.3145 767.153 85.2276 764.405C85.0737 764.148 84.8481 764.025 84.6123 763.994C84.0791 762.723 83.3715 760.959 82.5819 759.452C81.9667 758.16 81.1156 756.98 80.1004 755.975C79.7928 755.719 79.5466 755.36 79.1877 755.186C78.8596 755.022 78.4494 755.186 78.2649 755.494C77.8957 756.129 78.6135 756.591 78.9929 757.001C79.4851 757.534 79.4133 757.483 79.6697 757.811C80.3157 758.642 80.7567 759.595 81.2386 760.518C81.8026 761.574 82.3563 762.641 82.8383 763.738C83.1357 764.497 83.6894 765.656 84.2842 766.876C84.9712 768.957 85.3096 770.598 85.7915 773.08C86.7657 778.391 86.5504 783.806 84.3662 789.497C84.3662 789.497 84.3662 789.497 84.3662 789.507C83.1459 791.978 80.9412 795.393 79.116 797.475C77.506 799.382 75.4962 800.9 73.6607 802.592C71.7226 804.263 70.3998 805.371 67.99 806.601C66.6057 807.257 64.6881 807.975 62.7603 808.59C59.3251 809.36 55.6746 809.8 52.2291 809.841C50.6704 809.698 49.3784 809.431 47.5224 809.134C44.6922 808.642 41.8312 808.098 39.1548 807.022C38.6729 806.827 38.2627 807.216 38.2422 807.637C38.3037 807.647 38.3755 807.688 38.4473 807.729Z" fill="#1C1C1C"/>
</g>
<path d="M55.2339 756.885C54.957 756.885 54.7314 756.66 54.7314 756.383V752.292C54.7314 752.015 54.957 751.789 55.2339 751.789C55.5108 751.789 55.7364 752.015 55.7364 752.292V756.383C55.7364 756.66 55.5108 756.885 55.2339 756.885Z" fill="#1C1C1C"/>
<path d="M55.2339 804.342C54.957 804.342 54.7314 804.117 54.7314 803.84V799.749C54.7314 799.472 54.957 799.246 55.2339 799.246C55.5108 799.246 55.7364 799.472 55.7364 799.749V803.84C55.7364 804.127 55.5108 804.342 55.2339 804.342Z" fill="#1C1C1C"/>
<path d="M81.0041 778.575H76.9126C76.6357 778.575 76.4102 778.35 76.4102 778.073C76.4102 777.796 76.6357 777.57 76.9126 777.57H81.0041C81.281 777.57 81.5066 777.796 81.5066 778.073C81.5066 778.35 81.2912 778.575 81.0041 778.575Z" fill="#1C1C1C"/>
<path d="M33.5461 778.575H29.4546C29.1777 778.575 28.9521 778.35 28.9521 778.073C28.9521 777.796 29.1777 777.57 29.4546 777.57H33.5461C33.823 777.57 34.0486 777.796 34.0486 778.073C34.0486 778.35 33.823 778.575 33.5461 778.575Z" fill="#1C1C1C"/>
<path d="M52.435 733.034C51.225 733.126 49.9739 733.352 48.9998 734.07C48.0256 734.798 47.4308 736.151 47.9128 737.259C48.4358 738.469 49.9227 738.9 51.225 739.023C53.2656 739.218 57.0597 739.576 59.0695 739.177C61.0486 738.787 62.2996 737.218 61.8279 735.29C61.6434 734.521 60.9871 733.937 60.2898 733.578C59.5822 733.219 54.3935 732.88 52.435 733.034Z" fill="white"/>
<path d="M56.618 739.864C54.6595 739.864 52.4548 739.649 51.173 739.526C49.2452 739.341 47.9531 738.624 47.4507 737.465C46.8354 736.06 47.6352 734.46 48.7017 733.671C49.8297 732.83 51.2653 732.625 52.3933 732.532C54.239 732.389 59.6328 732.686 60.5147 733.138C61.4786 733.63 62.1144 734.358 62.3195 735.178C62.5656 736.173 62.422 737.126 61.9093 737.937C61.335 738.829 60.3711 739.454 59.1714 739.69C58.4741 739.813 57.5717 739.864 56.618 739.864ZM52.4753 733.537C51.4806 733.619 50.2193 733.794 49.2964 734.481C48.5376 735.045 47.9839 736.173 48.3736 737.065C48.8145 738.09 50.1988 738.429 51.2755 738.531C53.1316 738.716 56.9872 739.085 58.9765 738.695C59.8994 738.511 60.6377 738.049 61.0582 737.393C61.4171 736.819 61.5196 736.142 61.3453 735.424C61.171 734.706 60.4634 734.245 60.0635 734.04C59.4892 733.753 54.4851 733.384 52.4753 733.537Z" fill="#1C1C1C"/>
<path d="M54.6802 745.995C54.3931 745.995 54.1777 745.77 54.1777 745.483L54.2495 739.289C54.2495 739.012 54.4751 738.797 54.752 738.797C54.752 738.797 54.752 738.797 54.7622 738.797C55.0391 738.797 55.2647 739.022 55.2544 739.31L55.1827 745.503C55.1827 745.77 54.9571 745.995 54.6802 745.995Z" fill="#1C1C1C"/>
<g opacity="0.1294">
<path d="M80.0487 792.223C79.8949 792.469 77.9261 794.397 76.8186 795.32C75.8547 796.068 74.9318 796.724 73.9884 797.35C73.8244 797.381 73.6603 797.432 73.4962 797.524C68.6972 800.549 65.0877 801.657 59.0274 802.631C56.1459 803.103 52.8337 803.492 48.2911 802.518C45.1122 801.872 43.5741 801.113 40.2619 799.165C38.8571 798.304 35.709 795.894 33.5761 793.638C33.0326 792.982 32.5712 792.356 32.1815 791.751C29.9461 788.849 28.3874 785.363 27.0851 781.815C26.6647 781.015 26.3365 780.174 26.0392 779.312C25.8443 781.24 25.8238 783.168 25.9571 785.096C26.5621 786.562 27.1979 788.029 27.8747 789.464C27.926 789.567 27.9772 789.669 28.0182 789.772C28.1105 789.936 28.1926 790.11 28.2849 790.274C30.1819 793.658 32.5199 796.745 35.145 799.534C37.483 802.016 40.4157 803.585 43.3587 805.092C44.097 805.379 44.8456 805.635 45.6147 805.861C47.3169 806.292 49.0909 806.476 50.8444 806.651C50.8546 806.651 50.8546 806.651 50.8752 806.661C52.7825 806.968 54.741 806.968 56.6586 806.784C58.166 806.671 59.6221 806.292 61.0782 805.943C63.9392 805.328 66.7899 804.569 69.4253 803.41C70.0918 803 70.7378 802.549 71.3736 802.077C75.0446 799.339 78.0902 795.873 80.6127 792.018C81.0332 791.341 81.4331 790.644 81.8022 789.936C81.146 790.623 80.7255 791.525 80.0487 792.223Z" fill="#1C1C1C"/>
</g>
<path d="M22.7589 755.379C22.7487 755.379 22.7487 755.379 22.7384 755.379C22.6461 755.369 22.5846 755.287 22.5949 755.195L24.5432 737.711C24.5534 737.619 24.6355 737.557 24.7278 737.568C24.8201 737.578 24.8816 737.66 24.8713 737.752L22.923 755.236C22.923 755.308 22.841 755.379 22.7589 755.379Z" fill="#1C1C1C"/>
<path d="M19.8771 754.774C19.8668 754.774 19.8566 754.774 19.8566 754.774C19.7643 754.764 19.7028 754.672 19.713 754.579L21.8254 740.418C21.8357 740.326 21.928 740.264 22.0203 740.275C22.1125 740.285 22.1741 740.377 22.1638 740.469L20.0514 754.631C20.0309 754.713 19.9591 754.774 19.8771 754.774Z" fill="#1C1C1C"/>
<path d="M18.215 750.376C18.2047 750.376 18.2047 750.376 18.1945 750.376C18.1022 750.366 18.0407 750.284 18.0509 750.191L18.6662 745.567C18.6764 745.474 18.7585 745.413 18.8508 745.423C18.943 745.433 19.0046 745.515 18.9943 745.608L18.3791 750.232C18.3688 750.314 18.297 750.376 18.215 750.376Z" fill="#1C1C1C"/>
<path d="M25.8648 753.511C25.8545 753.511 25.8545 753.511 25.8442 753.511C25.752 753.501 25.6802 753.419 25.6904 753.326L27.3926 735.689C27.4029 735.597 27.4849 735.535 27.5772 735.535C27.6695 735.545 27.7413 735.627 27.731 735.72L26.0288 753.357C26.0186 753.449 25.9468 753.511 25.8648 753.511Z" fill="#1C1C1C"/>
<path d="M28.758 751.359C28.7477 751.359 28.7477 751.359 28.7374 751.359C28.6452 751.348 28.5836 751.266 28.5939 751.174C29.2502 745.985 29.8039 740.715 30.2346 735.505C30.2448 735.413 30.3269 735.352 30.4192 735.352C30.5114 735.362 30.5832 735.444 30.573 735.536C30.132 740.745 29.5783 746.026 28.9323 751.215C28.9118 751.297 28.84 751.359 28.758 751.359Z" fill="#1C1C1C"/>
<path d="M31.7003 749.504C31.6901 749.504 31.6901 749.504 31.6798 749.504C31.5875 749.493 31.526 749.411 31.5363 749.319C32.1515 744.684 32.7155 739.977 33.2282 735.332C33.2385 735.24 33.3205 735.178 33.4128 735.189C33.5051 735.199 33.5666 735.281 33.5564 735.373C33.0437 740.018 32.4694 744.725 31.8644 749.37C31.8542 749.442 31.7824 749.504 31.7003 749.504Z" fill="#1C1C1C"/>
<path d="M34.9204 746.94C34.9102 746.94 34.9102 746.94 34.8999 746.94C34.8076 746.93 34.7358 746.848 34.7461 746.755C35.1153 743.105 35.5972 739.413 36.1817 735.793C36.192 735.701 36.2842 735.64 36.3765 735.66C36.4688 735.67 36.5303 735.763 36.5201 735.855C35.9356 739.475 35.4536 743.146 35.0845 746.796C35.0742 746.878 35.0025 746.94 34.9204 746.94Z" fill="#1C1C1C"/>
<path d="M37.8625 744.887C37.8522 744.887 37.8522 744.887 37.8419 744.887C37.7497 744.877 37.6881 744.795 37.6984 744.703C38.0163 742.078 38.4162 739.432 38.8981 736.838C38.9186 736.745 39.0007 736.694 39.093 736.704C39.1853 736.725 39.2468 736.807 39.2263 736.899C38.7443 739.494 38.3444 742.129 38.0368 744.744C38.0163 744.826 37.9445 744.887 37.8625 744.887Z" fill="#1C1C1C"/>
<path d="M41.1437 742.623C41.1334 742.623 41.1334 742.623 41.1232 742.623C41.0309 742.613 40.9694 742.531 40.9796 742.439C41.1334 741.218 41.3283 739.988 41.5846 738.778C41.6051 738.686 41.6872 738.624 41.7795 738.645C41.8718 738.665 41.9333 738.747 41.9128 738.839C41.6667 740.039 41.4616 741.259 41.318 742.48C41.2975 742.562 41.2257 742.623 41.1437 742.623Z" fill="#1C1C1C"/>
<path d="M67.8682 742.079C67.858 742.079 67.8477 742.079 67.8375 742.079C67.7452 742.059 67.6836 741.977 67.7041 741.884L68.3297 738.172C68.3399 738.08 68.4322 738.019 68.5245 738.039C68.6168 738.06 68.6783 738.142 68.6578 738.234L68.0323 741.946C68.022 742.028 67.9502 742.079 67.8682 742.079Z" fill="#1C1C1C"/>
<path d="M70.5959 743.783C70.5856 743.783 70.5753 743.783 70.5753 743.783C70.483 743.773 70.4215 743.681 70.4318 743.588C70.8009 741.055 71.2419 738.482 71.7341 735.969C71.7546 735.877 71.8366 735.815 71.9289 735.836C72.0212 735.856 72.0827 735.939 72.0622 736.031C71.57 738.543 71.1291 741.107 70.7599 743.64C70.7497 743.732 70.6779 743.783 70.5959 743.783Z" fill="#1C1C1C"/>
<path d="M73.5991 745.76C73.5889 745.76 73.5889 745.76 73.5786 745.76C73.4863 745.749 73.4146 745.667 73.4248 745.575C73.7632 742.048 74.2451 738.489 74.8707 734.993C74.8912 734.9 74.9732 734.839 75.0655 734.859C75.1578 734.88 75.2193 734.962 75.1988 735.054C74.5835 738.541 74.1016 742.089 73.7632 745.606C73.7529 745.698 73.6812 745.76 73.5991 745.76Z" fill="#1C1C1C"/>
<path d="M76.2866 747.943C76.2764 747.943 76.2764 747.943 76.2661 747.943C76.1738 747.933 76.1123 747.851 76.1123 747.758C76.5737 743.431 77.066 739.042 77.5787 734.725C77.5889 734.633 77.671 734.561 77.7633 734.582C77.8555 734.592 77.9171 734.674 77.9068 734.766C77.3941 739.083 76.8916 743.462 76.4404 747.789C76.4404 747.882 76.3687 747.943 76.2866 747.943Z" fill="#1C1C1C"/>
<path d="M79.0871 749.758C79.0768 749.758 79.0768 749.758 79.0665 749.758C78.9743 749.748 78.9127 749.666 78.923 749.574C79.5998 744.703 80.1227 739.74 80.5021 734.838C80.5124 734.746 80.5842 734.674 80.6867 734.685C80.779 734.695 80.8508 734.777 80.8405 734.869C80.4714 739.781 79.9382 744.744 79.2614 749.625C79.2409 749.697 79.1691 749.758 79.0871 749.758Z" fill="#1C1C1C"/>
<path d="M81.772 751.584C81.7617 751.584 81.7617 751.584 81.7515 751.584C81.6592 751.574 81.5977 751.492 81.5977 751.4L83.2486 736.018C83.2589 735.926 83.3409 735.854 83.4332 735.875C83.5255 735.885 83.587 735.967 83.587 736.059L81.9361 751.441C81.9258 751.523 81.854 751.584 81.772 751.584Z" fill="#1C1C1C"/>
<path d="M84.5498 753.226H84.5396C84.4473 753.216 84.3755 753.144 84.3857 753.052C84.7241 747.904 85.1651 742.695 85.7188 737.557C85.7291 737.465 85.8111 737.393 85.9034 737.414C85.9957 737.424 86.0572 737.506 86.0572 737.598C85.5035 742.725 85.0625 747.935 84.7241 753.082C84.7139 753.164 84.6421 753.226 84.5498 753.226Z" fill="#1C1C1C"/>
<path d="M87.6572 756.129C87.647 756.129 87.647 756.129 87.6572 756.129C87.5547 756.129 87.4829 756.047 87.4932 755.955C87.7085 750.376 88.0059 744.716 88.3443 739.137C88.3545 739.045 88.4263 738.963 88.5186 738.984C88.6109 738.994 88.6827 739.066 88.6724 739.158C88.3238 744.736 88.0366 750.386 87.8213 755.965C87.811 756.057 87.7393 756.129 87.6572 756.129Z" fill="#1C1C1C"/>
<path d="M90.8891 755.052C90.7968 755.052 90.725 754.98 90.725 754.888C90.684 750.992 90.7968 747.044 91.0634 743.147C91.0736 743.055 91.1454 742.983 91.2377 742.993C91.33 743.003 91.4018 743.075 91.3915 743.167C91.1249 747.044 91.0121 750.992 91.0531 754.878C91.0634 754.98 90.9814 755.052 90.8891 755.052Z" fill="#1C1C1C"/>
<g opacity="0.1294">
<path d="M60.125 736.509C60.043 736.561 59.9609 736.612 59.8687 736.663C59.7456 736.704 59.6123 736.745 59.479 736.776C58.915 736.909 57.3974 737.022 56.0745 736.971C54.5056 736.961 51.6959 736.53 51.1012 736.479C50.1988 736.386 49.3067 736.027 48.4146 736.027C47.2763 736.13 47.1738 737.832 48.271 738.109C51.6242 738.755 55.0799 739.298 58.5048 738.94C59.2226 738.847 59.9609 738.776 60.6582 738.56C61.0992 738.437 61.5709 738.201 61.6837 737.719C61.9503 736.837 60.9043 736.027 60.125 736.509Z" fill="#1C1C1C"/>
</g>
<g opacity="0.1294">
<path d="M43.9334 739.638C41.5134 740.889 39.2985 742.509 36.9605 743.914C34.2533 745.431 31.6692 747.123 29.2287 749.041C26.2139 751.194 23.3222 753.614 20.0511 756.496C19.7024 756.804 19.3025 757.132 19.323 757.634C19.2923 758.557 20.5228 759.07 21.1585 758.393C21.3534 758.219 21.538 758.055 21.7328 757.89C21.9994 757.973 22.2968 757.962 22.5634 757.798C24.2348 756.557 24.9527 755.799 26.3165 754.876C28.3571 753.45 30.5105 752.179 32.5511 750.743C34.3149 749.441 35.1967 748.498 36.5401 747.544C36.458 747.605 36.3862 747.667 36.3042 747.728C38.0577 746.416 39.9137 745.226 41.6672 743.904C42.7439 743.134 43.9232 742.499 44.9691 741.678C45.933 740.899 45.1537 739.31 43.9334 739.638Z" fill="#1C1C1C"/>
</g>
<g opacity="0.1294">
<path d="M90.4364 756.406C90.0364 756.201 89.6673 755.914 89.2981 755.648C89.2674 755.627 89.2469 755.607 89.2263 755.596C89.1136 755.504 88.9905 755.412 88.8777 755.32C84.1812 751.546 76.3674 746.378 70.6557 741.938C69.7944 741.394 68.9535 740.769 68.0306 740.328C67.805 739.897 67.3744 739.579 66.7283 739.559C64.739 739.61 64.739 742.522 66.7283 742.584C66.8309 742.584 66.9232 742.563 67.0155 742.553C67.9486 743.137 68.8715 743.722 69.7636 744.378C72.1734 746.224 74.9831 748.439 78.1209 750.623C80.8486 752.592 84.6016 755.043 86.3859 756.53C87.278 757.237 88.1394 758.006 89.093 758.632C89.1033 758.642 89.1136 758.642 89.1136 758.652C89.575 759.052 90.3236 759.124 90.7953 758.703C91.6464 758.119 91.3798 756.724 90.4364 756.406Z" fill="#1C1C1C"/>
</g>
</g>
</svg>
