<svg width="1440" height="730" viewBox="0 0 1440 730" fill="none" xmlns="http://www.w3.org/2000/svg">
<g opacity="0.15">
<path d="M1394.79 402.172C1421.12 400.991 1447.49 400.903 1473.59 401.983C1475.32 431.138 1476.24 460.694 1470.26 489.246C1469.33 493.668 1468.2 498.177 1465.65 501.87C1461.41 508.025 1453.24 511.065 1445.49 508.779C1425.23 508.439 1408.72 506.455 1388.04 505.412C1397.88 471.434 1394.1 437.054 1394.79 402.172Z" fill="white"/>
<path d="M1450.69 510.16C1448.93 510.16 1447.15 509.922 1445.4 509.419C1433.14 509.218 1422.38 508.414 1411 507.573C1403.7 507.033 1396.16 506.467 1388.01 506.065C1387.82 506.053 1387.65 505.965 1387.55 505.814C1387.43 505.663 1387.41 505.462 1387.46 505.287C1394.83 479.8 1394.52 453.472 1394.22 428.023C1394.11 419.569 1394.01 410.839 1394.18 402.184C1394.19 401.858 1394.44 401.594 1394.77 401.581C1421.36 400.388 1447.89 400.325 1473.63 401.393C1473.94 401.406 1474.19 401.657 1474.22 401.971C1475.89 430.146 1477.01 460.117 1470.89 489.397C1470.01 493.58 1468.85 498.365 1466.18 502.247C1462.7 507.259 1456.8 510.16 1450.69 510.16ZM1388.85 504.86C1396.71 505.261 1404.01 505.814 1411.08 506.329C1422.48 507.171 1433.24 507.975 1445.5 508.176C1445.55 508.176 1445.62 508.188 1445.67 508.201C1452.95 510.349 1460.95 507.598 1465.15 501.531C1467.7 497.838 1468.82 493.19 1469.67 489.133C1475.72 460.179 1474.66 430.522 1473.01 402.586C1447.68 401.544 1421.57 401.607 1395.4 402.775C1395.25 411.216 1395.35 419.745 1395.45 427.998C1395.75 453.283 1396.06 479.423 1388.85 504.86Z" fill="#1C1C1C"/>
<path d="M1364.68 486.757C1390.12 486.304 1415.57 486.493 1440.54 486.87C1439.65 493.427 1440.98 500.285 1444.27 506C1445.3 507.797 1446.91 509.681 1448.84 509.542C1425.08 509.316 1401.81 511.502 1377.8 509.542C1373.33 508.94 1367.42 506.955 1364.97 500.662C1363.31 496.391 1362.64 491.392 1364.68 486.757Z" fill="white"/>
<path d="M1400.33 510.987C1392.86 510.987 1385.31 510.786 1377.74 510.171C1373.02 509.543 1366.92 507.42 1364.4 500.901C1362.98 497.245 1361.78 491.794 1364.11 486.506C1364.21 486.292 1364.42 486.141 1364.66 486.141C1386.49 485.752 1409.89 485.79 1440.54 486.254C1440.72 486.254 1440.88 486.33 1440.99 486.468C1441.11 486.606 1441.16 486.782 1441.13 486.958C1440.25 493.414 1441.55 500.072 1444.79 505.699C1445.47 506.88 1446.81 508.789 1448.43 508.94C1448.57 508.94 1448.69 508.94 1448.83 508.94C1449.16 508.94 1449.43 509.204 1449.45 509.543C1449.46 509.869 1449.21 510.158 1448.87 510.171C1448.69 510.183 1448.53 510.183 1448.37 510.171C1439.79 510.108 1431.15 510.347 1422.78 510.573C1415.42 510.774 1407.91 510.987 1400.33 510.987ZM1365.09 487.36C1363.14 492.146 1364.24 497.095 1365.55 500.448C1367.86 506.415 1373.53 508.362 1377.87 508.94C1393 510.171 1408.12 509.744 1422.75 509.342C1430.28 509.128 1438.03 508.902 1445.75 508.927C1444.93 508.186 1444.25 507.206 1443.73 506.315C1440.48 500.649 1439.1 493.992 1439.84 487.485C1409.73 487.021 1386.63 486.983 1365.09 487.36Z" fill="#1C1C1C"/>
<path d="M1369.01 495.361C1368.97 495.361 1368.93 495.348 1368.89 495.323C1368.79 495.26 1368.77 495.135 1368.83 495.034C1369.96 493.25 1371.27 491.58 1372.71 490.06C1372.79 489.972 1372.92 489.972 1373 490.047C1373.09 490.123 1373.09 490.261 1373.01 490.336C1371.58 491.843 1370.29 493.489 1369.17 495.248C1369.13 495.323 1369.07 495.361 1369.01 495.361Z" fill="#1C1C1C"/>
<path d="M1369.61 503C1369.57 503 1369.53 502.988 1369.49 502.963C1369.39 502.9 1369.37 502.774 1369.43 502.674C1372.37 498.252 1375.71 494.057 1379.37 490.2C1379.44 490.112 1379.58 490.113 1379.66 490.188C1379.74 490.263 1379.74 490.401 1379.67 490.477C1376.03 494.308 1372.7 498.491 1369.77 502.887C1369.73 502.975 1369.67 503 1369.61 503Z" fill="#1C1C1C"/>
<path d="M1374.48 506.003C1374.44 506.003 1374.41 505.99 1374.37 505.965C1374.27 505.902 1374.24 505.777 1374.31 505.676C1377.75 500.288 1381.62 495.087 1385.79 490.239C1385.86 490.151 1385.99 490.138 1386.08 490.214C1386.16 490.289 1386.18 490.415 1386.1 490.502C1381.94 495.339 1378.09 500.514 1374.65 505.89C1374.61 505.978 1374.54 506.003 1374.48 506.003Z" fill="#1C1C1C"/>
<path d="M1381.91 506.629C1381.87 506.629 1381.83 506.616 1381.79 506.604C1381.69 506.541 1381.67 506.415 1381.73 506.327C1385.1 500.888 1388.8 495.575 1392.73 490.538C1392.81 490.45 1392.93 490.437 1393.02 490.5C1393.11 490.576 1393.12 490.701 1393.06 490.789C1389.14 495.814 1385.45 501.114 1382.08 506.541C1382.04 506.604 1381.97 506.629 1381.91 506.629Z" fill="#1C1C1C"/>
<path d="M1388.69 507.234C1388.65 507.234 1388.61 507.222 1388.58 507.196C1388.48 507.134 1388.45 507.008 1388.51 506.908L1399.57 490.163C1399.63 490.063 1399.76 490.038 1399.86 490.101C1399.96 490.163 1399.98 490.289 1399.92 490.39L1388.86 507.134C1388.81 507.209 1388.75 507.234 1388.69 507.234Z" fill="#1C1C1C"/>
<path d="M1396.31 506.716C1396.28 506.716 1396.24 506.704 1396.2 506.679C1396.1 506.616 1396.07 506.49 1396.14 506.39C1399.67 500.988 1403.1 495.424 1406.32 489.847C1406.39 489.746 1406.51 489.721 1406.6 489.771C1406.7 489.834 1406.73 489.96 1406.68 490.048C1403.45 495.625 1400.02 501.189 1396.48 506.603C1396.45 506.691 1396.39 506.716 1396.31 506.716Z" fill="#1C1C1C"/>
<path d="M1402.92 506.845C1402.88 506.845 1402.84 506.833 1402.81 506.808C1402.72 506.745 1402.69 506.619 1402.76 506.519C1406.36 501.18 1409.89 495.691 1413.27 490.214C1413.33 490.114 1413.46 490.089 1413.55 490.151C1413.65 490.214 1413.67 490.34 1413.61 490.44C1410.23 495.917 1406.69 501.406 1403.08 506.757C1403.05 506.82 1402.98 506.845 1402.92 506.845Z" fill="#1C1C1C"/>
<path d="M1410.53 506.63C1410.49 506.63 1410.46 506.617 1410.42 506.592C1410.32 506.529 1410.31 506.404 1410.37 506.303C1413.86 501.141 1417.19 495.764 1420.28 490.35C1420.33 490.25 1420.46 490.225 1420.56 490.275C1420.66 490.325 1420.69 490.451 1420.63 490.551C1417.54 495.978 1414.2 501.354 1410.7 506.529C1410.66 506.592 1410.6 506.63 1410.53 506.63Z" fill="#1C1C1C"/>
<path d="M1417.75 506.142C1417.72 506.142 1417.68 506.129 1417.65 506.117C1417.55 506.066 1417.52 505.941 1417.58 505.84L1426.48 490.176C1426.54 490.076 1426.66 490.038 1426.76 490.101C1426.86 490.151 1426.9 490.277 1426.84 490.377L1417.93 506.041C1417.89 506.104 1417.83 506.142 1417.75 506.142Z" fill="#1C1C1C"/>
<path d="M1423.97 506.794C1423.94 506.794 1423.9 506.781 1423.87 506.769C1423.77 506.718 1423.73 506.593 1423.8 506.492C1427.01 500.802 1430.45 495.137 1434.02 489.648C1434.08 489.547 1434.21 489.522 1434.31 489.585C1434.41 489.648 1434.44 489.773 1434.37 489.874C1430.82 495.351 1427.39 501.016 1424.16 506.693C1424.11 506.769 1424.04 506.794 1423.97 506.794Z" fill="#1C1C1C"/>
<path d="M1431.56 505.627C1431.52 505.627 1431.5 505.614 1431.46 505.601C1431.36 505.551 1431.32 505.426 1431.37 505.325C1433.02 502.21 1434.9 499.183 1436.99 496.331C1437.05 496.243 1437.19 496.218 1437.27 496.281C1437.36 496.344 1437.39 496.482 1437.33 496.57C1435.25 499.396 1433.38 502.411 1431.75 505.513C1431.7 505.589 1431.64 505.627 1431.56 505.627Z" fill="#1C1C1C"/>
<path d="M1437.11 506.831C1437.07 506.831 1437.04 506.818 1437 506.793C1436.91 506.73 1436.87 506.605 1436.95 506.504L1438.83 503.691C1438.9 503.603 1439.02 503.578 1439.12 503.64C1439.22 503.703 1439.25 503.829 1439.17 503.929L1437.29 506.743C1437.25 506.793 1437.19 506.831 1437.11 506.831Z" fill="#1C1C1C"/>
<g opacity="0.1294">
<path d="M1446.61 506.844C1445.93 506.341 1445.16 505.965 1444.39 505.625C1444.26 505.286 1444.08 504.96 1443.95 504.646C1443.96 504.683 1443.97 504.721 1444 504.759C1443.68 504.005 1443.47 503.553 1442.97 501.958C1442.84 501.631 1442.44 499.998 1442.34 499.784C1442.31 499.357 1442.2 498.918 1441.87 498.616C1441.27 498.013 1440.25 498.013 1439.64 498.616C1439.27 498.943 1439.22 499.433 1439.08 499.872C1439.06 499.96 1439.03 500.011 1439.02 500.048C1438.95 500.186 1438.78 500.5 1438.62 500.752C1438.57 500.827 1438.46 500.965 1438.34 501.116C1437.48 502.02 1438.15 501.455 1436.92 502.272C1436.58 502.498 1436.21 502.674 1435.83 502.849C1435.79 502.862 1435.74 502.887 1435.67 502.912C1434.64 503.251 1434.07 503.44 1433.57 503.553C1431.42 503.565 1428.92 503.678 1426.95 503.804C1422.52 503.791 1418.11 504.281 1413.67 504.344C1409.21 504.633 1404.75 504.734 1400.3 504.922C1395.9 505.173 1391.49 505.475 1387.09 505.048C1383.02 504.608 1379.41 504.206 1375.22 503.477C1374.06 503.239 1372.91 502.912 1371.81 502.485C1371.13 502.146 1370.41 501.757 1369.63 502.008C1367.93 502.422 1367.57 504.947 1369.14 505.801C1371.63 507.045 1374.31 507.937 1377.03 508.477C1377.4 508.577 1379.41 508.854 1380.1 508.954C1380.34 508.992 1380.61 509.029 1380.78 509.042C1384.33 509.582 1387.89 510.072 1391.49 510.085C1394.86 510.135 1398.2 509.745 1401.56 509.607C1408.22 509.293 1414.9 509.092 1421.54 508.464C1421.61 508.703 1421.72 508.916 1421.9 509.092C1422.74 509.846 1423.99 509.469 1425.03 509.57C1424.88 509.545 1424.74 509.532 1424.59 509.507C1426.93 509.758 1429.29 509.356 1431.64 509.268C1434.31 509.055 1437 508.954 1439.69 509.042C1440.16 509.055 1440.63 509.105 1441.09 509.143C1441.31 509.369 1441.53 509.57 1441.84 509.67C1442.48 509.997 1443.18 509.846 1443.69 509.444C1443.95 509.469 1444.18 509.507 1444.44 509.519C1444.51 509.532 1444.57 509.544 1444.65 509.557C1446.4 510.135 1447.93 508.313 1446.61 506.844Z" fill="#1C1C1C"/>
</g>
<g opacity="0.1294">
<path d="M1462.37 504.394C1462.31 504.155 1462.18 503.941 1462.05 503.753C1461.85 503.439 1461.58 503.163 1461.32 502.899C1460.85 502.346 1460.33 501.844 1459.79 501.354C1457.26 498.854 1454.45 496.668 1451.78 494.32C1448.69 491.694 1445.74 488.906 1442.53 486.431C1440.55 484.56 1438.07 487.298 1440.23 488.906C1440.28 488.943 1440.33 488.981 1440.37 489.019C1439.78 489.684 1439.54 490.677 1440.09 491.606C1440.15 491.707 1440.21 491.807 1440.28 491.908C1440.2 492.084 1440.14 492.26 1440.1 492.461C1439.86 493.993 1440.23 495.5 1440.76 496.957C1440.63 497.673 1440.78 498.44 1440.91 499.156C1441.28 500.939 1442.01 502.66 1443.13 504.13C1445.18 507.031 1451.19 512.86 1454.37 508.639C1454.55 508.363 1454.65 508.036 1454.69 507.71C1455.43 508.212 1456.32 508.501 1457.16 508.061C1457.9 507.798 1458.43 507.094 1458.59 506.316C1458.72 506.416 1458.86 506.516 1458.98 506.617C1459.03 506.642 1459.07 506.68 1459.12 506.705C1459.3 506.805 1459.48 506.893 1459.68 506.956C1461.19 507.521 1462.85 505.951 1462.37 504.394Z" fill="#1C1C1C"/>
</g>
<path d="M1416.9 421.237C1420.13 403.831 1408.64 387.096 1391.24 383.86C1373.83 380.624 1357.1 392.111 1353.86 409.518C1350.62 426.924 1362.11 443.659 1379.52 446.895C1396.92 450.131 1413.66 438.644 1416.9 421.237Z" fill="white"/>
<path d="M1385.35 448.093C1367.33 448.093 1352.68 433.434 1352.68 415.422C1352.68 397.409 1367.33 382.75 1385.35 382.75C1403.36 382.75 1418.02 397.409 1418.02 415.422C1418.03 433.447 1403.37 448.093 1385.35 448.093ZM1385.35 383.981C1368.01 383.981 1353.91 398.087 1353.91 415.422C1353.91 432.756 1368.01 446.862 1385.35 446.862C1402.68 446.862 1416.79 432.756 1416.79 415.422C1416.8 398.087 1402.69 383.981 1385.35 383.981Z" fill="#1C1C1C"/>
<path d="M1385.94 421.365H1385.93C1385.75 421.365 1385.57 421.277 1385.46 421.139L1374.75 408.025C1374.53 407.761 1374.57 407.372 1374.83 407.158C1375.1 406.945 1375.49 406.982 1375.7 407.246L1385.96 419.807L1400.2 403.955C1400.42 403.704 1400.81 403.679 1401.06 403.905C1401.31 404.131 1401.34 404.521 1401.11 404.772L1386.4 421.151C1386.28 421.29 1386.11 421.365 1385.94 421.365Z" fill="#1C1C1C"/>
<path d="M1385.35 391.646C1385.01 391.646 1384.73 391.369 1384.73 391.03V386.42C1384.73 386.081 1385.01 385.805 1385.35 385.805C1385.69 385.805 1385.96 386.081 1385.96 386.42V391.03C1385.97 391.369 1385.7 391.646 1385.35 391.646Z" fill="#1C1C1C"/>
<path d="M1385.35 445.044C1385.01 445.044 1384.73 444.768 1384.73 444.429V439.819C1384.73 439.479 1385.01 439.203 1385.35 439.203C1385.69 439.203 1385.96 439.479 1385.96 439.819V444.429C1385.97 444.768 1385.7 445.044 1385.35 445.044Z" fill="#1C1C1C"/>
<path d="M1414.35 416.04H1409.74C1409.4 416.04 1409.13 415.763 1409.13 415.424C1409.13 415.085 1409.4 414.809 1409.74 414.809H1414.35C1414.69 414.809 1414.97 415.085 1414.97 415.424C1414.97 415.763 1414.69 416.04 1414.35 416.04Z" fill="#1C1C1C"/>
<path d="M1360.97 416.04H1356.36C1356.02 416.04 1355.74 415.763 1355.74 415.424C1355.74 415.085 1356.02 414.809 1356.36 414.809H1360.97C1361.3 414.809 1361.58 415.085 1361.58 415.424C1361.58 415.763 1361.3 416.04 1360.97 416.04Z" fill="#1C1C1C"/>
<g opacity="0.1294">
<path d="M1415.53 424.681C1414.48 425.598 1413.99 427.08 1413.09 428.173C1412.93 428.487 1410.77 430.987 1409.55 432.18C1408.5 433.147 1407.49 434.002 1406.46 434.818C1406.29 434.856 1406.1 434.931 1405.92 435.032C1400.67 438.951 1396.73 440.383 1390.08 441.651C1386.93 442.254 1383.3 442.769 1378.33 441.501C1374.85 440.659 1373.16 439.679 1369.53 437.155C1367.99 436.037 1364.55 432.909 1362.21 429.995C1359.7 426.452 1358.83 423.35 1358.32 421.93C1357.79 420.473 1357.4 418.991 1356.98 417.509C1356.38 415.461 1356.19 414.745 1356.19 413.012C1355.8 411.907 1355.45 410.789 1355.14 409.658C1354.82 409.52 1354.48 409.445 1354.15 409.47C1353.58 413.954 1353.67 418.438 1354.21 422.91C1355.15 426.766 1356.32 430.949 1359.9 435.107C1362.79 438.385 1364.77 439.529 1366 440.584C1368.89 442.744 1371.98 444.704 1375.39 445.847C1377.25 446.4 1379.19 446.638 1381.11 446.877C1381.13 446.877 1381.13 446.877 1381.15 446.889C1383.24 447.279 1385.39 447.291 1387.48 447.053C1389.14 446.915 1390.72 446.412 1392.32 445.972C1395.63 445.131 1398.94 444.088 1401.97 442.443C1403.2 441.664 1403.62 441.35 1404.19 440.91C1412.72 434.303 1415.57 427.369 1416.9 423.463C1416.49 423.249 1415.97 424.417 1415.53 424.681Z" fill="#1C1C1C"/>
</g>
<path d="M1410.23 446.071C1408.39 446.046 1407.03 447.151 1406.17 448.797C1405.13 450.781 1406.39 453.545 1408.54 454.198C1410.68 454.851 1413.18 453.394 1413.8 451.233C1414.41 449.073 1412.68 446.108 1410.23 446.071Z" fill="#5EACF3"/>
<path d="M1409.6 454.966C1409.18 454.966 1408.76 454.903 1408.36 454.79C1407.14 454.426 1406.1 453.433 1405.57 452.165C1405.06 450.921 1405.08 449.602 1405.63 448.522C1406.68 446.525 1408.3 445.432 1410.24 445.47C1411.47 445.495 1412.67 446.148 1413.51 447.279C1414.44 448.522 1414.78 450.117 1414.4 451.424C1414.05 452.642 1413.16 453.722 1411.96 454.376C1411.21 454.752 1410.39 454.966 1409.6 454.966ZM1410.16 446.688C1408.35 446.688 1407.29 447.982 1406.71 449.075C1406.32 449.828 1406.31 450.771 1406.69 451.675C1407.08 452.617 1407.83 453.333 1408.71 453.597C1409.54 453.848 1410.51 453.722 1411.36 453.258C1412.28 452.768 1412.94 451.964 1413.21 451.047C1413.47 450.117 1413.21 448.911 1412.52 447.982C1411.91 447.165 1411.07 446.688 1410.23 446.676C1410.21 446.688 1410.18 446.688 1410.16 446.688Z" fill="#1C1C1C"/>
<path d="M1410.23 467.387C1408.39 467.362 1407.03 468.467 1406.17 470.113C1405.13 472.098 1406.39 474.861 1408.54 475.514C1410.68 476.167 1413.18 474.71 1413.8 472.55C1414.41 470.389 1412.68 467.425 1410.23 467.387Z" fill="#5EACF3"/>
<path d="M1409.6 476.282C1409.18 476.282 1408.76 476.219 1408.36 476.106C1407.14 475.742 1406.1 474.749 1405.56 473.481C1405.04 472.237 1405.07 470.918 1405.62 469.838C1406.66 467.841 1408.28 466.76 1410.23 466.786C1411.46 466.811 1412.66 467.464 1413.5 468.594C1414.43 469.838 1414.77 471.433 1414.39 472.74C1414.04 473.958 1413.15 475.038 1411.95 475.691C1411.21 476.068 1410.39 476.282 1409.6 476.282ZM1410.16 468.004C1408.35 468.004 1407.29 469.298 1406.71 470.391C1406.32 471.144 1406.31 472.086 1406.69 472.991C1407.08 473.933 1407.83 474.649 1408.71 474.925C1409.54 475.176 1410.51 475.051 1411.36 474.586C1412.28 474.096 1412.94 473.292 1413.21 472.375C1413.47 471.446 1413.21 470.24 1412.52 469.31C1411.91 468.494 1411.07 468.017 1410.23 468.004C1410.21 468.004 1410.18 468.004 1410.16 468.004Z" fill="#1C1C1C"/>
<path d="M1457.31 429.114H1421.52C1421.18 429.114 1420.91 428.837 1420.91 428.498C1420.91 428.159 1421.18 427.883 1421.52 427.883H1457.31C1457.65 427.883 1457.93 428.159 1457.93 428.498C1457.93 428.837 1457.65 429.114 1457.31 429.114Z" fill="#1C1C1C"/>
<path d="M1457.31 450.821H1421.52C1421.18 450.821 1420.91 450.544 1420.91 450.205C1420.91 449.866 1421.18 449.59 1421.52 449.59H1457.31C1457.65 449.59 1457.93 449.866 1457.93 450.205C1457.93 450.544 1457.65 450.821 1457.31 450.821Z" fill="#1C1C1C"/>
<path d="M1457.31 472.137H1421.52C1421.18 472.137 1420.91 471.861 1420.91 471.522C1420.91 471.183 1421.18 470.906 1421.52 470.906H1457.31C1457.65 470.906 1457.93 471.183 1457.93 471.522C1457.93 471.861 1457.65 472.137 1457.31 472.137Z" fill="#1C1C1C"/>
<path d="M1297.57 80.6055L1457.06 80.6055V-41.3815L1297.57 -41.3815V80.6055Z" fill="white"/>
<path d="M1457.06 81.0692H1297.58C1297.32 81.0692 1297.12 80.8639 1297.12 80.6121V-41.3749C1297.12 -41.6268 1297.32 -41.832 1297.58 -41.832H1457.06C1457.32 -41.832 1457.52 -41.6268 1457.52 -41.3749V80.6121C1457.52 80.8639 1457.32 81.0692 1457.06 81.0692ZM1298.03 80.155H1456.61V-40.9178H1298.03V80.155Z" fill="#1C1C1C"/>
<path d="M1330.37 -9.86328H1314.4V3.00986H1330.37V-9.86328Z" fill="white"/>
<path d="M1330.38 3.46701H1314.4C1314.15 3.46701 1313.95 3.26179 1313.95 3.00992V-9.86322C1313.95 -10.1151 1314.15 -10.3203 1314.4 -10.3203H1330.38C1330.64 -10.3203 1330.84 -10.1151 1330.84 -9.86322V3.00992C1330.84 3.26179 1330.64 3.46701 1330.38 3.46701ZM1314.85 2.55283H1329.92V-9.40613H1314.85V2.55283Z" fill="#1C1C1C"/>
<path d="M1357.61 -9.86328H1341.63V3.00986H1357.61V-9.86328Z" fill="white"/>
<path d="M1357.61 3.46701H1341.63C1341.38 3.46701 1341.18 3.26179 1341.18 3.00992V-9.86322C1341.18 -10.1151 1341.38 -10.3203 1341.63 -10.3203H1357.61C1357.87 -10.3203 1358.07 -10.1151 1358.07 -9.86322V3.00992C1358.07 3.26179 1357.87 3.46701 1357.61 3.46701ZM1342.09 2.55283H1357.16V-9.40613H1342.09V2.55283Z" fill="#1C1C1C"/>
<path d="M1384.85 -9.86328H1368.87V3.00986H1384.85V-9.86328Z" fill="white"/>
<path d="M1384.85 3.46701H1368.87C1368.62 3.46701 1368.42 3.26179 1368.42 3.00992V-9.86322C1368.42 -10.1151 1368.62 -10.3203 1368.87 -10.3203H1384.85C1385.1 -10.3203 1385.31 -10.1151 1385.31 -9.86322V3.00992C1385.31 3.26179 1385.1 3.46701 1384.85 3.46701ZM1369.33 2.55283H1384.4V-9.40613H1369.33V2.55283Z" fill="#1C1C1C"/>
<path d="M1413 -9.86328H1397.02V3.00986H1413V-9.86328Z" fill="white"/>
<path d="M1413 3.46701H1397.02C1396.77 3.46701 1396.56 3.26179 1396.56 3.00992V-9.86322C1396.56 -10.1151 1396.77 -10.3203 1397.02 -10.3203H1413C1413.25 -10.3203 1413.45 -10.1151 1413.45 -9.86322V3.00992C1413.45 3.26179 1413.26 3.46701 1413 3.46701ZM1397.47 2.55283H1412.54V-9.40613H1397.47V2.55283Z" fill="#1C1C1C"/>
<path d="M1440.24 -9.86328H1424.26V3.00986H1440.24V-9.86328Z" fill="white"/>
<path d="M1440.23 3.46701H1424.26C1424 3.46701 1423.8 3.26179 1423.8 3.00992V-9.86322C1423.8 -10.1151 1424 -10.3203 1424.26 -10.3203H1440.23C1440.49 -10.3203 1440.69 -10.1151 1440.69 -9.86322V3.00992C1440.69 3.26179 1440.49 3.46701 1440.23 3.46701ZM1424.71 2.55283H1439.78V-9.40613H1424.71V2.55283Z" fill="#1C1C1C"/>
<path d="M1330.37 17.668H1314.4V30.5411H1330.37V17.668Z" fill="white"/>
<path d="M1330.38 30.9983H1314.4C1314.15 30.9983 1313.95 30.793 1313.95 30.5412V17.668C1313.95 17.4162 1314.15 17.2109 1314.4 17.2109H1330.38C1330.64 17.2109 1330.84 17.4162 1330.84 17.668V30.5412C1330.84 30.8024 1330.64 30.9983 1330.38 30.9983ZM1314.85 30.0841H1329.92V18.1251H1314.85V30.0841Z" fill="#1C1C1C"/>
<path d="M1357.61 17.668H1341.63V30.5411H1357.61V17.668Z" fill="white"/>
<path d="M1357.61 30.9983H1341.63C1341.38 30.9983 1341.18 30.793 1341.18 30.5412V17.668C1341.18 17.4162 1341.38 17.2109 1341.63 17.2109H1357.61C1357.87 17.2109 1358.07 17.4162 1358.07 17.668V30.5412C1358.07 30.8024 1357.87 30.9983 1357.61 30.9983ZM1342.09 30.0841H1357.16V18.1251H1342.09V30.0841Z" fill="#1C1C1C"/>
<path d="M1384.85 17.668H1368.87V30.5411H1384.85V17.668Z" fill="white"/>
<path d="M1384.85 30.9983H1368.87C1368.62 30.9983 1368.42 30.793 1368.42 30.5412V17.668C1368.42 17.4162 1368.62 17.2109 1368.87 17.2109H1384.85C1385.1 17.2109 1385.31 17.4162 1385.31 17.668V30.5412C1385.31 30.8024 1385.1 30.9983 1384.85 30.9983ZM1369.33 30.0841H1384.4V18.1251H1369.33V30.0841Z" fill="#1C1C1C"/>
<path d="M1413 17.668H1397.02V30.5411H1413V17.668Z" fill="white"/>
<path d="M1413 30.9983H1397.02C1396.77 30.9983 1396.56 30.793 1396.56 30.5412V17.668C1396.56 17.4162 1396.77 17.2109 1397.02 17.2109H1413C1413.25 17.2109 1413.45 17.4162 1413.45 17.668V30.5412C1413.45 30.8024 1413.26 30.9983 1413 30.9983ZM1397.47 30.0841H1412.54V18.1251H1397.47V30.0841Z" fill="#1C1C1C"/>
<path d="M1440.24 17.668H1424.26V30.5411H1440.24V17.668Z" fill="white"/>
<path d="M1440.23 30.9983H1424.26C1424 30.9983 1423.8 30.793 1423.8 30.5412V17.668C1423.8 17.4162 1424 17.2109 1424.26 17.2109H1440.23C1440.49 17.2109 1440.69 17.4162 1440.69 17.668V30.5412C1440.69 30.8024 1440.49 30.9983 1440.23 30.9983ZM1424.71 30.0841H1439.78V18.1251H1424.71V30.0841Z" fill="#1C1C1C"/>
<path d="M1330.37 45.2031H1314.4V58.0763H1330.37V45.2031Z" fill="white"/>
<path d="M1330.38 58.5334H1314.4C1314.15 58.5334 1313.95 58.3282 1313.95 58.0763V45.2032C1313.95 44.9513 1314.15 44.7461 1314.4 44.7461H1330.38C1330.64 44.7461 1330.84 44.9513 1330.84 45.2032V58.0763C1330.84 58.3282 1330.64 58.5334 1330.38 58.5334ZM1314.85 57.6192H1329.92V45.6603H1314.85V57.6192Z" fill="#1C1C1C"/>
<path d="M1357.61 45.2031H1341.63V58.0763H1357.61V45.2031Z" fill="white"/>
<path d="M1357.61 58.5334H1341.63C1341.38 58.5334 1341.18 58.3282 1341.18 58.0763V45.2032C1341.18 44.9513 1341.38 44.7461 1341.63 44.7461H1357.61C1357.87 44.7461 1358.07 44.9513 1358.07 45.2032V58.0763C1358.07 58.3282 1357.87 58.5334 1357.61 58.5334ZM1342.09 57.6192H1357.16V45.6603H1342.09V57.6192Z" fill="#1C1C1C"/>
<path d="M1384.85 45.2031H1368.87V58.0763H1384.85V45.2031Z" fill="white"/>
<path d="M1384.85 58.5334H1368.87C1368.62 58.5334 1368.42 58.3282 1368.42 58.0763V45.2032C1368.42 44.9513 1368.62 44.7461 1368.87 44.7461H1384.85C1385.1 44.7461 1385.31 44.9513 1385.31 45.2032V58.0763C1385.31 58.3282 1385.1 58.5334 1384.85 58.5334ZM1369.33 57.6192H1384.4V45.6603H1369.33V57.6192Z" fill="#1C1C1C"/>
<path d="M1413 45.2031H1397.02V58.0763H1413V45.2031Z" fill="white"/>
<path d="M1413 58.5334H1397.02C1396.77 58.5334 1396.56 58.3282 1396.56 58.0763V45.2032C1396.56 44.9513 1396.77 44.7461 1397.02 44.7461H1413C1413.25 44.7461 1413.45 44.9513 1413.45 45.2032V58.0763C1413.45 58.3282 1413.26 58.5334 1413 58.5334ZM1397.47 57.6192H1412.54V45.6603H1397.47V57.6192Z" fill="#1C1C1C"/>
<path d="M1440.24 45.2031H1424.26V58.0763H1440.24V45.2031Z" fill="white"/>
<path d="M1440.23 58.5334H1424.26C1424 58.5334 1423.8 58.3282 1423.8 58.0763V45.2032C1423.8 44.9513 1424 44.7461 1424.26 44.7461H1440.23C1440.49 44.7461 1440.69 44.9513 1440.69 45.2032V58.0763C1440.69 58.3282 1440.49 58.5334 1440.23 58.5334ZM1424.71 57.6192H1439.78V45.6603H1424.71V57.6192Z" fill="#1C1C1C"/>
<path d="M1349.11 0.726426C1348.96 0.726426 1348.83 0.661125 1348.74 0.549184C1347.14 -1.53104 1345.66 -3.73253 1344.32 -5.99932C1344.19 -6.21388 1344.27 -6.49373 1344.48 -6.62433C1344.69 -6.75493 1344.97 -6.68029 1345.11 -6.46574C1346.32 -4.40417 1347.67 -2.38925 1349.11 -0.476934L1354.33 -6.9788C1354.49 -7.1747 1354.78 -7.21201 1354.97 -7.05343C1355.17 -6.89485 1355.21 -6.60567 1355.05 -6.40977L1349.46 0.549184C1349.38 0.661125 1349.25 0.726426 1349.11 0.726426Z" fill="#1C1C1C"/>
<path d="M1405.05 27.3596C1404.89 27.3596 1404.74 27.2756 1404.66 27.1357C1403.5 25.2047 1402.23 23.3111 1400.89 21.5014C1400.74 21.2961 1400.78 21.0163 1400.98 20.8577C1401.19 20.7084 1401.47 20.7458 1401.63 20.951C1402.83 22.5741 1403.97 24.2626 1405.03 25.979C1406.22 23.8148 1407.67 21.7999 1409.33 19.9715C1409.5 19.7849 1409.79 19.7756 1409.97 19.9435C1410.16 20.1114 1410.17 20.4006 1410 20.5872C1408.21 22.5555 1406.68 24.7476 1405.45 27.117C1405.38 27.2663 1405.23 27.3596 1405.06 27.3596C1405.06 27.3596 1405.06 27.3596 1405.05 27.3596Z" fill="#1C1C1C"/>
<path d="M1375.97 55.8115C1375.79 55.8115 1375.64 55.7089 1375.56 55.5596L1372.44 49.2164C1372.32 48.9925 1372.42 48.7126 1372.64 48.6007C1372.87 48.4887 1373.15 48.582 1373.26 48.8059L1375.94 54.263C1377.01 51.9309 1378.39 49.7761 1380.06 47.8171C1380.23 47.6212 1380.51 47.6025 1380.7 47.7705C1380.9 47.9384 1380.92 48.2275 1380.75 48.4141C1378.93 50.541 1377.46 52.9384 1376.39 55.5223C1376.33 55.6902 1376.17 55.8022 1375.98 55.8022C1375.98 55.8115 1375.98 55.8115 1375.97 55.8115Z" fill="#1C1C1C"/>
<path d="M1295.08 118.535C1319.17 118.535 1338.7 99.3191 1338.7 75.6151C1338.7 51.9112 1319.17 32.6953 1295.08 32.6953C1270.99 32.6953 1251.46 51.9112 1251.46 75.6151C1251.46 99.3191 1270.99 118.535 1295.08 118.535Z" fill="#5EACF3"/>
<path d="M1295.08 119C1270.78 119 1251 99.5409 1251 75.623C1251 51.7051 1270.78 32.2461 1295.08 32.2461C1319.38 32.2461 1339.15 51.7051 1339.15 75.623C1339.15 99.5409 1319.38 119 1295.08 119ZM1295.08 33.1509C1271.28 33.1509 1251.91 52.1995 1251.91 75.6136C1251.91 99.0278 1271.28 118.076 1295.08 118.076C1318.87 118.076 1338.24 99.0278 1338.24 75.6136C1338.24 52.1995 1318.87 33.1509 1295.08 33.1509Z" fill="#1C1C1C"/>
<path d="M1295.08 112.863C1315.98 112.863 1332.93 96.1869 1332.93 75.6153C1332.93 55.0437 1315.98 38.3672 1295.08 38.3672C1274.17 38.3672 1257.22 55.0437 1257.22 75.6153C1257.22 96.1869 1274.17 112.863 1295.08 112.863Z" fill="white"/>
<path d="M1295.08 113.321C1273.96 113.321 1256.77 96.4083 1256.77 75.6154C1256.77 54.8225 1273.95 37.9102 1295.08 37.9102C1316.2 37.9102 1333.39 54.8225 1333.39 75.6154C1333.38 96.4083 1316.2 113.321 1295.08 113.321ZM1295.08 38.8337C1274.46 38.8337 1257.68 55.3355 1257.68 75.6247C1257.68 95.9046 1274.45 112.416 1295.08 112.416C1315.69 112.416 1332.47 95.9139 1332.47 75.6247C1332.46 55.3355 1315.69 38.8337 1295.08 38.8337Z" fill="#1C1C1C"/>
<path d="M1296.08 79.1496L1311.23 64.5694L1315.07 58.1328L1308.32 61.9201L1293.86 77.0227L1296.08 79.1496Z" fill="#5EACF3"/>
<path d="M1296.08 79.6053C1295.97 79.6053 1295.86 79.5587 1295.77 79.4747L1293.55 77.3478C1293.36 77.1706 1293.36 76.8814 1293.54 76.7042L1308 61.6109C1308.02 61.5829 1308.06 61.5549 1308.1 61.527L1314.84 57.7303C1315.02 57.6277 1315.25 57.665 1315.39 57.8049C1315.54 57.9542 1315.56 58.1781 1315.46 58.3553L1311.62 64.7919C1311.61 64.8292 1311.58 64.8572 1311.55 64.8852L1296.4 79.4747C1296.32 79.568 1296.2 79.6053 1296.08 79.6053ZM1294.51 77.0027L1296.08 78.5139L1310.87 64.2788L1313.79 59.3721L1308.6 62.2919L1294.51 77.0027Z" fill="#1C1C1C"/>
<g opacity="0.1294">
<path d="M1297.56 73.2798C1297.55 73.6156 1297.77 73.9235 1298.08 74.0354C1298.09 74.0541 1298.1 74.0727 1298.11 74.082C1298.41 74.5298 1298.32 74.8283 1298.68 75.5466C1299.14 76.2555 1300.3 75.7145 1300.09 74.8936C1299.88 74.1753 1299.68 73.4104 1299.16 72.86C1298.61 72.3096 1297.62 72.3843 1297.56 73.2798Z" fill="#1C1C1C"/>
</g>
<path d="M1295.23 77.9367C1295.11 77.9367 1294.99 77.89 1294.9 77.7967L1272.82 54.5131C1272.64 54.3266 1272.65 54.0374 1272.84 53.8695C1273.02 53.6922 1273.31 53.7016 1273.48 53.8881L1295.56 77.1717C1295.74 77.3583 1295.73 77.6475 1295.54 77.8154C1295.46 77.89 1295.35 77.9367 1295.23 77.9367Z" fill="#1C1C1C"/>
<path d="M1294.75 73.1602C1293 73.3188 1291.41 74.69 1291.01 76.4065C1290.46 78.7012 1292.23 81.2759 1294.57 81.593C1296.91 81.9009 1299.29 79.8766 1299.35 77.5165C1299.4 75.1471 1297.1 72.9363 1294.75 73.1602Z" fill="white"/>
<path d="M1295.05 82.0786C1294.87 82.0786 1294.68 82.0693 1294.51 82.0413C1293.27 81.8734 1292.11 81.1364 1291.33 80.0077C1290.55 78.879 1290.27 77.5264 1290.56 76.3044C1291.02 74.4014 1292.76 72.8902 1294.71 72.7036C1295.94 72.5917 1297.22 73.0674 1298.23 74.0002C1299.26 74.9611 1299.83 76.2484 1299.81 77.517C1299.78 78.767 1299.16 79.9984 1298.12 80.8939C1297.22 81.6588 1296.13 82.0786 1295.05 82.0786ZM1295.08 73.5991C1294.98 73.5991 1294.89 73.5991 1294.8 73.6085C1293.23 73.7484 1291.82 74.9704 1291.46 76.5096C1291.22 77.4797 1291.46 78.5618 1292.09 79.4853C1292.73 80.3995 1293.65 81.0059 1294.64 81.1365C1295.63 81.2671 1296.68 80.9312 1297.53 80.2036C1298.38 79.476 1298.87 78.4965 1298.89 77.4984C1298.91 76.5002 1298.43 75.4368 1297.6 74.6719C1296.87 73.9816 1295.95 73.5991 1295.08 73.5991Z" fill="#1C1C1C"/>
<path d="M1295.59 47.3392C1295.34 47.3392 1295.13 47.134 1295.13 46.8821V41.5743C1295.13 41.3224 1295.34 41.1172 1295.59 41.1172C1295.84 41.1172 1296.05 41.3224 1296.05 41.5743V46.8821C1296.05 47.134 1295.84 47.3392 1295.59 47.3392Z" fill="#1C1C1C"/>
<path d="M1295.59 108.906C1295.34 108.906 1295.13 108.7 1295.13 108.449V103.141C1295.13 102.889 1295.34 102.684 1295.59 102.684C1295.84 102.684 1296.05 102.889 1296.05 103.141V108.449C1296.05 108.7 1295.84 108.906 1295.59 108.906Z" fill="#1C1C1C"/>
<path d="M1329.02 75.465H1323.71C1323.46 75.465 1323.26 75.2597 1323.26 75.0079C1323.26 74.756 1323.46 74.5508 1323.71 74.5508H1329.02C1329.27 74.5508 1329.48 74.756 1329.48 75.0079C1329.48 75.2597 1329.27 75.465 1329.02 75.465Z" fill="#1C1C1C"/>
<path d="M1267.45 75.465H1262.15C1261.9 75.465 1261.69 75.2597 1261.69 75.0079C1261.69 74.756 1261.9 74.5508 1262.15 74.5508H1267.45C1267.71 74.5508 1267.91 74.756 1267.91 75.0079C1267.91 75.2597 1267.71 75.465 1267.45 75.465Z" fill="#1C1C1C"/>
<g opacity="0.1294">
<path d="M1324.84 98.9892C1324.95 98.868 1325.05 98.7373 1325.14 98.6161C1325.82 97.6739 1326.47 96.6944 1327.04 95.659C1327.67 94.5489 1328.21 93.4015 1328.78 92.2635C1329 91.8157 1329.23 91.3586 1329.43 90.8922C1328.72 91.9556 1328.99 91.6571 1327.95 92.6832C1327.15 93.4109 1326.26 94.0452 1325.5 94.8194C1324.67 95.7243 1323.85 96.6385 1322.94 97.4687C1321.79 98.5694 1320.5 99.493 1319.33 100.575C1318.31 101.536 1317.88 102.049 1317.39 102.357C1315.47 103.812 1313.35 104.987 1311.2 106.06C1308.42 107.497 1306.11 108.29 1302.37 109.12C1299.16 109.791 1298.14 110.081 1294.91 109.941C1293.84 109.894 1292.75 109.866 1291.69 109.763C1291.46 109.745 1291.21 109.717 1290.98 109.68C1290.92 109.67 1290.86 109.661 1290.79 109.652C1288.58 109.232 1286.39 108.653 1284.27 107.907C1282.36 107.273 1282.08 106.984 1279.87 106.013C1278.64 105.444 1277.35 104.978 1276.23 104.194C1275.38 103.616 1275.27 103.402 1273.89 102.301C1271.68 100.631 1270.93 100.109 1269.04 98.5974C1267.44 97.3847 1267.36 97.4687 1265.88 96.1721C1264.3 94.7728 1262.97 93.2056 1262.3 92.2075C1261.76 91.4239 1261.26 90.603 1260.65 89.8661C1260.43 89.6049 1260.24 89.2691 1259.88 89.1758H1259.87C1260.49 90.5937 1261.16 91.9929 1261.91 93.3549C1262.75 94.8661 1263.68 96.3306 1264.54 97.8232C1265.63 99.1291 1266.76 100.388 1267.93 101.62C1269.09 102.534 1271.17 104.157 1271.79 104.745C1272.96 105.883 1274.17 107.002 1275.61 107.786C1276.37 108.196 1277.19 108.504 1277.99 108.849C1280.98 110.118 1280.74 110.099 1283.86 111.312C1286.95 112.375 1290.16 113.224 1293.44 113.262C1297.12 113.43 1298.55 113.29 1302.1 112.506C1303.63 112.142 1305.19 111.872 1306.7 111.424C1308.03 111.032 1309.93 110.174 1310.04 110.137C1313.83 108.485 1317.57 106.2 1319.85 104.11C1320.67 103.327 1321.48 102.525 1322.33 101.778C1323.21 100.864 1324.04 99.9407 1324.84 98.9892Z" fill="#1C1C1C"/>
</g>
<path d="M1420.96 679.617H1409.78V726.408H1420.96V679.617Z" fill="white"/>
<path d="M1420.96 727.021H1409.78C1409.44 727.021 1409.16 726.745 1409.16 726.406V679.616C1409.16 679.276 1409.44 679 1409.78 679H1420.96C1421.3 679 1421.57 679.276 1421.57 679.616V726.406C1421.57 726.745 1421.3 727.021 1420.96 727.021ZM1410.39 725.79H1420.34V680.231H1410.39V725.79Z" fill="#1C1C1C"/>
<path d="M1402.78 695.82H1391.6V726.407H1402.78V695.82Z" fill="#5EACF3"/>
<path d="M1402.79 727.021H1391.62C1391.28 727.021 1391 726.744 1391 726.405V695.819C1391 695.479 1391.28 695.203 1391.62 695.203H1402.79C1403.13 695.203 1403.41 695.479 1403.41 695.819V726.405C1403.41 726.744 1403.13 727.021 1402.79 727.021ZM1392.22 725.79H1402.17V696.434H1392.22V725.79Z" fill="#1C1C1C"/>
<path d="M1439.13 690.684H1427.95V726.408H1439.13V690.684Z" fill="white"/>
<path d="M1439.13 727.021H1427.96C1427.62 727.021 1427.34 726.745 1427.34 726.406V690.682C1427.34 690.343 1427.62 690.066 1427.96 690.066H1439.13C1439.47 690.066 1439.75 690.343 1439.75 690.682V726.406C1439.75 726.745 1439.47 727.021 1439.13 727.021ZM1428.57 725.79H1438.52V691.297H1428.57V725.79Z" fill="#1C1C1C"/>
<path d="M1435.63 724.836C1435.57 724.836 1435.5 724.811 1435.47 724.748C1435.4 724.66 1435.42 724.522 1435.52 724.459C1436.22 723.944 1436.9 723.392 1437.54 722.801C1437.63 722.726 1437.75 722.726 1437.83 722.814C1437.9 722.902 1437.9 723.027 1437.82 723.103C1437.16 723.706 1436.47 724.271 1435.76 724.798C1435.71 724.824 1435.67 724.836 1435.63 724.836Z" fill="#1C1C1C"/>
<path d="M1431.94 724.762C1431.87 724.762 1431.82 724.737 1431.77 724.686C1431.7 724.598 1431.71 724.473 1431.8 724.397L1437.45 719.674C1437.54 719.599 1437.67 719.612 1437.74 719.7C1437.82 719.788 1437.8 719.913 1437.72 719.989L1432.06 724.712C1432.03 724.749 1431.99 724.762 1431.94 724.762Z" fill="#1C1C1C"/>
<path d="M1429.6 722.686C1429.54 722.686 1429.47 722.661 1429.44 722.611C1429.37 722.523 1429.39 722.397 1429.47 722.322L1437.45 716.242C1437.54 716.18 1437.66 716.192 1437.74 716.28C1437.8 716.368 1437.79 716.494 1437.7 716.569L1429.73 722.649C1429.69 722.674 1429.65 722.686 1429.6 722.686Z" fill="#1C1C1C"/>
<path d="M1429.5 719.046C1429.44 719.046 1429.37 719.008 1429.32 718.958C1429.26 718.857 1429.29 718.732 1429.39 718.669C1432.14 716.86 1434.85 714.901 1437.45 712.853C1437.54 712.778 1437.66 712.803 1437.74 712.891C1437.82 712.979 1437.79 713.104 1437.7 713.18C1435.1 715.227 1432.38 717.187 1429.61 719.008C1429.59 719.033 1429.54 719.046 1429.5 719.046Z" fill="#1C1C1C"/>
<path d="M1429.61 715.275C1429.55 715.275 1429.49 715.25 1429.45 715.187C1429.39 715.1 1429.41 714.961 1429.5 714.899C1432.19 713.04 1434.86 711.105 1437.45 709.133C1437.54 709.07 1437.66 709.083 1437.74 709.171C1437.8 709.259 1437.79 709.384 1437.7 709.46C1435.1 711.444 1432.43 713.379 1429.73 715.238C1429.69 715.263 1429.65 715.275 1429.61 715.275Z" fill="#1C1C1C"/>
<path d="M1429.65 711.481C1429.59 711.481 1429.53 711.456 1429.49 711.393C1429.42 711.306 1429.45 711.167 1429.54 711.105L1437.58 705.465C1437.66 705.402 1437.8 705.427 1437.87 705.515C1437.93 705.603 1437.9 705.741 1437.82 705.804L1429.78 711.444C1429.74 711.469 1429.7 711.481 1429.65 711.481Z" fill="#1C1C1C"/>
<path d="M1429.63 707.968C1429.56 707.968 1429.5 707.93 1429.45 707.88C1429.39 707.792 1429.41 707.654 1429.51 707.591C1432.23 705.795 1434.94 703.886 1437.54 701.926C1437.63 701.863 1437.75 701.876 1437.83 701.964C1437.89 702.052 1437.88 702.177 1437.79 702.253C1435.18 704.225 1432.46 706.134 1429.74 707.943C1429.7 707.968 1429.66 707.968 1429.63 707.968Z" fill="#1C1C1C"/>
<path d="M1429.86 703.858C1429.8 703.858 1429.74 703.832 1429.7 703.77C1429.64 703.682 1429.65 703.544 1429.75 703.481L1437.39 697.992C1437.48 697.929 1437.62 697.941 1437.68 698.042C1437.74 698.13 1437.73 698.268 1437.63 698.331L1429.99 703.82C1429.95 703.845 1429.9 703.858 1429.86 703.858Z" fill="#1C1C1C"/>
<path d="M1429.9 700.177C1429.84 700.177 1429.78 700.151 1429.74 700.089C1429.68 700.001 1429.7 699.863 1429.79 699.8C1432.33 698.016 1434.88 696.17 1437.35 694.285C1437.44 694.223 1437.56 694.235 1437.64 694.323C1437.7 694.411 1437.69 694.537 1437.6 694.612C1435.12 696.496 1432.57 698.343 1430.03 700.126C1429.98 700.164 1429.94 700.177 1429.9 700.177Z" fill="#1C1C1C"/>
<path d="M1429.63 696.774C1429.56 696.774 1429.5 696.749 1429.46 696.699C1429.4 696.611 1429.41 696.485 1429.5 696.41L1434.64 692.516C1434.73 692.453 1434.85 692.466 1434.93 692.554C1434.99 692.641 1434.98 692.767 1434.89 692.842L1429.75 696.736C1429.71 696.761 1429.66 696.774 1429.63 696.774Z" fill="#1C1C1C"/>
<path d="M1429.63 693.507C1429.56 693.507 1429.5 693.482 1429.46 693.432C1429.39 693.344 1429.41 693.218 1429.5 693.143L1430.82 692.088C1430.91 692.012 1431.03 692.037 1431.11 692.125C1431.18 692.213 1431.16 692.339 1431.07 692.414L1429.75 693.469C1429.71 693.494 1429.68 693.507 1429.63 693.507Z" fill="#1C1C1C"/>
<path d="M920.498 738.586C899.546 739.108 885.655 740.38 864.722 739.181C864.09 723.44 865.555 708.257 875.106 697.644C879.254 693.029 885.197 689.256 886.488 682.827C887.514 677.69 880.609 673.258 877.661 669.183C873.604 663.588 865.344 657.59 864.346 630.934C881.003 630.512 917.641 630.842 919.07 631.263C918.557 642.362 917.293 654.733 911.725 663.872C909.812 667.013 906.414 670.63 903.832 673.551C901.451 676.253 898.713 679.357 899.482 683.066C901.03 690.483 912.833 696.078 917.897 710.546C921.716 721.507 921.478 726.626 920.498 738.586Z" fill="white"/>
<path d="M882.193 740.134C876.745 740.134 871.049 739.996 864.694 739.63C864.465 739.621 864.282 739.429 864.273 739.2C863.732 725.748 864.438 708.835 874.767 697.342C875.875 696.106 877.129 694.916 878.338 693.771C881.671 690.603 885.124 687.324 886.039 682.746C886.717 679.358 883.64 676.235 880.664 673.213C879.382 671.913 878.173 670.686 877.285 669.459C876.736 668.699 876.095 667.911 875.408 667.087C871.168 661.913 864.749 654.093 863.888 630.971C863.879 630.852 863.925 630.733 864.007 630.651C864.09 630.559 864.199 630.513 864.328 630.513C880.811 630.092 917.659 630.412 919.188 630.861C919.39 630.916 919.518 631.108 919.509 631.31C918.996 642.363 917.714 654.908 912.101 664.138C910.471 666.812 907.797 669.797 905.443 672.435C905.004 672.929 904.564 673.415 904.161 673.882C901.826 676.519 899.189 679.513 899.912 683.011C900.572 686.189 903.301 689.128 906.451 692.544C910.471 696.894 915.471 702.305 918.318 710.437C922.174 721.453 921.936 726.728 920.956 738.641C920.937 738.87 920.745 739.044 920.516 739.053C914.866 739.191 909.766 739.392 904.83 739.575C897.037 739.859 889.867 740.134 882.193 740.134ZM865.152 738.751C880.215 739.594 891.616 739.163 904.793 738.659C909.61 738.476 914.591 738.284 920.086 738.147C921.02 726.645 921.212 721.426 917.467 710.712C914.683 702.763 909.756 697.425 905.791 693.139C902.55 689.632 899.748 686.601 899.033 683.176C898.209 679.239 901.011 676.07 903.484 673.268C903.896 672.801 904.326 672.316 904.775 671.821C907.11 669.211 909.747 666.263 911.331 663.653C916.771 654.706 918.071 642.5 918.593 631.658C914.656 631.301 881.36 630.98 864.804 631.374C865.729 653.836 871.965 661.455 876.104 666.501C876.791 667.343 877.441 668.131 878.008 668.918C878.86 670.091 880.041 671.299 881.305 672.572C884.299 675.612 887.697 679.055 886.918 682.911C885.948 687.773 882.395 691.152 878.952 694.412C877.752 695.547 876.516 696.729 875.426 697.938C865.417 709.073 864.648 725.537 865.152 738.751Z" fill="#1C1C1C"/>
<path d="M925.315 626.898H858.458V634.6H925.315V626.898Z" fill="#5EACF3"/>
<path d="M925.315 635.048H858.458C858.211 635.048 858.009 634.846 858.009 634.599V626.898C858.009 626.651 858.211 626.449 858.458 626.449H925.315C925.562 626.449 925.763 626.651 925.763 626.898V634.599C925.763 634.846 925.562 635.048 925.315 635.048ZM858.907 634.15H924.866V627.347H858.907V634.15Z" fill="#1C1C1C"/>
<path d="M893.786 672.729C893.731 672.729 893.686 672.72 893.631 672.702C885.462 669.762 879.382 663.92 876.058 655.816C876.003 655.688 876.012 655.532 876.085 655.413C876.159 655.294 876.287 655.211 876.424 655.193C878.805 654.955 881.204 655.138 883.539 655.724C883.952 655.825 884.364 655.944 884.776 656.063C885.865 656.374 886.891 656.667 887.944 656.722C889.931 656.841 891.827 656.155 893.841 655.422C894.482 655.193 895.142 654.955 895.801 654.744C899.574 653.554 903.603 653.316 907.458 654.048C907.595 654.076 907.714 654.168 907.779 654.296C907.843 654.424 907.843 654.57 907.779 654.699C904.317 661.557 899.583 667.748 894.089 672.61C894.006 672.692 893.896 672.729 893.786 672.729ZM877.129 656.045C880.371 663.535 886.076 668.966 893.686 671.768C898.869 667.134 903.356 661.292 906.698 654.836C903.163 654.259 899.5 654.525 896.066 655.605C895.425 655.807 894.775 656.045 894.143 656.274C892.138 656.997 890.059 657.757 887.889 657.62C886.735 657.547 885.609 657.235 884.528 656.924C884.126 656.814 883.723 656.695 883.32 656.594C881.287 656.091 879.208 655.898 877.129 656.045Z" fill="#1C1C1C"/>
<path d="M869.694 731.269C869.548 731.269 869.419 731.205 869.328 731.086C869.236 730.967 869.218 730.802 869.273 730.665C871.883 723.733 876.104 719.237 879.886 715.748C880.976 714.75 882.102 713.761 883.201 712.799C886.314 710.07 889.547 707.25 892.596 703.505C892.679 703.395 892.807 703.34 892.953 703.34C893.091 703.34 893.219 703.404 893.301 703.514C895.728 706.682 898.942 709.008 902.056 711.261C903.42 712.25 904.839 713.275 906.176 714.365C912.019 719.109 914.72 724.438 914.207 730.207C914.189 730.454 913.969 730.637 913.722 730.619C901.982 729.731 890.014 730.308 878.448 730.857L869.712 731.269C869.712 731.269 869.703 731.269 869.694 731.269ZM892.944 704.503C889.95 708.092 886.827 710.821 883.796 713.477C882.651 714.475 881.58 715.418 880.5 716.407C876.91 719.713 872.927 723.934 870.363 730.335L878.412 729.951C889.858 729.41 901.698 728.843 913.346 729.685C913.658 724.392 911.057 719.475 905.609 715.052C904.29 713.98 902.889 712.964 901.524 711.984C898.512 709.805 895.398 707.543 892.944 704.503Z" fill="#1C1C1C"/>
<path d="M893.063 684.787C892.825 684.787 892.623 684.595 892.614 684.348L892.477 679.833C892.468 679.586 892.66 679.375 892.907 679.375C893.155 679.366 893.365 679.558 893.374 679.806L893.512 684.32C893.521 684.567 893.328 684.778 893.072 684.778C893.072 684.787 893.063 684.787 893.063 684.787Z" fill="#1C1C1C"/>
<path d="M893.072 694.589C892.834 694.589 892.633 694.397 892.623 694.159L892.459 689.882C892.449 689.635 892.642 689.424 892.889 689.415C893.136 689.397 893.347 689.598 893.356 689.846L893.521 694.122C893.53 694.369 893.338 694.58 893.09 694.589C893.081 694.589 893.081 694.589 893.072 694.589Z" fill="#1C1C1C"/>
<path d="M879.611 727.709C879.556 727.709 879.501 727.681 879.474 727.626L877.056 722.901C877.02 722.828 877.047 722.736 877.121 722.7C877.194 722.663 877.285 722.691 877.322 722.764L879.739 727.489C879.776 727.562 879.749 727.654 879.675 727.69C879.657 727.7 879.639 727.709 879.611 727.709Z" fill="#1C1C1C"/>
<path d="M884.977 727.024C884.922 727.024 884.877 726.997 884.849 726.951C883.494 724.57 882.267 722.061 881.195 719.515C881.168 719.442 881.195 719.35 881.278 719.323C881.351 719.295 881.443 719.323 881.47 719.405C882.532 721.942 883.759 724.433 885.105 726.813C885.142 726.887 885.124 726.978 885.051 727.015C885.032 727.024 885.005 727.024 884.977 727.024Z" fill="#1C1C1C"/>
<path d="M889.739 726.923C889.684 726.923 889.638 726.896 889.611 726.85C887.651 723.416 885.838 719.836 884.199 716.2C884.162 716.127 884.199 716.035 884.272 715.999C884.345 715.962 884.437 715.999 884.473 716.072C886.103 719.698 887.917 723.27 889.867 726.694C889.904 726.768 889.885 726.859 889.812 726.896C889.794 726.914 889.766 726.923 889.739 726.923Z" fill="#1C1C1C"/>
<path d="M894.189 726.546C894.134 726.546 894.079 726.518 894.061 726.463C891.845 722.224 889.675 717.874 887.596 713.552C887.56 713.479 887.596 713.387 887.669 713.35C887.743 713.314 887.834 713.35 887.871 713.424C889.95 717.746 892.12 722.086 894.336 726.326C894.372 726.399 894.345 726.491 894.272 726.527C894.235 726.546 894.217 726.546 894.189 726.546Z" fill="#1C1C1C"/>
<path d="M899.336 726.848C899.281 726.848 899.226 726.82 899.198 726.765L890.865 710.374C890.829 710.301 890.856 710.209 890.929 710.172C891.003 710.136 891.094 710.163 891.131 710.236L899.464 726.628C899.501 726.701 899.473 726.793 899.4 726.829C899.381 726.838 899.363 726.848 899.336 726.848Z" fill="#1C1C1C"/>
<path d="M904.061 727.014C904.006 727.014 903.951 726.986 903.933 726.931C901.048 721.474 898.182 715.906 895.389 710.393C895.353 710.32 895.38 710.229 895.453 710.192C895.527 710.155 895.618 710.183 895.655 710.256C898.439 715.769 901.314 721.336 904.189 726.794C904.226 726.867 904.198 726.959 904.125 726.995C904.107 727.005 904.089 727.014 904.061 727.014Z" fill="#1C1C1C"/>
<path d="M908.987 727.535C908.932 727.535 908.877 727.507 908.85 727.452L903.026 716.225C902.989 716.152 903.017 716.061 903.09 716.024C903.163 715.987 903.255 716.015 903.291 716.088L909.115 727.315C909.152 727.388 909.125 727.48 909.051 727.516C909.033 727.525 909.015 727.535 908.987 727.535Z" fill="#1C1C1C"/>
<path d="M910.27 724.568C910.215 724.568 910.151 724.531 910.132 724.476C909.629 723.24 909.042 722.022 908.392 720.868C908.356 720.795 908.374 720.703 908.447 720.667C908.521 720.63 908.612 720.648 908.649 720.722C909.308 721.885 909.903 723.112 910.407 724.357C910.434 724.43 910.398 724.522 910.324 724.549C910.306 724.559 910.288 724.568 910.27 724.568Z" fill="#1C1C1C"/>
<path d="M883.127 662.426C883.072 662.426 883.017 662.39 882.99 662.335L881.14 657.976C881.104 657.903 881.14 657.811 881.223 657.784C881.296 657.747 881.387 657.784 881.415 657.866L883.265 662.225C883.301 662.298 883.265 662.39 883.182 662.417C883.164 662.426 883.146 662.426 883.127 662.426Z" fill="#1C1C1C"/>
<path d="M888.264 667.436C888.21 667.436 888.155 667.408 888.127 667.353C886.726 664.633 885.508 661.786 884.51 658.864C884.483 658.782 884.528 658.7 884.602 658.672C884.684 658.645 884.766 658.69 884.794 658.764C885.792 661.667 887.001 664.505 888.402 667.216C888.438 667.289 888.411 667.381 888.338 667.417C888.31 667.436 888.292 667.436 888.264 667.436Z" fill="#1C1C1C"/>
<path d="M892.505 669.798C892.45 669.798 892.395 669.771 892.367 669.716C890.765 666.502 889.364 663.123 888.21 659.689C888.182 659.606 888.228 659.524 888.302 659.496C888.384 659.469 888.466 659.515 888.494 659.588C889.638 663.013 891.04 666.373 892.633 669.578C892.669 669.652 892.642 669.743 892.569 669.78C892.55 669.798 892.523 669.798 892.505 669.798Z" fill="#1C1C1C"/>
<path d="M894.885 667.895C894.83 667.895 894.775 667.868 894.748 667.813C893.484 665.13 892.303 662.364 891.232 659.58C891.204 659.507 891.241 659.415 891.314 659.388C891.387 659.361 891.479 659.397 891.506 659.47C892.568 662.245 893.75 665.001 895.013 667.675C895.05 667.749 895.013 667.84 894.94 667.877C894.931 667.886 894.904 667.895 894.885 667.895Z" fill="#1C1C1C"/>
<path d="M897.422 664.808C897.367 664.808 897.321 664.78 897.294 664.735C896.122 662.729 895.078 660.614 894.208 658.444C894.18 658.37 894.217 658.279 894.29 658.251C894.364 658.224 894.455 658.26 894.483 658.334C895.353 660.495 896.378 662.601 897.55 664.588C897.596 664.661 897.569 664.753 897.495 664.79C897.468 664.799 897.45 664.808 897.422 664.808Z" fill="#1C1C1C"/>
<path d="M899.839 661.822C899.784 661.822 899.729 661.795 899.711 661.74C898.979 660.339 898.31 658.883 897.724 657.408C897.696 657.335 897.733 657.244 897.806 657.216C897.88 657.189 897.971 657.225 897.999 657.299C898.585 658.764 899.244 660.211 899.977 661.602C900.013 661.676 899.986 661.767 899.913 661.804C899.885 661.822 899.858 661.822 899.839 661.822Z" fill="#1C1C1C"/>
<path d="M902.184 659.049C902.129 659.049 902.074 659.012 902.046 658.957L900.984 656.567C900.947 656.494 900.984 656.403 901.057 656.366C901.131 656.329 901.222 656.366 901.259 656.439L902.321 658.829C902.358 658.902 902.321 658.994 902.248 659.031C902.229 659.049 902.202 659.049 902.184 659.049Z" fill="#1C1C1C"/>
<g opacity="0.1294">
<path d="M904.024 654.084C902.44 656.493 900.664 658.947 898.182 661.859C897.376 662.83 896.653 663.874 895.856 664.844C895.087 665.787 894.254 666.676 893.448 667.573C893.155 667.93 892.733 668.214 892.605 668.69C892.056 669.862 893.017 671.355 894.199 671.318C895.123 671.318 895.691 670.485 896.314 669.862C897.752 668.452 899.043 666.886 900.306 665.293C902.083 663.251 903.63 660.998 905.105 658.691C905.608 657.921 906.103 657.152 906.57 656.365C906.781 656.007 907.055 655.66 907.055 655.22C907.357 653.324 904.894 652.418 904.024 654.084Z" fill="#1C1C1C"/>
</g>
<g opacity="0.1294">
<path d="M912.595 725.28C912.211 724.3 911.817 723.33 911.405 722.359C909.29 717.286 905.279 713.632 901.167 710.491C898.951 708.816 898.612 708.623 896.973 707.076C896.213 706.453 895.645 705.482 894.775 705.034C892.944 704.118 891.287 706.801 892.724 708.339C897.861 714.191 900.783 714.713 905.645 720.985C906.561 722.341 907.33 723.824 907.953 725.363C908.108 725.729 908.621 727.011 908.768 727.359C908.768 727.368 908.777 727.377 908.777 727.386C908.969 728.055 909.271 728.714 909.866 729.062C910.846 729.712 912.238 729.309 912.797 728.229C913.355 727.258 913.017 726.214 912.595 725.28Z" fill="#1C1C1C"/>
</g>
<g opacity="0.1294">
<path d="M916.515 726.765C916.606 729.586 916.377 732.415 916.396 735.236C916.368 735.73 916.423 736.142 916.524 736.49C917.275 736.49 918.035 736.49 918.786 736.435C919.198 736.408 919.61 736.344 920.031 736.344C920.141 736.344 920.242 736.344 920.352 736.344C920.535 735.126 920.425 733.89 920.425 732.653C920.452 729.549 920.635 726.427 920.425 723.331C919.894 718.844 918.767 714.284 917.137 710.127C916.222 708.085 915.315 706.024 914.225 704.074C912.705 701.437 910.846 699.047 908.896 696.766C905.901 693.094 903.658 691.428 901.863 687.289C901.854 687.252 901.836 687.234 901.827 687.206C901.497 686.336 901.186 685.457 900.929 684.56C900.609 683.717 900.654 682.701 900.206 681.932C900.114 681.785 900.004 681.675 899.885 681.593C899.904 681.437 899.958 681.126 900.004 680.934C900.49 679.102 900.545 678.928 901.076 677.884C902.468 675.348 903.374 674.634 905.325 672.106C908.246 668.361 910.251 665.925 912.861 661.346C914.317 658.435 915.343 655.294 916.295 652.153C916.936 649.451 917.385 646.704 917.806 643.948C918.117 641.787 918.401 639.616 918.648 637.446C918.657 636.897 918.804 637.098 918.758 636.082C918.749 635.853 918.685 635.633 918.566 635.432C917.907 634.122 915.938 634.388 915.617 635.853C915.013 640.67 914.28 645.468 913.099 650.166C912.559 652.519 910.782 656.969 910.581 657.61C909.39 660.577 907.586 663.196 905.865 665.815C905.746 666.035 903.118 669.625 901.35 671.804C898.988 674.679 896.845 678.113 896.671 682.078C896.634 683.406 896.927 684.697 897.394 685.915C897.678 686.62 897.816 687.417 898.219 688.049C898.374 688.287 898.567 688.443 898.777 688.543C899.253 689.569 899.821 690.54 900.471 691.446C902.211 694.743 905.297 698.323 905.892 699.248C907.76 701.895 908.585 702.948 910.48 706.299C911.579 708.277 912.504 710.356 913.429 712.425C913.465 712.508 913.493 712.59 913.529 712.673C913.539 712.709 913.557 712.737 913.566 712.782C914.72 716.061 915.471 719.504 916.13 722.929C916.441 725.163 916.405 723.661 916.515 726.765Z" fill="#1C1C1C"/>
</g>
<g opacity="0.1294">
<path d="M923.877 626.421C923.08 625.67 921.578 625.908 921.258 627.255C920.928 628.674 920.864 630.148 920.809 631.604C920.827 632.328 920.644 633.124 920.919 633.802C921.111 634.406 921.67 634.782 922.247 634.837C922.402 635.075 922.613 635.276 922.924 635.414C923.62 635.789 924.518 635.423 924.902 634.709C925.195 634.177 925.113 633.546 925.205 632.96C925.223 632.648 925.342 631.54 925.351 631.375C925.397 631.018 925.452 630.652 925.534 630.304C925.58 630.112 925.644 629.919 925.708 629.727C925.791 629.535 925.919 629.251 926.02 629.114C926.203 628.793 926.441 628.463 926.441 628.07C926.688 626.458 924.911 625.579 923.877 626.421Z" fill="#1C1C1C"/>
</g>
<path d="M965.89 713.223H905.654V790.335H965.89V713.223Z" fill="white"/>
<path d="M965.89 790.783H905.654C905.407 790.783 905.205 790.582 905.205 790.335V713.222C905.205 712.975 905.407 712.773 905.654 712.773H965.89C966.137 712.773 966.339 712.975 966.339 713.222V790.335C966.339 790.582 966.137 790.783 965.89 790.783ZM906.103 789.886H965.441V713.671H906.103V789.886Z" fill="#1C1C1C"/>
<path d="M919.436 730.326C919.262 730.326 919.106 730.225 919.033 730.079C918.383 728.797 917.595 727.57 916.68 726.453C916.524 726.26 916.551 725.976 916.744 725.821C916.936 725.665 917.22 725.692 917.376 725.885C918.154 726.837 918.841 727.863 919.436 728.934L922.11 724.117C922.229 723.898 922.504 723.824 922.723 723.943C922.943 724.062 923.016 724.337 922.897 724.557L919.82 730.097C919.747 730.234 919.601 730.326 919.436 730.326Z" fill="#1C1C1C"/>
<path d="M932.961 730.565C931.477 730.565 929.994 730.556 928.51 730.547C928.263 730.547 928.062 730.346 928.062 730.098C928.062 729.851 928.263 729.65 928.51 729.65C937.365 729.723 946.349 729.576 955.204 729.192C955.451 729.183 955.662 729.375 955.671 729.622C955.68 729.869 955.488 730.08 955.24 730.089C947.86 730.41 940.387 730.565 932.961 730.565Z" fill="#1C1C1C"/>
<path d="M166.864 500.962C165.407 547.363 165.846 593.815 168.195 640.191C128.364 638.922 88.8588 638.533 49.4167 639.563C48.5751 592.584 48.8514 546.321 48.8389 499.543C87.2007 499.543 125.563 499.53 166.864 500.962Z" fill="white"/>
<path d="M168.195 640.806C168.183 640.806 168.183 640.806 168.17 640.806C124.947 639.425 86.108 639.224 49.4168 640.178C49.2535 640.191 49.0902 640.116 48.9771 640.003C48.8641 639.89 48.7887 639.739 48.7887 639.563C48.123 602.193 48.1607 564.585 48.1984 528.221C48.2109 518.674 48.2235 509.115 48.2109 499.543C48.2109 499.38 48.2737 499.229 48.3868 499.104C48.4998 498.991 48.6631 498.928 48.8264 498.928C86.5477 498.915 125.55 498.915 166.876 500.347C167.216 500.36 167.479 500.649 167.467 500.988C166.022 547.175 166.462 594.004 168.798 640.166C168.811 640.342 168.748 640.505 168.622 640.631C168.522 640.731 168.359 640.806 168.195 640.806ZM95.9183 638.357C118.604 638.357 142.319 638.759 167.542 639.55C165.256 593.777 164.804 547.364 166.236 501.553C125.374 500.159 86.7863 500.159 49.4545 500.159C49.4545 509.53 49.4419 518.888 49.4419 528.221C49.4042 564.384 49.3665 601.779 50.0197 638.922C64.9047 638.545 80.1666 638.357 95.9183 638.357Z" fill="#1C1C1C"/>
<path d="M155.508 508.106C153.122 548.729 154.441 588.686 157.091 629.296C124.746 628.756 92.5266 628.216 60.4077 629.422C60.0559 588.473 59.139 548.327 58.4355 507.98C92.0493 508.32 124.482 508.408 155.508 508.106Z" fill="white"/>
<path d="M60.4075 630.039C60.2442 630.039 60.0935 629.976 59.9805 629.863C59.8549 629.75 59.792 629.587 59.792 629.423C59.5283 599.226 58.963 568.992 58.3978 539.749C58.1968 529.16 57.9958 518.583 57.8074 507.994C57.8074 507.831 57.8702 507.668 57.9832 507.555C58.0963 507.442 58.2721 507.379 58.4229 507.379C94.8001 507.731 126.555 507.768 155.483 507.505C155.659 507.505 155.822 507.567 155.935 507.693C156.048 507.819 156.111 507.982 156.099 508.158C154.026 543.404 154.516 580.761 157.681 629.273C157.694 629.449 157.631 629.612 157.518 629.737C157.405 629.863 157.229 629.926 157.066 629.926L156.601 629.913C125.022 629.386 92.3758 628.846 60.4075 630.051C60.4201 630.039 60.4201 630.039 60.4075 630.039ZM59.0509 508.61C59.2393 518.985 59.4278 529.361 59.6287 539.724C60.1814 568.765 60.7467 598.787 61.0105 628.783C92.7275 627.615 125.11 628.142 156.438 628.67C153.323 580.736 152.833 543.681 154.855 508.723C126.253 508.999 94.9006 508.962 59.0509 508.61Z" fill="#1C1C1C"/>
<path d="M138.023 497.682C134.079 497.494 122.247 497.368 118.24 497.293C116.406 495.584 118.441 487.068 115.225 483.903C112.951 481.667 109.472 481.591 108.429 481.616C106.206 481.667 103.392 481.842 101.495 483.651C98.0914 486.88 98.9456 496.589 98.2296 497.268C93.9713 497.318 81.473 497.406 77.2021 497.519C77.2021 510.331 82.415 512.504 94.9134 512.894C114.358 513.497 126.342 513.421 131.291 511.386C137.521 508.811 139.116 503.724 138.023 497.682ZM103.43 497.205C103.43 494.492 102.739 488.387 108.567 488.387C112.637 488.387 111.745 496.564 112.122 497.205C109.233 497.192 106.344 497.192 103.43 497.205Z" fill="#5EACF3"/>
<path d="M111.934 513.824C107.048 513.824 101.37 513.699 94.8757 513.498C82.2141 513.108 76.5615 510.709 76.5615 497.507C76.5615 497.168 76.8253 496.904 77.1645 496.892C80.041 496.817 86.623 496.754 91.9113 496.716C94.2728 496.691 96.3705 496.678 97.7899 496.653C97.8779 496.188 97.9407 495.234 97.9909 494.38C98.217 490.875 98.5562 485.574 101.056 483.2C103.254 481.115 106.608 481.04 108.404 481.002C109.798 480.977 113.278 481.153 115.639 483.464C117.649 485.436 117.775 489.054 117.9 492.244C117.963 494.066 118.039 495.95 118.516 496.678C119.609 496.704 121.166 496.716 122.963 496.741C128.113 496.817 135.172 496.917 138.049 497.055C138.337 497.068 138.576 497.281 138.626 497.558C139.895 504.63 137.508 509.466 131.504 511.928C128.138 513.322 121.619 513.824 111.934 513.824ZM77.8051 498.11C77.9558 509.667 82.503 511.89 94.9134 512.267C114.107 512.857 126.166 512.807 131.039 510.797C136.29 508.637 138.463 504.429 137.496 498.274C134.381 498.148 127.811 498.048 122.95 497.985C121.003 497.96 119.32 497.934 118.227 497.909C118.076 497.909 117.926 497.847 117.825 497.746C116.845 496.829 116.77 494.832 116.682 492.295C116.569 489.33 116.456 485.976 114.798 484.343C112.775 482.359 109.685 482.195 108.454 482.233C106.193 482.283 103.643 482.472 101.923 484.092C99.762 486.14 99.4355 491.34 99.2345 494.455C99.0963 496.641 99.0335 497.344 98.6441 497.708C98.531 497.809 98.3803 497.872 98.2296 497.872C96.8227 497.884 94.5366 497.909 91.9364 497.934C86.9873 497.985 80.9077 498.048 77.8051 498.11ZM112.122 497.821C109.271 497.796 106.357 497.796 103.442 497.821C103.279 497.821 103.128 497.759 103.003 497.646C102.89 497.533 102.827 497.369 102.827 497.206C102.827 496.967 102.827 496.704 102.814 496.427C102.777 494.317 102.714 491.139 104.56 489.255C105.515 488.275 106.872 487.785 108.58 487.785C112.323 487.785 112.524 493.186 112.625 495.787C112.637 496.264 112.662 496.804 112.7 496.955C112.788 497.131 112.775 497.344 112.675 497.52C112.549 497.708 112.348 497.821 112.122 497.821ZM107.55 496.578C108.844 496.578 110.138 496.578 111.419 496.59C111.406 496.389 111.394 496.138 111.381 495.824C111.256 492.282 110.816 489.003 108.567 489.003C107.186 489.003 106.156 489.368 105.427 490.109C103.945 491.629 103.995 494.493 104.033 496.402C104.033 496.465 104.033 496.528 104.033 496.59C105.214 496.578 106.382 496.578 107.55 496.578Z" fill="#1C1C1C"/>
<path d="M77.5286 542.452C77.516 542.452 77.516 542.452 77.5286 542.452C77.2899 542.452 77.0764 542.314 76.9759 542.113C75.77 539.689 74.3004 537.377 72.6046 535.242C72.3911 534.978 72.4413 534.589 72.7051 534.375C72.9689 534.162 73.3583 534.212 73.5718 534.476C75.0792 536.36 76.4232 538.395 77.5537 540.518L82.6913 531.109C82.8546 530.808 83.2314 530.707 83.5329 530.871C83.8343 531.034 83.9348 531.411 83.7841 531.712L78.0813 542.138C77.9557 542.339 77.7421 542.452 77.5286 542.452Z" fill="#1C1C1C"/>
<path d="M77.5286 569.86C77.516 569.86 77.516 569.86 77.5286 569.86C77.2899 569.86 77.0764 569.722 76.9759 569.521C75.77 567.097 74.3004 564.785 72.6046 562.65C72.3911 562.386 72.4413 561.997 72.7051 561.783C72.9689 561.57 73.3583 561.62 73.5718 561.884C75.0792 563.768 76.4232 565.803 77.5537 567.926L82.6913 558.517C82.8546 558.216 83.2314 558.103 83.5329 558.279C83.8343 558.442 83.9348 558.819 83.7841 559.12L78.0813 569.546C77.9557 569.734 77.7421 569.86 77.5286 569.86Z" fill="#1C1C1C"/>
<path d="M75.4434 597.257C75.4308 597.257 75.4308 597.257 75.4434 597.257C75.2047 597.257 74.9912 597.119 74.8907 596.918C73.6848 594.493 72.2152 592.182 70.5194 590.047C70.3059 589.783 70.3561 589.394 70.6199 589.18C70.8837 588.966 71.2731 589.017 71.4866 589.281C72.994 591.165 74.338 593.2 75.4685 595.322L80.6061 585.914C80.7694 585.613 81.1462 585.512 81.4477 585.675C81.7491 585.839 81.8496 586.216 81.6989 586.517L75.9961 596.943C75.8705 597.131 75.6695 597.257 75.4434 597.257Z" fill="#1C1C1C"/>
<path d="M102.55 542.903C99.8121 542.903 97.0612 542.89 94.3355 542.865C93.9963 542.865 93.72 542.589 93.72 542.249C93.72 541.91 93.9963 541.634 94.3355 541.634C110.753 541.772 127.384 541.483 143.776 540.767C144.115 540.742 144.404 541.018 144.417 541.358C144.429 541.697 144.166 541.986 143.827 541.998C130.16 542.601 116.305 542.903 102.55 542.903Z" fill="#1C1C1C"/>
<path d="M102.55 569.773C99.8121 569.773 97.0612 569.76 94.3355 569.735C93.9963 569.735 93.72 569.459 93.72 569.119C93.72 568.78 93.9963 568.504 94.3355 568.504C110.74 568.655 127.384 568.353 143.776 567.637C144.115 567.625 144.404 567.888 144.417 568.228C144.429 568.567 144.166 568.856 143.827 568.868C130.16 569.471 116.305 569.773 102.55 569.773Z" fill="#1C1C1C"/>
<path d="M103.304 596.651C100.553 596.651 97.8151 596.639 95.0642 596.614C94.7251 596.614 94.4487 596.337 94.4487 595.998C94.4487 595.659 94.7251 595.383 95.0642 595.383C111.469 595.534 128.113 595.232 144.505 594.516C144.844 594.503 145.133 594.767 145.146 595.106C145.158 595.446 144.894 595.735 144.555 595.747C130.901 596.35 117.046 596.651 103.304 596.651Z" fill="#1C1C1C"/>
<g opacity="0.1294">
<path d="M140.309 503.812C140.272 503.134 139.707 502.556 139.053 502.38C137.647 502.029 136.817 503.184 136.704 504.428C136.679 504.742 136.252 505.923 136.302 505.847C136.24 506.011 136.152 506.237 135.825 506.84C135.725 507.116 135.071 508.121 134.883 508.422C134.707 508.636 134.443 508.875 134.318 508.988C133.639 509.478 132.949 509.955 132.195 510.332C131.152 510.696 130.034 510.834 128.967 511.173C128.037 511.475 127.133 511.839 126.166 512.027C124.796 512.078 123.44 512.316 122.083 512.454C119.835 512.706 117.436 512.668 116.971 512.655C113.315 512.643 109.673 513.07 106.017 513.07C102.211 512.882 98.4179 512.643 94.6119 512.429C90.6174 512.128 89.2608 512.027 86.1833 510.847C86.4597 510.96 86.6732 511.073 86.2461 510.872C86.221 510.859 86.1833 510.847 86.1582 510.834C85.1533 510.407 84.2238 509.704 83.1561 509.503C80.9955 509.113 79.9027 512.203 81.8371 513.258C84.99 514.916 88.1052 516.813 91.7102 517.353C94.9636 517.881 98.2797 517.906 101.571 518.007C104.221 518.17 106.872 518.258 109.522 518.107C112.876 518.032 115.376 517.881 117.335 517.567C118.139 517.517 122.887 516.926 123.352 516.801C125.374 516.499 125.437 516.612 128.163 516.009C130.135 515.331 132.145 514.766 134.092 514.037C134.971 513.635 135.7 512.982 136.478 512.404C136.34 512.505 136.202 512.618 136.064 512.718C137.621 511.437 137.332 511.625 138.3 510.231C139.166 508.51 139.455 507.87 140.096 505.345C140.171 504.83 140.41 504.315 140.309 503.812Z" fill="#1C1C1C"/>
</g>
<g opacity="0.1294">
<path d="M86.1959 510.848C86.1833 510.848 86.1708 510.836 86.1582 510.836C86.1582 510.836 86.1582 510.836 86.1708 510.836C86.1833 510.836 86.1959 510.836 86.1959 510.848Z" fill="#1C1C1C"/>
</g>
<g opacity="0.1294">
<path d="M159.591 604.302C159.277 600.119 159.377 595.924 159.013 591.741C158.598 585.636 157.945 579.544 157.681 573.426C157.757 570.085 157.028 566.782 157.053 563.44C156.89 558.328 157.279 553.216 157.43 548.116C157.531 541.107 157.317 534.097 157.97 527.101C158.021 523.157 158.046 519.225 158.586 515.306C158.674 513.974 158.624 512.63 158.724 511.286C158.737 511.161 158.737 511.022 158.749 510.897C158.774 510.746 158.787 510.495 158.737 510.294C158.699 509.528 158.046 508.862 157.317 508.674C153.586 508.033 154.73 513.899 154.215 516.524C153.599 520.381 153.85 524.275 153.612 528.143C152.971 535.366 153.624 542.614 153.473 549.849C153.436 554.874 153.235 559.898 153.247 564.923C153.285 567.41 153.762 569.872 153.787 572.371C153.875 577.371 154.277 582.357 154.416 587.357C154.817 593.977 155.018 600.609 155.031 607.241C155.408 613.333 155.684 619.438 155.521 625.543C155.408 627.264 155.508 626.573 155.056 628.331C154.076 628.231 150.534 627.929 148.336 628.118C142.671 628.118 137.006 627.992 131.341 628.068C127.145 628.13 122.95 628.507 118.754 628.545C112.398 628.57 106.042 628.608 99.6864 628.495C97.0611 628.419 94.4358 628.068 91.798 628.319C85.5802 628.645 79.3498 628.357 73.132 628.181C70.1425 627.804 67.1655 628.055 64.1759 628.13C63.2338 628.08 63.9624 628.168 62.1285 627.867C61.513 627.703 60.8472 627.791 60.3071 628.105C58.5359 629.06 58.8877 631.899 60.8723 632.364C64.8542 633.293 68.9743 632.74 73.0064 633.218C78.3073 633.419 83.6206 633.519 88.9215 633.494C92.4888 633.331 96.0437 633.255 99.611 633.394C110.979 633.595 122.347 633.482 133.69 632.803C140.083 632.426 146.489 632.853 152.883 632.502C154.34 632.401 155.81 632.728 157.267 632.502C158.146 632.288 158.737 631.535 158.875 630.706C159.063 630.479 159.214 630.216 159.302 629.889C160.219 626.975 160.181 623.885 160.332 620.858C160.533 615.318 159.98 609.816 159.591 604.302Z" fill="#1C1C1C"/>
</g>
<path d="M90.1152 587.082C88.7837 586.139 87.4522 585.197 86.1207 584.243C79.5638 579.57 73.0194 574.897 66.4499 570.25C64.2768 568.705 62.0912 567.172 59.9055 565.64C63.5357 556.156 76.8631 551.734 87.6532 559.359C95.5542 564.936 99.4356 579.394 90.1152 587.082Z" fill="white"/>
<path d="M90.1153 587.698C89.9896 587.698 89.864 587.661 89.7635 587.585L88.005 586.342C87.2639 585.814 86.5102 585.287 85.7691 584.746L80.1668 580.752C75.4815 577.411 70.7961 574.069 66.0983 570.753C64.302 569.472 62.4932 568.203 60.6844 566.935L59.5539 566.143C59.3278 565.98 59.2273 565.679 59.3278 565.415C61.0863 560.805 65.0557 557.263 70.1932 555.692C76.1221 553.884 82.6162 555.039 88.005 558.845C92.728 562.174 95.9185 568.329 96.1572 574.522C96.3582 579.76 94.3484 584.382 90.5172 587.548C90.3916 587.648 90.2534 587.698 90.1153 587.698ZM60.6467 565.415L61.3753 565.93C63.1841 567.198 64.9929 568.467 66.8017 569.748C71.4996 573.077 76.1849 576.418 80.8702 579.747L86.4725 583.741C87.2136 584.269 87.9673 584.797 88.7084 585.324L90.0776 586.291C93.3812 583.39 95.0895 579.245 94.9136 574.559C94.7001 568.831 91.6352 562.915 87.2764 559.85C82.1891 556.258 76.0844 555.177 70.5324 556.861C65.935 558.28 62.355 561.383 60.6467 565.415Z" fill="#1C1C1C"/>
<path d="M6.04305 587.082C7.37454 586.139 8.70603 585.197 10.0375 584.243C16.5945 579.57 23.1388 574.897 29.7083 570.25C31.8814 568.705 34.0671 567.172 36.2527 565.64C32.6225 556.156 19.2951 551.734 8.50504 559.359C0.616617 564.936 -3.26479 579.394 6.04305 587.082Z" fill="white"/>
<path d="M6.04311 587.697C5.90494 587.697 5.76676 587.647 5.65371 587.559C1.82255 584.394 -0.187239 579.771 0.0137399 574.533C0.239841 568.341 3.44294 562.198 8.16595 558.857C13.5673 555.051 20.0614 553.895 25.9777 555.704C31.1152 557.274 35.0846 560.817 36.8431 565.426C36.9436 565.69 36.8557 565.992 36.617 566.155L35.4865 566.946C33.6777 568.215 31.8689 569.484 30.0727 570.765C25.3748 574.094 20.6895 577.422 16.0041 580.764L10.4018 584.758C9.66074 585.286 8.90706 585.813 8.16595 586.353L6.40739 587.597C6.29433 587.66 6.16872 587.697 6.04311 587.697ZM20.3503 556.093C16.381 556.093 12.3865 557.375 8.86938 559.862C4.52321 562.939 1.45827 568.843 1.23217 574.571C1.05632 579.244 2.7772 583.389 6.06823 586.303L7.4374 585.336C8.17851 584.808 8.93218 584.281 9.67329 583.753L15.2756 579.759C19.9609 576.417 24.6462 573.076 29.3441 569.76C31.1529 568.479 32.9617 567.21 34.7706 565.941L35.4991 565.426C33.7908 561.382 30.2108 558.292 25.6009 556.885C23.9051 556.357 22.1214 556.093 20.3503 556.093Z" fill="#1C1C1C"/>
<path d="M21.9961 641.32C20.4008 646.357 19.22 651.533 18.4664 656.758C18.2654 658.19 18.5041 660.187 19.936 660.3C20.8907 660.388 21.6192 659.484 22.1468 658.68C24.9228 654.434 27.5356 650.088 30.0101 645.666C30.1608 645.403 30.3116 645.101 30.2236 644.812C30.1483 644.523 29.8594 644.348 29.6082 644.197C27.5607 642.991 25.5132 641.798 21.9961 641.32Z" fill="white"/>
<path d="M20.0615 660.929C19.9987 660.929 19.9484 660.929 19.8856 660.916C19.3204 660.866 18.843 660.602 18.4788 660.15C17.5869 659.032 17.7753 657.198 17.8507 656.658C18.6044 651.407 19.8102 646.182 21.4055 641.12C21.4934 640.831 21.7823 640.655 22.0713 640.693C25.714 641.182 27.8494 642.439 29.922 643.644C30.1858 643.795 30.6631 644.084 30.8138 644.624C30.9646 645.177 30.6882 645.679 30.5375 645.943C28.0755 650.365 25.4251 654.749 22.6491 658.994C22.3225 659.547 21.4181 660.929 20.0615 660.929ZM22.423 641.999C20.9282 646.835 19.7977 651.822 19.0691 656.834C18.9184 657.889 19.0691 658.906 19.446 659.384C19.5967 659.572 19.76 659.66 19.9861 659.685C20.6393 659.723 21.2297 658.944 21.6316 658.341C24.3825 654.12 27.0204 649.762 29.4698 645.365C29.608 645.114 29.6331 645.014 29.6331 644.976C29.6205 644.926 29.5075 644.85 29.3065 644.725C27.3595 643.582 25.513 642.501 22.423 641.999Z" fill="#1C1C1C"/>
<path d="M71.625 641.32C73.2202 646.357 74.401 651.533 75.1547 656.758C75.3556 658.19 75.117 660.187 73.685 660.3C72.7303 660.388 72.0018 659.484 71.4742 658.68C68.6982 654.434 66.0855 650.088 63.6109 645.666C63.4602 645.403 63.3095 645.101 63.3974 644.812C63.4727 644.523 63.7491 644.348 64.0129 644.197C66.0478 642.991 68.0953 641.798 71.625 641.32Z" fill="white"/>
<path d="M73.5595 660.93C72.2029 660.93 71.2985 659.548 70.9594 659.021C68.1959 654.775 65.5329 650.391 63.0709 645.97C62.9202 645.706 62.6439 645.203 62.7946 644.651C62.9453 644.111 63.4352 643.822 63.6864 643.671C65.759 642.465 67.8944 641.209 71.5372 640.719C71.8387 640.669 72.115 640.857 72.2029 641.146C73.7982 646.208 74.9915 651.434 75.7577 656.684C75.8331 657.224 76.0215 659.058 75.1297 660.176C74.778 660.629 74.2881 660.892 73.7228 660.943C73.6726 660.917 73.6098 660.93 73.5595 660.93ZM71.1855 642C68.0954 642.503 66.2489 643.583 64.3019 644.726C64.101 644.839 63.9879 644.927 63.9754 644.977C63.9754 645.015 63.9879 645.103 64.1386 645.367C66.5881 649.763 69.2259 654.122 71.9768 658.342C72.3662 658.945 72.9692 659.737 73.6223 659.686C73.8484 659.661 74.0243 659.573 74.1625 659.385C74.5393 658.908 74.69 657.89 74.5393 656.835C73.8233 651.836 72.6928 646.849 71.1855 642Z" fill="#1C1C1C"/>
<path d="M47.5704 651.686C70.3596 651.686 88.8339 633.504 88.8339 611.075C88.8339 588.647 70.3596 570.465 47.5704 570.465C24.7812 570.465 6.30688 588.647 6.30688 611.075C6.30688 633.504 24.7812 651.686 47.5704 651.686Z" fill="white"/>
<path d="M47.5704 652.299C24.4829 652.299 5.69141 633.809 5.69141 611.073C5.69141 588.35 24.4829 569.848 47.5704 569.848C70.6579 569.848 89.4494 588.338 89.4494 611.073C89.4494 633.809 70.6579 652.299 47.5704 652.299ZM47.5704 571.091C25.1612 571.091 6.9224 589.029 6.9224 611.086C6.9224 633.131 25.1612 651.081 47.5704 651.081C69.9796 651.081 88.2184 633.143 88.2184 611.086C88.2184 589.029 69.9796 571.091 47.5704 571.091Z" fill="#1C1C1C"/>
<path d="M47.5703 646.245C67.3071 646.245 83.3069 630.498 83.3069 611.074C83.3069 591.649 67.3071 575.902 47.5703 575.902C27.8336 575.902 11.8337 591.649 11.8337 611.074C11.8337 630.498 27.8336 646.245 47.5703 646.245Z" fill="white"/>
<path d="M47.5702 646.859C27.5225 646.859 11.2056 630.806 11.2056 611.072C11.2056 591.338 27.51 575.285 47.5702 575.285C67.6179 575.285 83.9223 591.338 83.9223 611.072C83.9349 630.806 67.6179 646.859 47.5702 646.859ZM47.5702 576.516C28.2009 576.516 12.4491 592.017 12.4491 611.072C12.4491 630.127 28.2009 645.628 47.5702 645.628C66.9396 645.628 82.6913 630.127 82.6913 611.072C82.6913 592.029 66.9396 576.516 47.5702 576.516Z" fill="#1C1C1C"/>
<path d="M47.1184 618.922L63.0837 604.363L68.6986 594.93L58.8129 600.494L43.8525 615.794L47.1184 618.922Z" fill="#5EACF3"/>
<path d="M47.1182 619.538C46.9675 619.538 46.8168 619.475 46.6911 619.362L43.4252 616.234C43.3122 616.121 43.2368 615.958 43.2368 615.795C43.2368 615.631 43.2996 615.468 43.4127 615.355L58.373 600.055C58.4107 600.018 58.461 599.98 58.5112 599.955L68.3969 594.403C68.6355 594.265 68.9496 594.315 69.138 594.503C69.339 594.704 69.3641 595.006 69.2259 595.245L63.6111 604.678C63.5859 604.728 63.5357 604.778 63.498 604.816L47.5327 619.375C47.4197 619.488 47.269 619.538 47.1182 619.538ZM44.7316 615.782L47.1308 618.081L62.6062 603.975L66.99 596.614L59.2021 600.998L44.7316 615.782Z" fill="#1C1C1C"/>
<g opacity="0.1294">
<path d="M49.2665 610.317C49.2539 610.807 49.5805 611.272 50.0327 611.435C50.0453 611.46 50.0704 611.485 50.0829 611.51C50.5226 612.163 50.397 612.603 50.9245 613.658C51.6154 614.701 53.3112 613.897 52.9846 612.704C52.6831 611.661 52.3942 610.531 51.628 609.714C50.8241 608.885 49.367 608.998 49.2665 610.317Z" fill="#1C1C1C"/>
</g>
<path d="M47.3569 615.394C47.1936 615.394 47.0303 615.332 46.9047 615.206L24.8723 591.968C24.6337 591.717 24.6462 591.327 24.8975 591.101C25.1487 590.862 25.5381 590.875 25.7642 591.126L47.8091 614.377C48.0477 614.628 48.0352 615.018 47.784 615.244C47.6709 615.344 47.5076 615.394 47.3569 615.394Z" fill="#1C1C1C"/>
<path d="M46.8797 610.471C45.1212 610.635 43.551 612.004 43.1365 613.712C42.5964 616.011 44.3549 618.573 46.6913 618.887C49.0277 619.201 51.4018 617.167 51.4646 614.818C51.5274 612.456 49.2287 610.258 46.8797 610.471Z" fill="white"/>
<path d="M47.181 619.541C46.9926 619.541 46.8042 619.528 46.6158 619.503C45.3345 619.327 44.1287 618.561 43.3373 617.405C42.5334 616.237 42.2445 614.843 42.5459 613.574C43.0107 611.602 44.8195 610.044 46.8293 609.856C48.098 609.743 49.4295 610.233 50.4595 611.2C51.5272 612.192 52.1176 613.511 52.0799 614.83C52.0548 616.124 51.4141 617.393 50.3464 618.322C49.4169 619.113 48.299 619.541 47.181 619.541ZM46.9424 611.087C45.435 611.225 44.091 612.393 43.7518 613.863C43.5257 614.792 43.7518 615.822 44.3548 616.702C44.9577 617.581 45.8495 618.159 46.7791 618.284C47.7212 618.41 48.726 618.083 49.5425 617.393C50.3464 616.702 50.8238 615.76 50.8489 614.817C50.874 613.863 50.4093 612.858 49.6179 612.117C48.8391 611.363 47.8593 610.999 46.9424 611.087Z" fill="#1C1C1C"/>
<g opacity="0.1294">
<path d="M48.1357 652.133H48.123C48.1735 652.133 48.1861 652.145 48.1357 652.133Z" fill="#1C1C1C"/>
</g>
<g opacity="0.1294">
<path d="M27.4976 646.834C28.4271 647.298 29.3817 647.725 30.3364 648.127C32.2834 648.931 34.2806 649.584 36.303 650.137C36.6295 650.225 36.7677 650.489 36.7552 650.753C37.4209 650.903 38.0992 651.016 38.7775 651.104C41.3651 651.594 43.9904 651.808 46.6157 651.732C46.7539 651.871 46.9423 651.971 47.181 652.009C47.294 652.034 47.9472 652.109 48.1105 652.134C48.0854 652.134 48.0602 652.122 48.0225 652.122C48.3994 652.172 48.7762 652.185 49.1531 652.222C49.9067 652.272 50.673 652.273 51.4266 652.197C52.7832 652.122 54.8935 651.644 56.9912 651.104C59.8803 650.476 62.6061 649.321 65.3695 648.253C66.7136 647.713 71.0346 645.891 73.1952 643.932C75.3557 642.111 77.2147 640.013 78.8728 637.752C79.0864 637.865 79.325 637.903 79.5637 637.84C80.2546 637.513 79.9782 637.513 80.5183 636.872C81.0962 636.043 81.5986 635.189 82.1011 634.31C82.7417 633.242 83.42 632.187 83.8722 631.019C84.0104 630.743 84.1234 630.429 84.0606 630.127C84.5254 629.373 84.965 628.607 85.3293 627.803C87.6531 623.218 89.0348 616.121 88.7962 609.878C88.6454 607.228 88.1932 604.59 87.7034 601.977C86.7989 598.071 86.1332 597.129 84.8017 593.762C84.6133 593.448 84.3369 593.298 84.048 593.26C83.3949 591.702 82.5281 589.542 81.5609 587.695C80.8073 586.113 79.7647 584.668 78.5211 583.437C78.1443 583.123 77.8428 582.683 77.4032 582.47C77.0012 582.269 76.4988 582.47 76.2727 582.847C75.8205 583.626 76.6997 584.191 77.1645 584.693C77.7675 585.346 77.6795 585.284 77.9935 585.686C78.7849 586.703 79.325 587.871 79.9154 589.002C80.6063 590.296 81.2846 591.602 81.875 592.946C82.2392 593.876 82.9175 595.295 83.6461 596.79C84.4877 599.34 84.9022 601.349 85.4926 604.389C86.6859 610.896 86.4221 617.528 83.7466 624.5C83.7466 624.5 83.7466 624.5 83.7466 624.512C82.2518 627.54 79.5511 631.722 77.3152 634.272C75.3431 636.609 72.8811 638.468 70.6327 640.54C68.2586 642.588 66.6382 643.944 63.6864 645.452C61.9906 646.256 59.6417 647.135 57.2801 647.889C53.0721 648.831 48.6004 649.371 44.3798 649.421C42.4705 649.245 40.8878 648.919 38.6142 648.554C35.1473 647.951 31.6428 647.286 28.3643 645.967C27.7739 645.728 27.2715 646.205 27.2463 646.72C27.3217 646.733 27.4096 646.783 27.4976 646.834Z" fill="#1C1C1C"/>
</g>
<path d="M48.0601 584.555C47.7209 584.555 47.4446 584.279 47.4446 583.94V578.928C47.4446 578.589 47.7209 578.312 48.0601 578.312C48.3992 578.312 48.6756 578.589 48.6756 578.928V583.94C48.6756 584.279 48.3992 584.555 48.0601 584.555Z" fill="#1C1C1C"/>
<path d="M48.0601 642.688C47.7209 642.688 47.4446 642.412 47.4446 642.073V637.061C47.4446 636.722 47.7209 636.445 48.0601 636.445C48.3992 636.445 48.6756 636.722 48.6756 637.061V642.073C48.6756 642.424 48.3992 642.688 48.0601 642.688Z" fill="#1C1C1C"/>
<path d="M79.6264 611.122H74.6145C74.2754 611.122 73.999 610.845 73.999 610.506C73.999 610.167 74.2754 609.891 74.6145 609.891H79.6264C79.9656 609.891 80.2419 610.167 80.2419 610.506C80.2419 610.845 79.9782 611.122 79.6264 611.122Z" fill="#1C1C1C"/>
<path d="M21.4931 611.122H16.4812C16.1421 611.122 15.8657 610.845 15.8657 610.506C15.8657 610.167 16.1421 609.891 16.4812 609.891H21.4931C21.8323 609.891 22.1086 610.167 22.1086 610.506C22.1086 610.845 21.8323 611.122 21.4931 611.122Z" fill="#1C1C1C"/>
<path d="M44.6311 555.34C43.1488 555.453 41.6164 555.729 40.4231 556.608C39.2297 557.5 38.5012 559.158 39.0916 560.515C39.7322 561.997 41.5536 562.525 43.1488 562.675C45.6485 562.914 50.2962 563.354 52.7581 562.864C55.1825 562.386 56.7149 560.465 56.1371 558.103C55.911 557.161 55.1071 556.445 54.2529 556.005C53.3862 555.566 47.0302 555.151 44.6311 555.34Z" fill="white"/>
<path d="M49.7559 563.706C47.3567 563.706 44.6561 563.442 43.0859 563.291C40.7244 563.065 39.1417 562.186 38.5262 560.766C37.7726 559.045 38.7523 557.086 40.0587 556.119C41.4404 555.089 43.199 554.837 44.5807 554.724C46.8417 554.548 53.4489 554.913 54.5292 555.465C55.7099 556.068 56.4887 556.96 56.74 557.965C57.0414 559.184 56.8656 560.352 56.2375 561.344C55.5341 562.437 54.3533 563.203 52.8837 563.492C52.0295 563.643 50.9241 563.706 49.7559 563.706ZM44.6812 555.955C43.4628 556.056 41.9177 556.269 40.7872 557.111C39.8577 557.802 39.1794 559.184 39.6567 560.276C40.1969 561.532 41.8926 561.947 43.2115 562.073C45.4851 562.299 50.2081 562.751 52.645 562.274C53.7755 562.047 54.6799 561.482 55.1949 560.678C55.6346 559.975 55.7602 559.146 55.5466 558.267C55.3331 557.387 54.4664 556.822 53.9765 556.571C53.2731 556.219 47.1432 555.767 44.6812 555.955Z" fill="#1C1C1C"/>
<path d="M47.3819 571.216C47.0301 571.216 46.7664 570.94 46.7664 570.588L46.8543 563.001C46.8543 562.662 47.1306 562.398 47.4698 562.398C47.4698 562.398 47.4698 562.398 47.4823 562.398C47.8215 562.398 48.0978 562.675 48.0853 563.026L47.9974 570.613C47.9974 570.94 47.721 571.216 47.3819 571.216Z" fill="#1C1C1C"/>
<g opacity="0.1294">
<path d="M78.4582 627.842C78.2698 628.143 75.858 630.505 74.5014 631.635C73.3207 632.552 72.1902 633.356 71.0345 634.122C70.8336 634.16 70.6326 634.223 70.4316 634.336C64.553 638.042 60.1314 639.398 52.7078 640.592C49.1781 641.169 45.1208 641.647 39.5562 640.453C35.6622 639.662 33.7781 638.732 29.7208 636.346C27.9999 635.291 24.1436 632.339 21.5309 629.575C20.8652 628.771 20.2999 628.005 19.8226 627.264C17.0842 623.709 15.1749 619.438 13.5797 615.092C13.0647 614.113 12.6627 613.082 12.2984 612.027C12.0598 614.389 12.0346 616.75 12.1979 619.112C12.939 620.908 13.7178 622.704 14.5469 624.463C14.6097 624.589 14.6725 624.714 14.7227 624.84C14.8358 625.041 14.9363 625.254 15.0493 625.455C17.3731 629.6 20.2371 633.381 23.4528 636.798C26.3167 639.838 29.9092 641.76 33.5143 643.606C34.4187 643.958 35.3356 644.272 36.2777 644.548C38.3629 645.076 40.536 645.302 42.6839 645.515C42.6965 645.515 42.6965 645.515 42.7216 645.528C45.058 645.905 47.4572 645.905 49.8061 645.679C51.6526 645.541 53.4363 645.076 55.22 644.649C58.7246 643.895 62.2166 642.966 65.4448 641.546C66.2613 641.044 67.0527 640.491 67.8314 639.913C72.3284 636.559 76.059 632.314 79.1491 627.591C79.6641 626.762 80.154 625.907 80.6062 625.041C79.8023 625.882 79.2873 626.988 78.4582 627.842Z" fill="#1C1C1C"/>
</g>
<path d="M8.279 582.711C8.26644 582.711 8.26644 582.711 8.25388 582.711C8.14083 582.698 8.06546 582.598 8.07802 582.485L10.4647 561.068C10.4772 560.955 10.5777 560.879 10.6908 560.892C10.8038 560.905 10.8792 561.005 10.8666 561.118L8.47998 582.535C8.47998 582.623 8.37949 582.711 8.279 582.711Z" fill="#1C1C1C"/>
<path d="M4.74922 581.97C4.73666 581.97 4.7241 581.97 4.7241 581.97C4.61105 581.957 4.53568 581.844 4.54824 581.731L7.13585 564.384C7.14841 564.271 7.26146 564.196 7.37451 564.208C7.48756 564.221 7.56293 564.334 7.55037 564.447L4.96276 581.794C4.93764 581.895 4.84971 581.97 4.74922 581.97Z" fill="#1C1C1C"/>
<path d="M2.71431 576.58C2.70175 576.58 2.70174 576.58 2.68918 576.58C2.57613 576.568 2.50077 576.467 2.51333 576.354L3.267 570.689C3.27956 570.576 3.38005 570.501 3.4931 570.513C3.60615 570.526 3.68152 570.626 3.66896 570.739L2.91529 576.404C2.90272 576.505 2.8148 576.58 2.71431 576.58Z" fill="#1C1C1C"/>
<path d="M12.0849 580.426C12.0723 580.426 12.0723 580.426 12.0597 580.426C11.9467 580.413 11.8588 580.313 11.8713 580.2L13.9565 558.595C13.969 558.482 14.0695 558.406 14.1826 558.406C14.2956 558.419 14.3836 558.519 14.371 558.632L12.2858 580.238C12.2733 580.351 12.1853 580.426 12.0849 580.426Z" fill="#1C1C1C"/>
<path d="M15.6271 577.788C15.6146 577.788 15.6146 577.788 15.602 577.788C15.489 577.775 15.4136 577.675 15.4262 577.562C16.2301 571.206 16.9084 564.749 17.436 558.368C17.4485 558.255 17.549 558.18 17.6621 558.18C17.7751 558.192 17.863 558.293 17.8505 558.406C17.3103 564.787 16.632 571.256 15.8407 577.612C15.8156 577.712 15.7276 577.788 15.6271 577.788Z" fill="#1C1C1C"/>
<path d="M19.2324 575.513C19.2198 575.513 19.2198 575.513 19.2072 575.513C19.0942 575.501 19.0188 575.4 19.0314 575.287C19.7851 569.61 20.4759 563.844 21.104 558.154C21.1165 558.041 21.217 557.965 21.3301 557.978C21.4431 557.99 21.5185 558.091 21.5059 558.204C20.8779 563.894 20.1745 569.66 19.4334 575.35C19.4208 575.438 19.3329 575.513 19.2324 575.513Z" fill="#1C1C1C"/>
<path d="M23.1766 572.373C23.1641 572.373 23.1641 572.373 23.1515 572.373C23.0385 572.36 22.9505 572.26 22.9631 572.147C23.4153 567.675 24.0057 563.153 24.7217 558.719C24.7342 558.606 24.8473 558.531 24.9603 558.556C25.0734 558.568 25.1488 558.681 25.1362 558.794C24.4202 563.228 23.8298 567.725 23.3776 572.197C23.3651 572.298 23.2771 572.373 23.1766 572.373Z" fill="#1C1C1C"/>
<path d="M26.7817 569.861C26.7691 569.861 26.7691 569.861 26.7566 569.861C26.6435 569.849 26.5681 569.748 26.5807 569.635C26.9701 566.42 27.46 563.179 28.0504 560.001C28.0755 559.888 28.176 559.825 28.289 559.838C28.4021 559.863 28.4774 559.963 28.4523 560.076C27.8619 563.254 27.3721 566.482 26.9952 569.685C26.9701 569.786 26.8822 569.861 26.7817 569.861Z" fill="#1C1C1C"/>
<path d="M30.8012 567.086C30.7887 567.086 30.7887 567.086 30.7761 567.086C30.663 567.073 30.5877 566.973 30.6002 566.86C30.7887 565.365 31.0273 563.857 31.3413 562.375C31.3665 562.262 31.467 562.187 31.58 562.212C31.6931 562.237 31.7684 562.337 31.7433 562.451C31.4418 563.92 31.1906 565.415 31.0148 566.91C30.9896 567.01 30.9017 567.086 30.8012 567.086Z" fill="#1C1C1C"/>
<path d="M63.5354 566.419C63.5228 566.419 63.5103 566.419 63.4977 566.419C63.3847 566.394 63.3093 566.293 63.3344 566.18L64.1007 561.633C64.1132 561.52 64.2263 561.445 64.3393 561.47C64.4524 561.495 64.5277 561.595 64.5026 561.708L63.7364 566.255C63.7238 566.356 63.6359 566.419 63.5354 566.419Z" fill="#1C1C1C"/>
<path d="M66.8769 568.505C66.8643 568.505 66.8518 568.505 66.8518 568.505C66.7387 568.493 66.6634 568.38 66.6759 568.267C67.1281 565.164 67.6683 562.011 68.2712 558.934C68.2963 558.821 68.3968 558.745 68.5099 558.77C68.6229 558.796 68.6983 558.896 68.6732 559.009C68.0702 562.087 67.5301 565.227 67.0779 568.33C67.0653 568.443 66.9774 568.505 66.8769 568.505Z" fill="#1C1C1C"/>
<path d="M70.5573 570.928C70.5447 570.928 70.5447 570.928 70.5321 570.928C70.4191 570.915 70.3312 570.815 70.3437 570.702C70.7582 566.381 71.3486 562.022 72.1148 557.738C72.14 557.625 72.2405 557.55 72.3535 557.575C72.4666 557.6 72.5419 557.701 72.5168 557.814C71.7631 562.085 71.1728 566.431 70.7582 570.739C70.7457 570.852 70.6578 570.928 70.5573 570.928Z" fill="#1C1C1C"/>
<path d="M73.8483 573.602C73.8357 573.602 73.8357 573.602 73.8232 573.602C73.7101 573.589 73.6348 573.489 73.6348 573.376C74.2 568.075 74.803 562.699 75.431 557.411C75.4436 557.298 75.5441 557.21 75.6571 557.235C75.7702 557.247 75.8455 557.348 75.833 557.461C75.2049 562.749 74.5894 568.113 74.0367 573.414C74.0367 573.527 73.9488 573.602 73.8483 573.602Z" fill="#1C1C1C"/>
<path d="M77.2775 575.826C77.265 575.826 77.265 575.826 77.2524 575.826C77.1394 575.813 77.064 575.712 77.0766 575.599C77.9056 569.633 78.5462 563.553 79.011 557.549C79.0235 557.436 79.1115 557.348 79.2371 557.361C79.3501 557.373 79.4381 557.474 79.4255 557.587C78.9733 563.603 78.3201 569.683 77.4911 575.662C77.4659 575.75 77.378 575.826 77.2775 575.826Z" fill="#1C1C1C"/>
<path d="M80.5685 578.064C80.556 578.064 80.556 578.064 80.5434 578.064C80.4303 578.052 80.355 577.951 80.355 577.838L82.3773 558.997C82.3899 558.884 82.4904 558.796 82.6034 558.821C82.7165 558.833 82.7919 558.934 82.7919 559.047L80.7695 577.889C80.7569 577.989 80.669 578.064 80.5685 578.064Z" fill="#1C1C1C"/>
<path d="M83.9727 580.073H83.9601C83.8471 580.06 83.7591 579.972 83.7717 579.859C84.1862 573.554 84.7264 567.173 85.4047 560.879C85.4172 560.766 85.5177 560.678 85.6308 560.704C85.7438 560.716 85.8192 560.817 85.8192 560.93C85.1409 567.21 84.6007 573.591 84.1862 579.897C84.1737 579.998 84.0857 580.073 83.9727 580.073Z" fill="#1C1C1C"/>
<path d="M87.7786 583.627C87.766 583.627 87.766 583.627 87.7786 583.627C87.653 583.627 87.565 583.527 87.5776 583.414C87.8414 576.58 88.2057 569.647 88.6202 562.813C88.6328 562.7 88.7207 562.6 88.8337 562.625C88.9468 562.638 89.0347 562.725 89.0221 562.839C88.5951 569.672 88.2434 576.593 87.9796 583.426C87.967 583.539 87.8791 583.627 87.7786 583.627Z" fill="#1C1C1C"/>
<path d="M91.7357 582.308C91.6226 582.308 91.5347 582.22 91.5347 582.107C91.4845 577.334 91.6226 572.498 91.9492 567.725C91.9618 567.612 92.0497 567.524 92.1628 567.536C92.2758 567.549 92.3637 567.637 92.3512 567.75C92.0246 572.498 91.8864 577.334 91.9367 582.095C91.9492 582.22 91.8487 582.308 91.7357 582.308Z" fill="#1C1C1C"/>
<g opacity="0.1294">
<path d="M54.0519 559.598C53.9514 559.661 53.8509 559.724 53.7379 559.787C53.5871 559.837 53.4238 559.887 53.2605 559.925C52.5697 560.088 50.7106 560.226 49.0902 560.163C47.1684 560.151 43.7266 559.623 42.9981 559.561C41.8927 559.447 40.7999 559.008 39.707 559.008C38.3127 559.133 38.1871 561.219 39.5312 561.558C43.6387 562.349 47.8718 563.015 52.0672 562.575C52.9465 562.462 53.8509 562.374 54.7051 562.11C55.2452 561.96 55.823 561.671 55.9612 561.08C56.2878 560 55.0066 559.008 54.0519 559.598Z" fill="#1C1C1C"/>
</g>
<g opacity="0.1294">
<path d="M34.2179 563.429C31.2534 564.961 28.5402 566.946 25.6762 568.667C22.3601 570.526 19.1947 572.599 16.2051 574.948C12.5121 577.585 8.96986 580.55 4.96284 584.079C4.53576 584.456 4.04587 584.858 4.071 585.474C4.03331 586.604 5.54066 587.232 6.31945 586.403C6.55811 586.19 6.78421 585.989 7.02287 585.788C7.34946 585.888 7.71374 585.876 8.04033 585.675C10.0878 584.155 10.9671 583.225 12.6377 582.095C15.1374 580.349 17.7753 578.791 20.2749 577.033C22.4355 575.437 23.5157 574.282 25.1612 573.114C25.0607 573.189 24.9728 573.264 24.8723 573.34C27.0203 571.732 29.2939 570.275 31.4418 568.654C32.7608 567.712 34.2053 566.933 35.4865 565.929C36.6673 564.974 35.7126 563.027 34.2179 563.429Z" fill="#1C1C1C"/>
</g>
<g opacity="0.1294">
<path d="M91.1826 583.966C90.6927 583.715 90.2405 583.363 89.7883 583.037C89.7506 583.012 89.7255 582.986 89.7004 582.974C89.5622 582.861 89.4115 582.748 89.2733 582.635C83.5203 578.012 73.9487 571.681 66.9521 566.242C65.8969 565.577 64.8669 564.81 63.7364 564.27C63.4601 563.743 62.9325 563.353 62.1411 563.328C59.7043 563.391 59.7043 566.958 62.1411 567.034C62.2667 567.034 62.3798 567.009 62.4929 566.996C63.6359 567.712 64.7664 568.428 65.8593 569.232C68.8111 571.493 72.2529 574.206 76.0966 576.882C79.4379 579.293 84.0353 582.296 86.2209 584.117C87.3138 584.984 88.3689 585.926 89.5371 586.692C89.5497 586.705 89.5622 586.704 89.5622 586.717C90.1275 587.207 91.0444 587.295 91.6222 586.78C92.6648 586.064 92.3382 584.356 91.1826 583.966Z" fill="#1C1C1C"/>
</g>
<path d="M669.875 99.6172H580.615V144.925H669.875V99.6172Z" fill="white"/>
<path d="M669.875 145.527H580.615C580.276 145.527 580 145.25 580 144.911V99.6155C580 99.2763 580.276 99 580.615 99H669.875C670.214 99 670.491 99.2763 670.491 99.6155V144.924C670.491 145.25 670.214 145.527 669.875 145.527ZM581.231 144.296H669.26V100.231H581.231V144.296Z" fill="#1C1C1C"/>
<path d="M638.61 133.316C636.989 133.316 635.407 132.349 634.515 131.143C633.322 129.523 632.995 127.538 632.832 125.629C632.493 121.722 632.882 114.399 636.525 111.799C637.291 111.259 638.258 111.083 639.351 111.284C640.758 111.56 642.253 112.515 642.906 113.545C644.212 115.617 644.865 118.243 644.765 121.119C644.677 123.895 643.911 126.608 643.258 128.656C642.717 130.352 641.926 132.186 640.205 132.964C639.69 133.216 639.15 133.316 638.61 133.316ZM638.497 112.439C638.095 112.439 637.643 112.527 637.253 112.804C634.063 115.09 633.774 122.124 634.075 125.516C634.226 127.249 634.502 129.033 635.52 130.402C636.424 131.633 638.246 132.5 639.715 131.846C640.996 131.269 641.612 129.799 642.102 128.292C642.73 126.319 643.471 123.719 643.559 121.081C643.647 118.444 643.069 116.07 641.888 114.198C641.474 113.545 640.381 112.728 639.137 112.49C638.936 112.477 638.723 112.439 638.497 112.439Z" fill="#1C1C1C"/>
<path d="M614.141 133.316C612.521 133.316 610.938 132.349 610.046 131.143C608.853 129.535 608.526 127.538 608.363 125.629C608.024 121.722 608.413 114.399 612.056 111.799C612.822 111.259 613.802 111.083 614.882 111.284C616.289 111.56 617.784 112.515 618.437 113.545C619.743 115.617 620.396 118.243 620.296 121.119C620.208 123.895 619.442 126.608 618.789 128.656C618.248 130.352 617.457 132.186 615.736 132.964C615.221 133.216 614.681 133.316 614.141 133.316ZM614.015 112.439C613.613 112.439 613.161 112.527 612.772 112.804C609.581 115.09 609.292 122.124 609.594 125.516C609.745 127.249 610.021 129.033 611.038 130.402C611.943 131.62 613.764 132.5 615.234 131.846C616.515 131.269 617.13 129.799 617.62 128.292C618.248 126.319 618.99 123.719 619.077 121.081C619.165 118.444 618.588 116.07 617.407 114.198C616.992 113.545 615.899 112.728 614.656 112.49C614.468 112.477 614.241 112.439 614.015 112.439Z" fill="#1C1C1C"/>
<path d="M597.623 133.316C596.002 133.316 594.42 132.349 593.528 131.143C592.335 129.535 592.008 127.538 591.845 125.629C591.506 121.722 591.895 114.399 595.538 111.799C596.304 111.259 597.271 111.083 598.364 111.284C599.771 111.56 601.266 112.515 601.919 113.545C603.225 115.617 603.878 118.243 603.778 121.119C603.69 123.908 602.924 126.608 602.27 128.656C601.73 130.352 600.939 132.186 599.218 132.964C598.691 133.216 598.163 133.316 597.623 133.316ZM596.254 112.816C593.063 115.102 592.774 122.137 593.076 125.528C593.226 127.262 593.503 129.045 594.52 130.414C595.425 131.645 597.246 132.512 598.716 131.859C599.997 131.281 600.612 129.812 601.102 128.304C601.73 126.332 602.471 123.732 602.559 121.094C602.647 118.456 602.07 116.082 600.889 114.211C600.474 113.557 599.381 112.741 598.138 112.502C597.61 112.402 596.869 112.377 596.254 112.816Z" fill="#1C1C1C"/>
<path d="M651.623 133.303C650.405 133.303 649.212 133.04 648.232 132.512C647.93 132.349 647.83 131.972 647.993 131.671C648.157 131.369 648.533 131.269 648.835 131.432C650.857 132.537 654.136 132.173 655.982 130.64C657.615 129.284 658.218 127.148 657.552 125.063C657.289 124.222 656.573 122.664 654.789 121.797C653.244 121.044 651.209 121.094 650.028 121.91C649.84 122.049 649.576 122.061 649.375 121.936C649.174 121.823 649.048 121.596 649.061 121.358V121.32C649.249 118.217 649.45 115.014 649.752 111.761C649.777 111.434 650.053 111.183 650.405 111.196C652.164 111.296 653.545 111.321 654.864 111.347C656.208 111.372 657.59 111.397 659.374 111.497C659.713 111.51 659.977 111.811 659.952 112.15C659.926 112.49 659.65 112.753 659.298 112.728C657.54 112.628 656.158 112.603 654.839 112.577C653.658 112.552 652.427 112.527 650.933 112.452C650.707 115.127 650.531 117.778 650.367 120.365C651.862 119.825 653.784 119.926 655.342 120.679C656.962 121.471 658.168 122.89 658.733 124.674C659.55 127.249 658.796 129.887 656.774 131.57C655.417 132.713 653.483 133.303 651.623 133.303Z" fill="#1C1C1C"/>
<path d="M627.054 115.756C626.476 116.019 625.898 116.434 625.81 117.012C625.71 117.703 626.501 118.343 627.28 118.255C628.059 118.167 628.624 117.414 628.473 116.735C628.322 116.057 627.506 115.555 627.054 115.756Z" fill="#1C1C1C"/>
<path d="M627.054 125.428C626.476 125.692 625.898 126.106 625.81 126.684C625.71 127.375 626.501 128.015 627.28 127.927C628.059 127.84 628.624 127.086 628.473 126.408C628.322 125.729 627.506 125.214 627.054 125.428Z" fill="#1C1C1C"/>
</g>
</svg>
